G04 #@! TF.GenerationSoftware,KiCad,Pcbnew,5.1.5+dfsg1-2build2*
G04 #@! TF.CreationDate,2021-03-04T21:13:52+09:00*
G04 #@! TF.ProjectId,pad,7061642e-6b69-4636-9164-5f7063625858,rev?*
G04 #@! TF.SameCoordinates,Original*
G04 #@! TF.FileFunction,Soldermask,Top*
G04 #@! TF.FilePolarity,Negative*
%FSLAX46Y46*%
G04 Gerber Fmt 4.6, Leading zero omitted, Abs format (unit mm)*
G04 Created by KiCad (PCBNEW 5.1.5+dfsg1-2build2) date 2021-03-04 21:13:52*
%MOMM*%
%LPD*%
G04 APERTURE LIST*
%ADD10C,0.100000*%
G04 APERTURE END LIST*
D10*
G36*
X78775880Y-131759776D02*
G01*
X79156593Y-131835504D01*
X79566249Y-132005189D01*
X79934929Y-132251534D01*
X80248466Y-132565071D01*
X80494811Y-132933751D01*
X80664496Y-133343407D01*
X80751000Y-133778296D01*
X80751000Y-134221704D01*
X80664496Y-134656593D01*
X80494811Y-135066249D01*
X80248466Y-135434929D01*
X79934929Y-135748466D01*
X79566249Y-135994811D01*
X79156593Y-136164496D01*
X78775880Y-136240224D01*
X78721705Y-136251000D01*
X78278295Y-136251000D01*
X78224120Y-136240224D01*
X77843407Y-136164496D01*
X77433751Y-135994811D01*
X77065071Y-135748466D01*
X76751534Y-135434929D01*
X76505189Y-135066249D01*
X76335504Y-134656593D01*
X76249000Y-134221704D01*
X76249000Y-133778296D01*
X76335504Y-133343407D01*
X76505189Y-132933751D01*
X76751534Y-132565071D01*
X77065071Y-132251534D01*
X77433751Y-132005189D01*
X77843407Y-131835504D01*
X78224120Y-131759776D01*
X78278295Y-131749000D01*
X78721705Y-131749000D01*
X78775880Y-131759776D01*
G37*
G36*
X142775880Y-131759776D02*
G01*
X143156593Y-131835504D01*
X143566249Y-132005189D01*
X143934929Y-132251534D01*
X144248466Y-132565071D01*
X144494811Y-132933751D01*
X144664496Y-133343407D01*
X144751000Y-133778296D01*
X144751000Y-134221704D01*
X144664496Y-134656593D01*
X144494811Y-135066249D01*
X144248466Y-135434929D01*
X143934929Y-135748466D01*
X143566249Y-135994811D01*
X143156593Y-136164496D01*
X142775880Y-136240224D01*
X142721705Y-136251000D01*
X142278295Y-136251000D01*
X142224120Y-136240224D01*
X141843407Y-136164496D01*
X141433751Y-135994811D01*
X141065071Y-135748466D01*
X140751534Y-135434929D01*
X140505189Y-135066249D01*
X140335504Y-134656593D01*
X140249000Y-134221704D01*
X140249000Y-133778296D01*
X140335504Y-133343407D01*
X140505189Y-132933751D01*
X140751534Y-132565071D01*
X141065071Y-132251534D01*
X141433751Y-132005189D01*
X141843407Y-131835504D01*
X142224120Y-131759776D01*
X142278295Y-131749000D01*
X142721705Y-131749000D01*
X142775880Y-131759776D01*
G37*
G36*
X142775880Y-56259776D02*
G01*
X143156593Y-56335504D01*
X143566249Y-56505189D01*
X143934929Y-56751534D01*
X144248466Y-57065071D01*
X144494811Y-57433751D01*
X144664496Y-57843407D01*
X144751000Y-58278296D01*
X144751000Y-58721704D01*
X144664496Y-59156593D01*
X144494811Y-59566249D01*
X144248466Y-59934929D01*
X143934929Y-60248466D01*
X143566249Y-60494811D01*
X143156593Y-60664496D01*
X142775880Y-60740224D01*
X142721705Y-60751000D01*
X142278295Y-60751000D01*
X142224120Y-60740224D01*
X141843407Y-60664496D01*
X141433751Y-60494811D01*
X141065071Y-60248466D01*
X140751534Y-59934929D01*
X140505189Y-59566249D01*
X140335504Y-59156593D01*
X140249000Y-58721704D01*
X140249000Y-58278296D01*
X140335504Y-57843407D01*
X140505189Y-57433751D01*
X140751534Y-57065071D01*
X141065071Y-56751534D01*
X141433751Y-56505189D01*
X141843407Y-56335504D01*
X142224120Y-56259776D01*
X142278295Y-56249000D01*
X142721705Y-56249000D01*
X142775880Y-56259776D01*
G37*
G36*
X78775880Y-56259776D02*
G01*
X79156593Y-56335504D01*
X79566249Y-56505189D01*
X79934929Y-56751534D01*
X80248466Y-57065071D01*
X80494811Y-57433751D01*
X80664496Y-57843407D01*
X80751000Y-58278296D01*
X80751000Y-58721704D01*
X80664496Y-59156593D01*
X80494811Y-59566249D01*
X80248466Y-59934929D01*
X79934929Y-60248466D01*
X79566249Y-60494811D01*
X79156593Y-60664496D01*
X78775880Y-60740224D01*
X78721705Y-60751000D01*
X78278295Y-60751000D01*
X78224120Y-60740224D01*
X77843407Y-60664496D01*
X77433751Y-60494811D01*
X77065071Y-60248466D01*
X76751534Y-59934929D01*
X76505189Y-59566249D01*
X76335504Y-59156593D01*
X76249000Y-58721704D01*
X76249000Y-58278296D01*
X76335504Y-57843407D01*
X76505189Y-57433751D01*
X76751534Y-57065071D01*
X77065071Y-56751534D01*
X77433751Y-56505189D01*
X77843407Y-56335504D01*
X78224120Y-56259776D01*
X78278295Y-56249000D01*
X78721705Y-56249000D01*
X78775880Y-56259776D01*
G37*
M02*
