M48
; DRILL file {KiCad 5.1.5+dfsg1-2build2} date 2021年03月04日 21時13分54秒
; FORMAT={-:-/ absolute / inch / decimal}
; #@! TF.CreationDate,2021-03-04T21:13:54+09:00
; #@! TF.GenerationSoftware,Kicad,Pcbnew,5.1.5+dfsg1-2build2
FMAT,2
INCH
T1C0.0157
T2C0.0866
%
G90
G05
T1
X5.5453Y-5.2756
X5.5643Y-5.2297
X5.5643Y-5.3215
X5.6102Y-5.2106
X5.6102Y-5.3406
X5.6562Y-5.2297
X5.6562Y-5.3215
X5.6752Y-5.2756
X5.5453Y-2.3031
X5.5643Y-2.2572
X5.5643Y-2.3491
X5.6102Y-2.2382
X5.6102Y-2.3681
X5.6562Y-2.2572
X5.6562Y-2.3491
X5.6752Y-2.3031
X3.0256Y-2.3031
X3.0446Y-2.2572
X3.0446Y-2.3491
X3.0906Y-2.2382
X3.0906Y-2.3681
X3.1365Y-2.2572
X3.1365Y-2.3491
X3.1555Y-2.3031
X3.0256Y-5.2756
X3.0446Y-5.2297
X3.0446Y-5.3215
X3.0906Y-5.2106
X3.0906Y-5.3406
X3.1365Y-5.2297
X3.1365Y-5.3215
X3.1555Y-5.2756
T2
X5.6102Y-5.2756
X5.6102Y-2.3031
X3.0906Y-2.3031
X3.0906Y-5.2756
T0
M30
