G04 #@! TF.GenerationSoftware,KiCad,Pcbnew,5.1.5+dfsg1-2build2*
G04 #@! TF.CreationDate,2021-03-23T21:39:09+09:00*
G04 #@! TF.ProjectId,MTCH6102_breakout,4d544348-3631-4303-925f-627265616b6f,rev?*
G04 #@! TF.SameCoordinates,Original*
G04 #@! TF.FileFunction,Soldermask,Top*
G04 #@! TF.FilePolarity,Negative*
%FSLAX46Y46*%
G04 Gerber Fmt 4.6, Leading zero omitted, Abs format (unit mm)*
G04 Created by KiCad (PCBNEW 5.1.5+dfsg1-2build2) date 2021-03-23 21:39:09*
%MOMM*%
%LPD*%
G04 APERTURE LIST*
%ADD10C,0.100000*%
%ADD11C,0.200000*%
%ADD12C,1.100000*%
%ADD13C,4.800000*%
G04 APERTURE END LIST*
D10*
G36*
X160850000Y-108800000D02*
G01*
X158600000Y-106550000D01*
X160850000Y-104300000D01*
X160850000Y-108800000D01*
G37*
X160850000Y-108800000D02*
X158600000Y-106550000D01*
X160850000Y-104300000D01*
X160850000Y-108800000D01*
D11*
X157754761Y-107597619D02*
X155754761Y-107597619D01*
X157754761Y-106645238D02*
X155754761Y-106645238D01*
X157754761Y-105502380D01*
X155754761Y-105502380D01*
X99945238Y-104550000D02*
X99945238Y-104930952D01*
X99850000Y-105121428D01*
X99659523Y-105311904D01*
X99278571Y-105407142D01*
X98611904Y-105407142D01*
X98230952Y-105311904D01*
X98040476Y-105121428D01*
X97945238Y-104930952D01*
X97945238Y-104550000D01*
X98040476Y-104359523D01*
X98230952Y-104169047D01*
X98611904Y-104073809D01*
X99278571Y-104073809D01*
X99659523Y-104169047D01*
X99850000Y-104359523D01*
X99945238Y-104550000D01*
X99945238Y-106264285D02*
X98326190Y-106264285D01*
X98135714Y-106359523D01*
X98040476Y-106454761D01*
X97945238Y-106645238D01*
X97945238Y-107026190D01*
X98040476Y-107216666D01*
X98135714Y-107311904D01*
X98326190Y-107407142D01*
X99945238Y-107407142D01*
X99945238Y-108073809D02*
X99945238Y-109216666D01*
X97945238Y-108645238D02*
X99945238Y-108645238D01*
D10*
G36*
X97350000Y-108800000D02*
G01*
X95100000Y-106550000D01*
X97350000Y-104300000D01*
X97350000Y-108800000D01*
G37*
X97350000Y-108800000D02*
X95100000Y-106550000D01*
X97350000Y-104300000D01*
X97350000Y-108800000D01*
D12*
X97166726Y-63333274D03*
X96000000Y-62850000D03*
X94833274Y-63333274D03*
X94350000Y-64500000D03*
X94833274Y-65666726D03*
X96000000Y-66150000D03*
X97166726Y-65666726D03*
X97650000Y-64500000D03*
D13*
X96000000Y-64500000D03*
X160000000Y-140000000D03*
D12*
X161650000Y-140000000D03*
X161166726Y-141166726D03*
X160000000Y-141650000D03*
X158833274Y-141166726D03*
X158350000Y-140000000D03*
X158833274Y-138833274D03*
X160000000Y-138350000D03*
X161166726Y-138833274D03*
X161166726Y-63333274D03*
X160000000Y-62850000D03*
X158833274Y-63333274D03*
X158350000Y-64500000D03*
X158833274Y-65666726D03*
X160000000Y-66150000D03*
X161166726Y-65666726D03*
X161650000Y-64500000D03*
D13*
X160000000Y-64500000D03*
D12*
X97166726Y-138833274D03*
X96000000Y-138350000D03*
X94833274Y-138833274D03*
X94350000Y-140000000D03*
X94833274Y-141166726D03*
X96000000Y-141650000D03*
X97166726Y-141166726D03*
X97650000Y-140000000D03*
D13*
X96000000Y-140000000D03*
M02*
