G04 #@! TF.GenerationSoftware,KiCad,Pcbnew,5.1.5+dfsg1-2build2*
G04 #@! TF.CreationDate,2021-03-23T21:39:09+09:00*
G04 #@! TF.ProjectId,MTCH6102_breakout,4d544348-3631-4303-925f-627265616b6f,rev?*
G04 #@! TF.SameCoordinates,Original*
G04 #@! TF.FileFunction,Copper,L2,Bot*
G04 #@! TF.FilePolarity,Positive*
%FSLAX46Y46*%
G04 Gerber Fmt 4.6, Leading zero omitted, Abs format (unit mm)*
G04 Created by KiCad (PCBNEW 5.1.5+dfsg1-2build2) date 2021-03-23 21:39:09*
%MOMM*%
%LPD*%
G04 APERTURE LIST*
%ADD10R,0.450000X1.750000*%
%ADD11C,0.100000*%
%ADD12C,0.700000*%
%ADD13C,4.400000*%
%ADD14C,0.600000*%
%ADD15C,0.153000*%
%ADD16C,0.250000*%
%ADD17C,0.200000*%
%ADD18C,0.254000*%
G04 APERTURE END LIST*
D10*
X110775000Y-81400000D03*
X111425000Y-81400000D03*
X112075000Y-81400000D03*
X112725000Y-81400000D03*
X113375000Y-81400000D03*
X114025000Y-81400000D03*
X114675000Y-81400000D03*
X115325000Y-81400000D03*
X115975000Y-81400000D03*
X116625000Y-81400000D03*
X117275000Y-81400000D03*
X117925000Y-81400000D03*
X118575000Y-81400000D03*
X119225000Y-81400000D03*
X119225000Y-88600000D03*
X118575000Y-88600000D03*
X117925000Y-88600000D03*
X117275000Y-88600000D03*
X116625000Y-88600000D03*
X115975000Y-88600000D03*
X115325000Y-88600000D03*
X114675000Y-88600000D03*
X114025000Y-88600000D03*
X113375000Y-88600000D03*
X112725000Y-88600000D03*
X112075000Y-88600000D03*
X111425000Y-88600000D03*
X110775000Y-88600000D03*
G04 #@! TA.AperFunction,Conductor*
D11*
G36*
X133500024Y-133600000D02*
G01*
X136000000Y-131100024D01*
X138499976Y-133600000D01*
X136000000Y-136099976D01*
X133500024Y-133600000D01*
G37*
G04 #@! TD.AperFunction*
D12*
X97166726Y-63333274D03*
X96000000Y-62850000D03*
X94833274Y-63333274D03*
X94350000Y-64500000D03*
X94833274Y-65666726D03*
X96000000Y-66150000D03*
X97166726Y-65666726D03*
X97650000Y-64500000D03*
D13*
X96000000Y-64500000D03*
X160000000Y-140000000D03*
D12*
X161650000Y-140000000D03*
X161166726Y-141166726D03*
X160000000Y-141650000D03*
X158833274Y-141166726D03*
X158350000Y-140000000D03*
X158833274Y-138833274D03*
X160000000Y-138350000D03*
X161166726Y-138833274D03*
X161166726Y-63333274D03*
X160000000Y-62850000D03*
X158833274Y-63333274D03*
X158350000Y-64500000D03*
X158833274Y-65666726D03*
X160000000Y-66150000D03*
X161166726Y-65666726D03*
X161650000Y-64500000D03*
D13*
X160000000Y-64500000D03*
D12*
X97166726Y-138833274D03*
X96000000Y-138350000D03*
X94833274Y-138833274D03*
X94350000Y-140000000D03*
X94833274Y-141166726D03*
X96000000Y-141650000D03*
X97166726Y-141166726D03*
X97650000Y-140000000D03*
D13*
X96000000Y-140000000D03*
G04 #@! TA.AperFunction,Conductor*
D11*
G36*
X107500024Y-112800000D02*
G01*
X110000000Y-110300024D01*
X112499976Y-112800000D01*
X110000000Y-115299976D01*
X107500024Y-112800000D01*
G37*
G04 #@! TD.AperFunction*
G04 #@! TA.AperFunction,Conductor*
G36*
X107500024Y-118000000D02*
G01*
X110000000Y-115500024D01*
X112499976Y-118000000D01*
X110000000Y-120499976D01*
X107500024Y-118000000D01*
G37*
G04 #@! TD.AperFunction*
G04 #@! TA.AperFunction,Conductor*
G36*
X112700024Y-138800000D02*
G01*
X115200000Y-136300024D01*
X117699976Y-138800000D01*
X115200000Y-141299976D01*
X112700024Y-138800000D01*
G37*
G04 #@! TD.AperFunction*
G04 #@! TA.AperFunction,Conductor*
G36*
X143900024Y-133600000D02*
G01*
X146400000Y-131100024D01*
X148899976Y-133600000D01*
X146400000Y-136099976D01*
X143900024Y-133600000D01*
G37*
G04 #@! TD.AperFunction*
G04 #@! TA.AperFunction,Conductor*
G36*
X123100024Y-138800000D02*
G01*
X125600000Y-136300024D01*
X128099976Y-138800000D01*
X125600000Y-141299976D01*
X123100024Y-138800000D01*
G37*
G04 #@! TD.AperFunction*
G04 #@! TA.AperFunction,Conductor*
G36*
X117900024Y-138800000D02*
G01*
X120400000Y-136300024D01*
X122899976Y-138800000D01*
X120400000Y-141299976D01*
X117900024Y-138800000D01*
G37*
G04 #@! TD.AperFunction*
G04 #@! TA.AperFunction,Conductor*
G36*
X117900024Y-112800000D02*
G01*
X120400000Y-110300024D01*
X122899976Y-112800000D01*
X120400000Y-115299976D01*
X117900024Y-112800000D01*
G37*
G04 #@! TD.AperFunction*
G04 #@! TA.AperFunction,Conductor*
G36*
X112700024Y-112800000D02*
G01*
X115200000Y-110300024D01*
X117699976Y-112800000D01*
X115200000Y-115299976D01*
X112700024Y-112800000D01*
G37*
G04 #@! TD.AperFunction*
G04 #@! TA.AperFunction,Conductor*
G36*
X128300024Y-138800000D02*
G01*
X130800000Y-136300024D01*
X133299976Y-138800000D01*
X130800000Y-141299976D01*
X128300024Y-138800000D01*
G37*
G04 #@! TD.AperFunction*
G04 #@! TA.AperFunction,Conductor*
G36*
X149100000Y-138799950D02*
G01*
X151600000Y-136300050D01*
X151600000Y-141299950D01*
X149100000Y-138800050D01*
X149100000Y-138799950D01*
G37*
G04 #@! TD.AperFunction*
G04 #@! TA.AperFunction,Conductor*
G36*
X138700024Y-138800000D02*
G01*
X141200000Y-136300024D01*
X143699976Y-138800000D01*
X141200000Y-141299976D01*
X138700024Y-138800000D01*
G37*
G04 #@! TD.AperFunction*
G04 #@! TA.AperFunction,Conductor*
G36*
X133500024Y-138800000D02*
G01*
X136000000Y-136300024D01*
X138499976Y-138800000D01*
X136000000Y-141299976D01*
X133500024Y-138800000D01*
G37*
G04 #@! TD.AperFunction*
G04 #@! TA.AperFunction,Conductor*
G36*
X133500024Y-118000000D02*
G01*
X136000000Y-115500024D01*
X138499976Y-118000000D01*
X136000000Y-120499976D01*
X133500024Y-118000000D01*
G37*
G04 #@! TD.AperFunction*
G04 #@! TA.AperFunction,Conductor*
G36*
X128300024Y-118000000D02*
G01*
X130800000Y-115500024D01*
X133299976Y-118000000D01*
X130800000Y-120499976D01*
X128300024Y-118000000D01*
G37*
G04 #@! TD.AperFunction*
G04 #@! TA.AperFunction,Conductor*
G36*
X128300024Y-123200000D02*
G01*
X130800000Y-120700024D01*
X133299976Y-123200000D01*
X130800000Y-125699976D01*
X128300024Y-123200000D01*
G37*
G04 #@! TD.AperFunction*
G04 #@! TA.AperFunction,Conductor*
G36*
X123100024Y-123200000D02*
G01*
X125600000Y-120700024D01*
X128099976Y-123200000D01*
X125600000Y-125699976D01*
X123100024Y-123200000D01*
G37*
G04 #@! TD.AperFunction*
G04 #@! TA.AperFunction,Conductor*
G36*
X123100024Y-128400000D02*
G01*
X125600000Y-125900024D01*
X128099976Y-128400000D01*
X125600000Y-130899976D01*
X123100024Y-128400000D01*
G37*
G04 #@! TD.AperFunction*
G04 #@! TA.AperFunction,Conductor*
G36*
X117900024Y-128400000D02*
G01*
X120400000Y-125900024D01*
X122899976Y-128400000D01*
X120400000Y-130899976D01*
X117900024Y-128400000D01*
G37*
G04 #@! TD.AperFunction*
G04 #@! TA.AperFunction,Conductor*
G36*
X133500024Y-112800000D02*
G01*
X136000000Y-110300024D01*
X138499976Y-112800000D01*
X136000000Y-115299976D01*
X133500024Y-112800000D01*
G37*
G04 #@! TD.AperFunction*
G04 #@! TA.AperFunction,Conductor*
G36*
X128300024Y-112800000D02*
G01*
X130800000Y-110300024D01*
X133299976Y-112800000D01*
X130800000Y-115299976D01*
X128300024Y-112800000D01*
G37*
G04 #@! TD.AperFunction*
G04 #@! TA.AperFunction,Conductor*
G36*
X123100024Y-112800000D02*
G01*
X125600000Y-110300024D01*
X128099976Y-112800000D01*
X125600000Y-115299976D01*
X123100024Y-112800000D01*
G37*
G04 #@! TD.AperFunction*
G04 #@! TA.AperFunction,Conductor*
G36*
X138700024Y-123200000D02*
G01*
X141200000Y-120700024D01*
X143699976Y-123200000D01*
X141200000Y-125699976D01*
X138700024Y-123200000D01*
G37*
G04 #@! TD.AperFunction*
G04 #@! TA.AperFunction,Conductor*
G36*
X133500024Y-123200000D02*
G01*
X136000000Y-120700024D01*
X138499976Y-123200000D01*
X136000000Y-125699976D01*
X133500024Y-123200000D01*
G37*
G04 #@! TD.AperFunction*
G04 #@! TA.AperFunction,Conductor*
G36*
X138700024Y-112800000D02*
G01*
X141200000Y-110300024D01*
X143699976Y-112800000D01*
X141200000Y-115299976D01*
X138700024Y-112800000D01*
G37*
G04 #@! TD.AperFunction*
G04 #@! TA.AperFunction,Conductor*
G36*
X143900024Y-138800000D02*
G01*
X146400000Y-136300024D01*
X148899976Y-138800000D01*
X146400000Y-141299976D01*
X143900024Y-138800000D01*
G37*
G04 #@! TD.AperFunction*
G04 #@! TA.AperFunction,Conductor*
G36*
X112700024Y-118000000D02*
G01*
X115200000Y-115500024D01*
X117699976Y-118000000D01*
X115200000Y-120499976D01*
X112700024Y-118000000D01*
G37*
G04 #@! TD.AperFunction*
G04 #@! TA.AperFunction,Conductor*
G36*
X143900024Y-112800000D02*
G01*
X146400000Y-110300024D01*
X148899976Y-112800000D01*
X146400000Y-115299976D01*
X143900024Y-112800000D01*
G37*
G04 #@! TD.AperFunction*
G04 #@! TA.AperFunction,Conductor*
G36*
X128300024Y-133600000D02*
G01*
X130800000Y-131100024D01*
X133299976Y-133600000D01*
X130800000Y-136099976D01*
X128300024Y-133600000D01*
G37*
G04 #@! TD.AperFunction*
G04 #@! TA.AperFunction,Conductor*
G36*
X143900024Y-118000000D02*
G01*
X146400000Y-115500024D01*
X148899976Y-118000000D01*
X146400000Y-120499976D01*
X143900024Y-118000000D01*
G37*
G04 #@! TD.AperFunction*
G04 #@! TA.AperFunction,Conductor*
G36*
X138700024Y-118000000D02*
G01*
X141200000Y-115500024D01*
X143699976Y-118000000D01*
X141200000Y-120499976D01*
X138700024Y-118000000D01*
G37*
G04 #@! TD.AperFunction*
G04 #@! TA.AperFunction,Conductor*
G36*
X149100000Y-128399950D02*
G01*
X151600000Y-125900050D01*
X151600000Y-130899950D01*
X149100000Y-128400050D01*
X149100000Y-128399950D01*
G37*
G04 #@! TD.AperFunction*
G04 #@! TA.AperFunction,Conductor*
G36*
X149100000Y-133599950D02*
G01*
X151600000Y-131100050D01*
X151600000Y-136099950D01*
X149100000Y-133600050D01*
X149100000Y-133599950D01*
G37*
G04 #@! TD.AperFunction*
G04 #@! TA.AperFunction,Conductor*
G36*
X123100024Y-133600000D02*
G01*
X125600000Y-131100024D01*
X128099976Y-133600000D01*
X125600000Y-136099976D01*
X123100024Y-133600000D01*
G37*
G04 #@! TD.AperFunction*
G04 #@! TA.AperFunction,Conductor*
G36*
X117900024Y-133600000D02*
G01*
X120400000Y-131100024D01*
X122899976Y-133600000D01*
X120400000Y-136099976D01*
X117900024Y-133600000D01*
G37*
G04 #@! TD.AperFunction*
G04 #@! TA.AperFunction,Conductor*
G36*
X123100024Y-118000000D02*
G01*
X125600000Y-115500024D01*
X128099976Y-118000000D01*
X125600000Y-120499976D01*
X123100024Y-118000000D01*
G37*
G04 #@! TD.AperFunction*
G04 #@! TA.AperFunction,Conductor*
G36*
X117900024Y-118000000D02*
G01*
X120400000Y-115500024D01*
X122899976Y-118000000D01*
X120400000Y-120499976D01*
X117900024Y-118000000D01*
G37*
G04 #@! TD.AperFunction*
G04 #@! TA.AperFunction,Conductor*
G36*
X133500024Y-128400000D02*
G01*
X136000000Y-125900024D01*
X138499976Y-128400000D01*
X136000000Y-130899976D01*
X133500024Y-128400000D01*
G37*
G04 #@! TD.AperFunction*
G04 #@! TA.AperFunction,Conductor*
G36*
X128300024Y-128400000D02*
G01*
X130800000Y-125900024D01*
X133299976Y-128400000D01*
X130800000Y-130899976D01*
X128300024Y-128400000D01*
G37*
G04 #@! TD.AperFunction*
G04 #@! TA.AperFunction,Conductor*
G36*
X138700024Y-133600000D02*
G01*
X141200000Y-131100024D01*
X143699976Y-133600000D01*
X141200000Y-136099976D01*
X138700024Y-133600000D01*
G37*
G04 #@! TD.AperFunction*
G04 #@! TA.AperFunction,Conductor*
G36*
X149100000Y-117999950D02*
G01*
X151600000Y-115500050D01*
X151600000Y-120499950D01*
X149100000Y-118000050D01*
X149100000Y-117999950D01*
G37*
G04 #@! TD.AperFunction*
G04 #@! TA.AperFunction,Conductor*
G36*
X149100000Y-123199950D02*
G01*
X151600000Y-120700050D01*
X151600000Y-125699950D01*
X149100000Y-123200050D01*
X149100000Y-123199950D01*
G37*
G04 #@! TD.AperFunction*
G04 #@! TA.AperFunction,Conductor*
G36*
X107500024Y-138800000D02*
G01*
X110000000Y-136300024D01*
X112499976Y-138800000D01*
X110000000Y-141299976D01*
X107500024Y-138800000D01*
G37*
G04 #@! TD.AperFunction*
G04 #@! TA.AperFunction,Conductor*
G36*
X117900024Y-123200000D02*
G01*
X120400000Y-120700024D01*
X122899976Y-123200000D01*
X120400000Y-125699976D01*
X117900024Y-123200000D01*
G37*
G04 #@! TD.AperFunction*
G04 #@! TA.AperFunction,Conductor*
G36*
X112700024Y-123200000D02*
G01*
X115200000Y-120700024D01*
X117699976Y-123200000D01*
X115200000Y-125699976D01*
X112700024Y-123200000D01*
G37*
G04 #@! TD.AperFunction*
G04 #@! TA.AperFunction,Conductor*
G36*
X107500024Y-123200000D02*
G01*
X110000000Y-120700024D01*
X112499976Y-123200000D01*
X110000000Y-125699976D01*
X107500024Y-123200000D01*
G37*
G04 #@! TD.AperFunction*
G04 #@! TA.AperFunction,Conductor*
G36*
X107500024Y-128400000D02*
G01*
X110000000Y-125900024D01*
X112499976Y-128400000D01*
X110000000Y-130899976D01*
X107500024Y-128400000D01*
G37*
G04 #@! TD.AperFunction*
G04 #@! TA.AperFunction,Conductor*
G36*
X112700024Y-128400000D02*
G01*
X115200000Y-125900024D01*
X117699976Y-128400000D01*
X115200000Y-130899976D01*
X112700024Y-128400000D01*
G37*
G04 #@! TD.AperFunction*
G04 #@! TA.AperFunction,Conductor*
G36*
X143900024Y-123200000D02*
G01*
X146400000Y-120700024D01*
X148899976Y-123200000D01*
X146400000Y-125699976D01*
X143900024Y-123200000D01*
G37*
G04 #@! TD.AperFunction*
G04 #@! TA.AperFunction,Conductor*
G36*
X107300000Y-128400050D02*
G01*
X104800000Y-130899950D01*
X104800000Y-125900050D01*
X107300000Y-128399950D01*
X107300000Y-128400050D01*
G37*
G04 #@! TD.AperFunction*
G04 #@! TA.AperFunction,Conductor*
G36*
X107300000Y-123200050D02*
G01*
X104800000Y-125699950D01*
X104800000Y-120700050D01*
X107300000Y-123199950D01*
X107300000Y-123200050D01*
G37*
G04 #@! TD.AperFunction*
G04 #@! TA.AperFunction,Conductor*
G36*
X107300000Y-118000050D02*
G01*
X104800000Y-120499950D01*
X104800000Y-115500050D01*
X107300000Y-117999950D01*
X107300000Y-118000050D01*
G37*
G04 #@! TD.AperFunction*
G04 #@! TA.AperFunction,Conductor*
G36*
X107500024Y-133600000D02*
G01*
X110000000Y-131100024D01*
X112499976Y-133600000D01*
X110000000Y-136099976D01*
X107500024Y-133600000D01*
G37*
G04 #@! TD.AperFunction*
G04 #@! TA.AperFunction,Conductor*
G36*
X107300000Y-112800050D02*
G01*
X104800000Y-115299950D01*
X104800000Y-110300050D01*
X107300000Y-112799950D01*
X107300000Y-112800050D01*
G37*
G04 #@! TD.AperFunction*
G04 #@! TA.AperFunction,Conductor*
G36*
X149100000Y-112799950D02*
G01*
X151600000Y-110300050D01*
X151600000Y-115299950D01*
X149100000Y-112800050D01*
X149100000Y-112799950D01*
G37*
G04 #@! TD.AperFunction*
G04 #@! TA.AperFunction,Conductor*
G36*
X107300000Y-138800050D02*
G01*
X104800000Y-141299950D01*
X104800000Y-136300050D01*
X107300000Y-138799950D01*
X107300000Y-138800050D01*
G37*
G04 #@! TD.AperFunction*
G04 #@! TA.AperFunction,Conductor*
G36*
X107300000Y-133600050D02*
G01*
X104800000Y-136099950D01*
X104800000Y-131100050D01*
X107300000Y-133599950D01*
X107300000Y-133600050D01*
G37*
G04 #@! TD.AperFunction*
G04 #@! TA.AperFunction,Conductor*
G36*
X143900024Y-128400000D02*
G01*
X146400000Y-125900024D01*
X148899976Y-128400000D01*
X146400000Y-130899976D01*
X143900024Y-128400000D01*
G37*
G04 #@! TD.AperFunction*
G04 #@! TA.AperFunction,Conductor*
G36*
X138700024Y-128400000D02*
G01*
X141200000Y-125900024D01*
X143699976Y-128400000D01*
X141200000Y-130899976D01*
X138700024Y-128400000D01*
G37*
G04 #@! TD.AperFunction*
G04 #@! TA.AperFunction,Conductor*
G36*
X112700024Y-133600000D02*
G01*
X115200000Y-131100024D01*
X117699976Y-133600000D01*
X115200000Y-136099976D01*
X112700024Y-133600000D01*
G37*
G04 #@! TD.AperFunction*
D14*
X133400000Y-139450000D03*
X133399997Y-138149997D03*
X133400000Y-123850000D03*
X133400000Y-129050000D03*
X133398310Y-112156196D03*
X133400000Y-113450000D03*
X133400000Y-117350000D03*
X133400000Y-118650000D03*
X133400000Y-122550000D03*
X133400000Y-127750000D03*
X133400000Y-132950000D03*
X133400000Y-134250000D03*
X128200000Y-132950000D03*
X128200000Y-134250000D03*
X128199997Y-138149997D03*
X128200000Y-139450000D03*
X128200000Y-112150000D03*
X128200000Y-113450000D03*
X128200000Y-117350000D03*
X128200000Y-118650000D03*
X128200000Y-122550000D03*
X128200000Y-123850000D03*
X128200000Y-127750000D03*
X128200000Y-129050000D03*
X123000000Y-132950000D03*
X123000000Y-139450000D03*
X122999997Y-138149997D03*
X123000000Y-134250000D03*
X123000000Y-112150000D03*
X123000000Y-127750000D03*
X123000000Y-123850000D03*
X123000000Y-122550000D03*
X123000000Y-118650000D03*
X123000000Y-117350000D03*
X123000000Y-113450000D03*
X123000000Y-129050000D03*
X117800000Y-139450000D03*
X117800000Y-129050000D03*
X117800000Y-132950000D03*
X117800000Y-134250000D03*
X117799997Y-138149997D03*
X117800000Y-127750000D03*
X117800000Y-123850000D03*
X117800000Y-113450000D03*
X117800000Y-112150000D03*
X117800000Y-122550000D03*
X117800000Y-118650000D03*
X117800000Y-117350000D03*
X112600000Y-139450000D03*
X112599997Y-138149997D03*
X112600000Y-134250000D03*
X112600000Y-132950000D03*
X112600000Y-127750000D03*
X112600000Y-123850000D03*
X112600000Y-122550000D03*
X112600000Y-118650000D03*
X112600000Y-117350000D03*
X112600000Y-113450000D03*
X112600000Y-112150000D03*
X112600000Y-129050000D03*
X107400000Y-134250000D03*
X107400000Y-139450000D03*
X107400000Y-132950000D03*
X107399997Y-138149997D03*
X107400000Y-127750000D03*
X107400000Y-123850000D03*
X107400000Y-122550000D03*
X107400000Y-118650000D03*
X107400000Y-117350000D03*
X107400000Y-112150000D03*
X107400000Y-129050000D03*
X107400000Y-113450000D03*
X149000000Y-113450000D03*
X149000000Y-112150000D03*
X149000000Y-132950000D03*
X149000000Y-134250000D03*
X148999997Y-138149997D03*
X149000000Y-139450000D03*
X149000000Y-117350000D03*
X149000000Y-118650000D03*
X149000000Y-122550000D03*
X149000000Y-123850000D03*
X149000000Y-127750000D03*
X149000000Y-129050000D03*
X143800000Y-139450000D03*
X143799997Y-138149997D03*
X143800000Y-122550000D03*
X143800000Y-123850000D03*
X143800000Y-112150000D03*
X143800000Y-129050000D03*
X143800000Y-127750000D03*
X143800000Y-134250000D03*
X143800000Y-132950000D03*
X143800000Y-113450000D03*
X143800000Y-117350000D03*
X143800000Y-118650000D03*
X138600000Y-129050000D03*
X138600000Y-132950000D03*
X138600000Y-134250000D03*
X138599997Y-138149997D03*
X138600000Y-139450000D03*
X138600000Y-127750000D03*
X138600000Y-123850000D03*
X138600000Y-122550000D03*
X138600000Y-118650000D03*
X138600000Y-113450000D03*
X138600000Y-112150000D03*
X138600000Y-117350000D03*
X125600000Y-109399500D03*
X130807000Y-109399500D03*
X152397000Y-115432000D03*
X152397000Y-120575500D03*
X152397000Y-125782500D03*
X152350000Y-130989500D03*
X152350000Y-136196500D03*
X103756000Y-142102000D03*
X125600000Y-142102000D03*
X130807000Y-142102000D03*
X136014000Y-142102000D03*
X141157500Y-142102000D03*
X146364500Y-142102000D03*
X152270000Y-142102000D03*
X103750000Y-120600000D03*
X103750000Y-115199994D03*
X103750000Y-130999998D03*
X103750000Y-125725000D03*
X103750000Y-136133000D03*
X109979000Y-109399500D03*
X115186000Y-109399500D03*
X120393000Y-109399500D03*
X103750000Y-109372002D03*
X115249500Y-142102000D03*
X120456500Y-142102000D03*
X110042500Y-142102000D03*
X136014000Y-109399500D03*
X141221000Y-109399500D03*
X146364500Y-109399500D03*
X114850000Y-84800000D03*
X116850000Y-92800000D03*
X110350000Y-92800000D03*
X114850000Y-78550000D03*
X121100000Y-84800000D03*
X152350000Y-109399500D03*
D15*
X107050000Y-112800000D02*
X110000000Y-112800000D01*
X106050000Y-112800000D02*
X107050000Y-112800000D01*
X110000000Y-112800000D02*
X115200000Y-112800000D01*
X117699976Y-112800000D02*
X120400000Y-112800000D01*
X115200000Y-112800000D02*
X117699976Y-112800000D01*
X120400000Y-112800000D02*
X125600000Y-112800000D01*
X127996778Y-112800000D02*
X125600000Y-112800000D01*
X130800000Y-112800000D02*
X127996778Y-112800000D01*
X136000000Y-112800000D02*
X130800000Y-112800000D01*
X141200000Y-112800000D02*
X136000000Y-112800000D01*
X143699976Y-112800000D02*
X146400000Y-112800000D01*
X141200000Y-112800000D02*
X143699976Y-112800000D01*
X146400000Y-112800000D02*
X150350000Y-112800000D01*
X106050000Y-112800000D02*
X104800000Y-112800000D01*
X114126501Y-87448499D02*
X118575000Y-83000000D01*
X118575000Y-83000000D02*
X118575000Y-81400000D01*
X110328801Y-87448499D02*
X114126501Y-87448499D01*
X102117000Y-95660296D02*
X105925008Y-91852288D01*
X105925012Y-91852288D02*
X110328801Y-87448499D01*
X105925008Y-91852288D02*
X105925012Y-91852288D01*
X102117000Y-110783000D02*
X102117000Y-95660296D01*
X102117000Y-110817000D02*
X102117000Y-110783000D01*
X102117000Y-111067000D02*
X102117000Y-110783000D01*
X103850000Y-112800000D02*
X102117000Y-111067000D01*
X106050000Y-112800000D02*
X103850000Y-112800000D01*
X150350000Y-118000000D02*
X146400000Y-118000000D01*
X141200000Y-118000000D02*
X136000000Y-118000000D01*
X130800000Y-118000000D02*
X125600000Y-118000000D01*
X130800000Y-118000000D02*
X136000000Y-118000000D01*
X143596778Y-118000000D02*
X141200000Y-118000000D01*
X146400000Y-118000000D02*
X143596778Y-118000000D01*
X125600000Y-118000000D02*
X120400000Y-118000000D01*
X115200000Y-118000000D02*
X120400000Y-118000000D01*
X110000000Y-118000000D02*
X115200000Y-118000000D01*
X107603222Y-118000000D02*
X110000000Y-118000000D01*
X106050000Y-118000000D02*
X107603222Y-118000000D01*
X106050000Y-118000000D02*
X104800000Y-118000000D01*
X114675000Y-82428000D02*
X114675000Y-81400000D01*
X114675000Y-82603066D02*
X114675000Y-82428000D01*
X101763989Y-95514075D02*
X114675000Y-82603066D01*
X101763989Y-115963989D02*
X101763989Y-95514075D01*
X103800000Y-118000000D02*
X101763989Y-115963989D01*
X106050000Y-118000000D02*
X103800000Y-118000000D01*
X106050000Y-123200000D02*
X110000000Y-123200000D01*
X110000000Y-123200000D02*
X115200000Y-123200000D01*
X115200000Y-123200000D02*
X120400000Y-123200000D01*
X120400000Y-123200000D02*
X125600000Y-123200000D01*
X125600000Y-123200000D02*
X130800000Y-123200000D01*
X130800000Y-123200000D02*
X136000000Y-123200000D01*
X136000000Y-123200000D02*
X141200000Y-123200000D01*
X143699976Y-123200000D02*
X146400000Y-123200000D01*
X141200000Y-123200000D02*
X143699976Y-123200000D01*
X146400000Y-123200000D02*
X150350000Y-123200000D01*
X106050000Y-123200000D02*
X104800000Y-123200000D01*
X113375000Y-82428000D02*
X113375000Y-81400000D01*
X113375000Y-83403834D02*
X113375000Y-82428000D01*
X101410978Y-95367854D02*
X113375000Y-83403834D01*
X101410978Y-120860978D02*
X101410978Y-95367854D01*
X103750000Y-123200000D02*
X101410978Y-120860978D01*
X106050000Y-123200000D02*
X103750000Y-123200000D01*
X107150000Y-128400000D02*
X110000000Y-128400000D01*
X106050000Y-128400000D02*
X107150000Y-128400000D01*
X112803222Y-128400000D02*
X115200000Y-128400000D01*
X110000000Y-128400000D02*
X112803222Y-128400000D01*
X150350000Y-128400000D02*
X146400000Y-128400000D01*
X146400000Y-128400000D02*
X141200000Y-128400000D01*
X138850000Y-128400000D02*
X136000000Y-128400000D01*
X141200000Y-128400000D02*
X138850000Y-128400000D01*
X136000000Y-128400000D02*
X130800000Y-128400000D01*
X128300024Y-128400000D02*
X125600000Y-128400000D01*
X130800000Y-128400000D02*
X128300024Y-128400000D01*
X125600000Y-128400000D02*
X120400000Y-128400000D01*
X120400000Y-128400000D02*
X115200000Y-128400000D01*
X101057967Y-95221633D02*
X112725000Y-83554600D01*
X112725000Y-83554600D02*
X112725000Y-82428000D01*
X112725000Y-82428000D02*
X112725000Y-81400000D01*
X101057967Y-125407967D02*
X101057967Y-95221633D01*
X106050000Y-128400000D02*
X104800000Y-128400000D01*
X101057966Y-125757966D02*
X101057966Y-125300000D01*
X103700000Y-128400000D02*
X101057966Y-125757966D01*
X106050000Y-128400000D02*
X103700000Y-128400000D01*
X112075000Y-83425000D02*
X112075000Y-83425000D01*
X106050000Y-133600000D02*
X110000000Y-133600000D01*
X110000000Y-133600000D02*
X115200000Y-133600000D01*
X115200000Y-133600000D02*
X120400000Y-133600000D01*
X120400000Y-133600000D02*
X125600000Y-133600000D01*
X125600000Y-133600000D02*
X130800000Y-133600000D01*
X130800000Y-133600000D02*
X136000000Y-133600000D01*
X136000000Y-133600000D02*
X141200000Y-133600000D01*
X141200000Y-133600000D02*
X146400000Y-133600000D01*
X146400000Y-133600000D02*
X150350000Y-133600000D01*
X104800000Y-133600000D02*
X106050000Y-133600000D01*
X112075000Y-83705368D02*
X112075000Y-81400000D01*
X100704956Y-95075412D02*
X112075000Y-83705368D01*
X100704956Y-130654956D02*
X100704956Y-95075412D01*
X103650000Y-133600000D02*
X100704956Y-130654956D01*
X106050000Y-133600000D02*
X103650000Y-133600000D01*
X150350000Y-138800000D02*
X146400000Y-138800000D01*
X146400000Y-138800000D02*
X141200000Y-138800000D01*
X141200000Y-138800000D02*
X136000000Y-138800000D01*
X136000000Y-138800000D02*
X130800000Y-138800000D01*
X128300024Y-138800000D02*
X125600000Y-138800000D01*
X130800000Y-138800000D02*
X128300024Y-138800000D01*
X125600000Y-138800000D02*
X120400000Y-138800000D01*
X120400000Y-138800000D02*
X115200000Y-138800000D01*
X112396778Y-138800000D02*
X110000000Y-138800000D01*
X115200000Y-138800000D02*
X112396778Y-138800000D01*
X106050000Y-138800000D02*
X110000000Y-138800000D01*
X111425000Y-82428000D02*
X111425000Y-81400000D01*
X100351945Y-135101945D02*
X100351945Y-94929191D01*
X106050000Y-138800000D02*
X104800000Y-138800000D01*
X100351945Y-94929191D02*
X111425000Y-83856136D01*
X111425000Y-83856136D02*
X111425000Y-82428000D01*
X104800000Y-138800000D02*
X103850000Y-138800000D01*
X103850000Y-138800000D02*
X100350000Y-135300000D01*
X100350000Y-135300000D02*
X100350000Y-134300000D01*
X133399997Y-139449997D02*
X133400000Y-139450000D01*
X133400000Y-112157886D02*
X133398310Y-112156196D01*
X133400000Y-113450000D02*
X133400000Y-117350000D01*
X133400000Y-118650000D02*
X133400000Y-122550000D01*
X115325000Y-88600000D02*
X115325000Y-90924262D01*
X115325000Y-90924262D02*
X115325000Y-90499998D01*
X133400000Y-123850000D02*
X133400000Y-127750000D01*
X133400000Y-129050000D02*
X133400000Y-132950000D01*
X133400000Y-134250000D02*
X133400000Y-137550002D01*
X133399997Y-137550005D02*
X133400000Y-137550002D01*
X133399997Y-138149997D02*
X133399997Y-137550005D01*
X130100000Y-106050000D02*
X133398310Y-109348310D01*
X126347696Y-106050000D02*
X130100000Y-106050000D01*
X115325000Y-95027304D02*
X126347696Y-106050000D01*
X133398310Y-109348310D02*
X133398310Y-112156196D01*
X115325000Y-90924262D02*
X115325000Y-95027304D01*
X128199997Y-139449997D02*
X128200000Y-139450000D01*
X128200000Y-113450000D02*
X128200000Y-117350000D01*
X128200000Y-118650000D02*
X128200000Y-122550000D01*
X128200000Y-127750000D02*
X128200000Y-123850000D01*
X128200000Y-129474264D02*
X128200000Y-132950000D01*
X128199997Y-134250003D02*
X128200000Y-134250000D01*
X128199997Y-138149997D02*
X128199997Y-134250003D01*
X128200000Y-129050000D02*
X128200000Y-129474264D01*
X114675000Y-88600000D02*
X114675000Y-91424264D01*
X114675000Y-91424264D02*
X114675000Y-91000000D01*
X114675000Y-94876536D02*
X114675000Y-91424264D01*
X128200000Y-108401536D02*
X114675000Y-94876536D01*
X128200000Y-112150000D02*
X128200000Y-108401536D01*
X122999997Y-139449997D02*
X123000000Y-139450000D01*
X123000000Y-118650000D02*
X123000000Y-122550000D01*
X123000000Y-113874264D02*
X123000000Y-117350000D01*
X123000000Y-127750000D02*
X123000000Y-123850000D01*
X122999997Y-134250003D02*
X123000000Y-134250000D01*
X122999997Y-138149997D02*
X122999997Y-134250003D01*
X123000000Y-132525736D02*
X123000000Y-129050000D01*
X123000000Y-132950000D02*
X123000000Y-132525736D01*
X123000000Y-113450000D02*
X123000000Y-113874264D01*
X114025000Y-89628000D02*
X114025000Y-88600000D01*
X114025000Y-94725768D02*
X114025000Y-89628000D01*
X123000000Y-103700768D02*
X114025000Y-94725768D01*
X123000000Y-112150000D02*
X123000000Y-103700768D01*
X117799997Y-139449997D02*
X117800000Y-139450000D01*
X117800000Y-129474264D02*
X117800000Y-132950000D01*
X117800000Y-138149994D02*
X117799997Y-138149997D01*
X117800000Y-134250000D02*
X117800000Y-138149994D01*
X117800000Y-129050000D02*
X117800000Y-129474264D01*
X117800000Y-123850000D02*
X117800000Y-127750000D01*
X117800000Y-118650000D02*
X117800000Y-122550000D01*
X117800000Y-113450000D02*
X117800000Y-117350000D01*
X117800000Y-112150000D02*
X117500001Y-111850001D01*
X117500001Y-111850001D02*
X117500001Y-98700001D01*
X117500001Y-98700001D02*
X113375000Y-94575000D01*
X113375000Y-94575000D02*
X113375000Y-91000000D01*
X113375000Y-91000000D02*
X113375000Y-88600000D01*
X112599997Y-139449997D02*
X112600000Y-139450000D01*
X112600000Y-118650000D02*
X112600000Y-122550000D01*
X112600000Y-113450000D02*
X112600000Y-117350000D01*
X112599997Y-134250003D02*
X112600000Y-134250000D01*
X112599997Y-138149997D02*
X112599997Y-134250003D01*
X112600000Y-132525736D02*
X112600000Y-129050000D01*
X112600000Y-127750000D02*
X112600000Y-123850000D01*
X112600000Y-132950000D02*
X112600000Y-132525736D01*
X112725000Y-90500006D02*
X112725000Y-88600000D01*
X112725000Y-94675000D02*
X112725000Y-90500006D01*
X112600000Y-94800000D02*
X112725000Y-94675000D01*
X112600000Y-112150000D02*
X112600000Y-94800000D01*
X107399997Y-139449997D02*
X107400000Y-139450000D01*
X107400000Y-118650000D02*
X107400000Y-122550000D01*
X107400000Y-113450000D02*
X107400000Y-117350000D01*
X107400000Y-123850000D02*
X107400000Y-127750000D01*
X107400000Y-129474264D02*
X107400000Y-132950000D01*
X107400000Y-138149994D02*
X107399997Y-138149997D01*
X107400000Y-134250000D02*
X107400000Y-138149994D01*
X107400000Y-129050000D02*
X107400000Y-129474264D01*
X112075000Y-104575000D02*
X112075000Y-88600000D01*
X107400000Y-109250000D02*
X112075000Y-104575000D01*
X107400000Y-112150000D02*
X107400000Y-109250000D01*
X148999997Y-139449997D02*
X149000000Y-139450000D01*
X149000000Y-113874264D02*
X149000000Y-117350000D01*
X149000000Y-118650000D02*
X149000000Y-122550000D01*
X149000000Y-127750000D02*
X149000000Y-123850000D01*
X149000000Y-138149994D02*
X148999997Y-138149997D01*
X149000000Y-134250000D02*
X149000000Y-138149994D01*
X149000000Y-132525736D02*
X149000000Y-129050000D01*
X149000000Y-132950000D02*
X149000000Y-132525736D01*
X149000000Y-113450000D02*
X149000000Y-113874264D01*
X118575000Y-89628000D02*
X118575000Y-88600000D01*
X126247000Y-97300000D02*
X118575000Y-89628000D01*
X136741500Y-97300000D02*
X126247000Y-97300000D01*
X149000000Y-109558500D02*
X136741500Y-97300000D01*
X149000000Y-112150000D02*
X149000000Y-109558500D01*
X143799997Y-139449997D02*
X143800000Y-139450000D01*
X143800000Y-113450000D02*
X143800000Y-117350000D01*
X143800000Y-118650000D02*
X143800000Y-122550000D01*
X143800000Y-123850000D02*
X143800000Y-127750000D01*
X143800000Y-129050000D02*
X143800000Y-132950000D01*
X143800000Y-138149994D02*
X143799997Y-138149997D01*
X143800000Y-134250000D02*
X143800000Y-138149994D01*
X125950011Y-97653011D02*
X117925000Y-89628000D01*
X136452243Y-97653011D02*
X125950011Y-97653011D01*
X143800000Y-105000768D02*
X136452243Y-97653011D01*
X143800000Y-112150000D02*
X143800000Y-105000768D01*
X117925000Y-89628000D02*
X117925000Y-88600000D01*
X138599997Y-139449997D02*
X138600000Y-139450000D01*
X138600000Y-132525736D02*
X138600000Y-129050000D01*
X138600000Y-138149994D02*
X138599997Y-138149997D01*
X138600000Y-134250000D02*
X138600000Y-138149994D01*
X138600000Y-132950000D02*
X138600000Y-132525736D01*
X138600000Y-113450000D02*
X138600000Y-117350000D01*
X138600000Y-118650000D02*
X138600000Y-122550000D01*
X138600000Y-127750000D02*
X138600000Y-123850000D01*
X117275000Y-89628000D02*
X117275000Y-88600000D01*
X117275000Y-89725000D02*
X117275000Y-89628000D01*
X136306022Y-98006022D02*
X125556022Y-98006022D01*
X138600000Y-100300000D02*
X136306022Y-98006022D01*
X125556022Y-98006022D02*
X117275000Y-89725000D01*
X138600000Y-112150000D02*
X138600000Y-100300000D01*
D16*
X103750000Y-115000000D02*
X103750000Y-115199994D01*
X103750000Y-131000000D02*
X103750000Y-130999998D01*
X114850000Y-79800000D02*
X110350000Y-79800000D01*
X115325000Y-80275000D02*
X114850000Y-79800000D01*
X110350000Y-79800000D02*
X110689998Y-79800000D01*
X115325000Y-81400000D02*
X115325000Y-80275000D01*
X110350000Y-79850897D02*
X110350000Y-79800000D01*
X99831000Y-136169000D02*
X99831000Y-90369897D01*
X99831000Y-90369897D02*
X110350000Y-79850897D01*
X96000000Y-140000000D02*
X99831000Y-136169000D01*
X150950001Y-142199999D02*
X151048000Y-142102000D01*
X150950001Y-142199999D02*
X151159587Y-142199999D01*
X150852002Y-142102000D02*
X150950001Y-142199999D01*
X98102000Y-142102000D02*
X150102002Y-142102000D01*
X96000000Y-140000000D02*
X98102000Y-142102000D01*
X131486411Y-86800000D02*
X117300000Y-86800000D01*
X162525001Y-141212001D02*
X162525001Y-117838590D01*
X150298000Y-142102000D02*
X158364998Y-142102000D01*
X117300000Y-86800000D02*
X116625000Y-87475000D01*
X158364998Y-142102000D02*
X158787999Y-142525001D01*
X158787999Y-142525001D02*
X161212001Y-142525001D01*
X161212001Y-142525001D02*
X162525001Y-141212001D01*
X116625000Y-87475000D02*
X116625000Y-88600000D01*
X162525001Y-117838590D02*
X131486411Y-86800000D01*
X96000000Y-64700000D02*
X96000000Y-64500000D01*
X98100000Y-66800000D02*
X96000000Y-64700000D01*
X106310002Y-66800000D02*
X98100000Y-66800000D01*
X119850000Y-80339998D02*
X106310002Y-66800000D01*
X119850000Y-82550000D02*
X119850000Y-80339998D01*
X115975000Y-86425000D02*
X119850000Y-82550000D01*
X115975000Y-88600000D02*
X115975000Y-86425000D01*
X160000000Y-140000000D02*
X160000000Y-115950000D01*
X119700000Y-88600000D02*
X119225000Y-88600000D01*
X160000000Y-115950000D02*
X132650000Y-88600000D01*
X132650000Y-88600000D02*
X119700000Y-88600000D01*
X119225000Y-80364998D02*
X119225000Y-81400000D01*
X106160002Y-67300000D02*
X119225000Y-80364998D01*
X95062998Y-67300000D02*
X106160002Y-67300000D01*
X94787999Y-61974999D02*
X93474999Y-63287999D01*
X93474999Y-65712001D02*
X95062998Y-67300000D01*
X93474999Y-63287999D02*
X93474999Y-65712001D01*
X157524999Y-61974999D02*
X94787999Y-61974999D01*
X160000000Y-64450000D02*
X157524999Y-61974999D01*
X160000000Y-64500000D02*
X160000000Y-64450000D01*
D17*
G36*
X119873708Y-141200000D02*
G01*
X115726292Y-141200000D01*
X117749792Y-139176500D01*
X117850208Y-139176500D01*
X119873708Y-141200000D01*
G37*
X119873708Y-141200000D02*
X115726292Y-141200000D01*
X117749792Y-139176500D01*
X117850208Y-139176500D01*
X119873708Y-141200000D01*
G36*
X120073708Y-136200000D02*
G01*
X117850208Y-138423500D01*
X117749792Y-138423500D01*
X115526292Y-136200000D01*
X117749792Y-133976500D01*
X117850208Y-133976500D01*
X120073708Y-136200000D01*
G37*
X120073708Y-136200000D02*
X117850208Y-138423500D01*
X117749792Y-138423500D01*
X115526292Y-136200000D01*
X117749792Y-133976500D01*
X117850208Y-133976500D01*
X120073708Y-136200000D01*
G36*
X120073708Y-131000000D02*
G01*
X117850208Y-133223500D01*
X117749792Y-133223500D01*
X115526292Y-131000000D01*
X117749792Y-128776500D01*
X117850208Y-128776500D01*
X120073708Y-131000000D01*
G37*
X120073708Y-131000000D02*
X117850208Y-133223500D01*
X117749792Y-133223500D01*
X115526292Y-131000000D01*
X117749792Y-128776500D01*
X117850208Y-128776500D01*
X120073708Y-131000000D01*
G36*
X120073708Y-125800000D02*
G01*
X117850208Y-128023500D01*
X117749792Y-128023500D01*
X115526292Y-125800000D01*
X117749792Y-123576500D01*
X117850208Y-123576500D01*
X120073708Y-125800000D01*
G37*
X120073708Y-125800000D02*
X117850208Y-128023500D01*
X117749792Y-128023500D01*
X115526292Y-125800000D01*
X117749792Y-123576500D01*
X117850208Y-123576500D01*
X120073708Y-125800000D01*
G36*
X120073708Y-120600000D02*
G01*
X117850208Y-122823500D01*
X117749792Y-122823500D01*
X115526292Y-120600000D01*
X117749792Y-118376500D01*
X117850208Y-118376500D01*
X120073708Y-120600000D01*
G37*
X120073708Y-120600000D02*
X117850208Y-122823500D01*
X117749792Y-122823500D01*
X115526292Y-120600000D01*
X117749792Y-118376500D01*
X117850208Y-118376500D01*
X120073708Y-120600000D01*
G36*
X120073708Y-115400000D02*
G01*
X117850208Y-117623500D01*
X117749792Y-117623500D01*
X115526292Y-115400000D01*
X117749792Y-113176500D01*
X117850208Y-113176500D01*
X120073708Y-115400000D01*
G37*
X120073708Y-115400000D02*
X117850208Y-117623500D01*
X117749792Y-117623500D01*
X115526292Y-115400000D01*
X117749792Y-113176500D01*
X117850208Y-113176500D01*
X120073708Y-115400000D01*
G36*
X117850208Y-112423500D02*
G01*
X117749792Y-112423500D01*
X115726292Y-110400000D01*
X119873708Y-110400000D01*
X117850208Y-112423500D01*
G37*
X117850208Y-112423500D02*
X117749792Y-112423500D01*
X115726292Y-110400000D01*
X119873708Y-110400000D01*
X117850208Y-112423500D01*
G36*
X109473708Y-141200000D02*
G01*
X105326278Y-141200000D01*
X107349859Y-139176500D01*
X107450208Y-139176500D01*
X109473708Y-141200000D01*
G37*
X109473708Y-141200000D02*
X105326278Y-141200000D01*
X107349859Y-139176500D01*
X107450208Y-139176500D01*
X109473708Y-141200000D01*
G36*
X109673708Y-136200000D02*
G01*
X107450208Y-138423500D01*
X107349859Y-138423500D01*
X105126271Y-136200000D01*
X107349859Y-133976500D01*
X107450208Y-133976500D01*
X109673708Y-136200000D01*
G37*
X109673708Y-136200000D02*
X107450208Y-138423500D01*
X107349859Y-138423500D01*
X105126271Y-136200000D01*
X107349859Y-133976500D01*
X107450208Y-133976500D01*
X109673708Y-136200000D01*
G36*
X109673708Y-131000000D02*
G01*
X107450208Y-133223500D01*
X107349859Y-133223500D01*
X105126271Y-131000000D01*
X107349859Y-128776500D01*
X107450208Y-128776500D01*
X109673708Y-131000000D01*
G37*
X109673708Y-131000000D02*
X107450208Y-133223500D01*
X107349859Y-133223500D01*
X105126271Y-131000000D01*
X107349859Y-128776500D01*
X107450208Y-128776500D01*
X109673708Y-131000000D01*
G36*
X109673708Y-125800000D02*
G01*
X107450208Y-128023500D01*
X107349859Y-128023500D01*
X105126271Y-125800000D01*
X107349859Y-123576500D01*
X107450208Y-123576500D01*
X109673708Y-125800000D01*
G37*
X109673708Y-125800000D02*
X107450208Y-128023500D01*
X107349859Y-128023500D01*
X105126271Y-125800000D01*
X107349859Y-123576500D01*
X107450208Y-123576500D01*
X109673708Y-125800000D01*
G36*
X109673708Y-120600000D02*
G01*
X107450208Y-122823500D01*
X107349859Y-122823500D01*
X105126271Y-120600000D01*
X107349859Y-118376500D01*
X107450208Y-118376500D01*
X109673708Y-120600000D01*
G37*
X109673708Y-120600000D02*
X107450208Y-122823500D01*
X107349859Y-122823500D01*
X105126271Y-120600000D01*
X107349859Y-118376500D01*
X107450208Y-118376500D01*
X109673708Y-120600000D01*
G36*
X109673708Y-115400000D02*
G01*
X107450208Y-117623500D01*
X107349859Y-117623500D01*
X105126271Y-115400000D01*
X107349859Y-113176500D01*
X107450208Y-113176500D01*
X109673708Y-115400000D01*
G37*
X109673708Y-115400000D02*
X107450208Y-117623500D01*
X107349859Y-117623500D01*
X105126271Y-115400000D01*
X107349859Y-113176500D01*
X107450208Y-113176500D01*
X109673708Y-115400000D01*
G36*
X107450208Y-112423500D02*
G01*
X107349859Y-112423500D01*
X105326278Y-110400000D01*
X109473708Y-110400000D01*
X107450208Y-112423500D01*
G37*
X107450208Y-112423500D02*
X107349859Y-112423500D01*
X105326278Y-110400000D01*
X109473708Y-110400000D01*
X107450208Y-112423500D01*
G36*
X130273708Y-141200000D02*
G01*
X126126292Y-141200000D01*
X128149792Y-139176500D01*
X128250208Y-139176500D01*
X130273708Y-141200000D01*
G37*
X130273708Y-141200000D02*
X126126292Y-141200000D01*
X128149792Y-139176500D01*
X128250208Y-139176500D01*
X130273708Y-141200000D01*
G36*
X130473708Y-136200000D02*
G01*
X128250208Y-138423500D01*
X128149792Y-138423500D01*
X125926292Y-136200000D01*
X128149792Y-133976500D01*
X128250208Y-133976500D01*
X130473708Y-136200000D01*
G37*
X130473708Y-136200000D02*
X128250208Y-138423500D01*
X128149792Y-138423500D01*
X125926292Y-136200000D01*
X128149792Y-133976500D01*
X128250208Y-133976500D01*
X130473708Y-136200000D01*
G36*
X130473708Y-131000000D02*
G01*
X128250208Y-133223500D01*
X128149792Y-133223500D01*
X125926292Y-131000000D01*
X128149792Y-128776500D01*
X128250208Y-128776500D01*
X130473708Y-131000000D01*
G37*
X130473708Y-131000000D02*
X128250208Y-133223500D01*
X128149792Y-133223500D01*
X125926292Y-131000000D01*
X128149792Y-128776500D01*
X128250208Y-128776500D01*
X130473708Y-131000000D01*
G36*
X130473708Y-125800000D02*
G01*
X128250208Y-128023500D01*
X128149792Y-128023500D01*
X125926292Y-125800000D01*
X128149792Y-123576500D01*
X128250208Y-123576500D01*
X130473708Y-125800000D01*
G37*
X130473708Y-125800000D02*
X128250208Y-128023500D01*
X128149792Y-128023500D01*
X125926292Y-125800000D01*
X128149792Y-123576500D01*
X128250208Y-123576500D01*
X130473708Y-125800000D01*
G36*
X130473708Y-120600000D02*
G01*
X128250208Y-122823500D01*
X128149792Y-122823500D01*
X125926292Y-120600000D01*
X128149792Y-118376500D01*
X128250208Y-118376500D01*
X130473708Y-120600000D01*
G37*
X130473708Y-120600000D02*
X128250208Y-122823500D01*
X128149792Y-122823500D01*
X125926292Y-120600000D01*
X128149792Y-118376500D01*
X128250208Y-118376500D01*
X130473708Y-120600000D01*
G36*
X130473708Y-115400000D02*
G01*
X128250208Y-117623500D01*
X128149792Y-117623500D01*
X125926292Y-115400000D01*
X128149792Y-113176500D01*
X128250208Y-113176500D01*
X130473708Y-115400000D01*
G37*
X130473708Y-115400000D02*
X128250208Y-117623500D01*
X128149792Y-117623500D01*
X125926292Y-115400000D01*
X128149792Y-113176500D01*
X128250208Y-113176500D01*
X130473708Y-115400000D01*
G36*
X128250208Y-112423500D02*
G01*
X128149792Y-112423500D01*
X126126292Y-110400000D01*
X130273708Y-110400000D01*
X128250208Y-112423500D01*
G37*
X128250208Y-112423500D02*
X128149792Y-112423500D01*
X126126292Y-110400000D01*
X130273708Y-110400000D01*
X128250208Y-112423500D01*
G36*
X135473708Y-141200000D02*
G01*
X131326292Y-141200000D01*
X133349792Y-139176500D01*
X133450208Y-139176500D01*
X135473708Y-141200000D01*
G37*
X135473708Y-141200000D02*
X131326292Y-141200000D01*
X133349792Y-139176500D01*
X133450208Y-139176500D01*
X135473708Y-141200000D01*
G36*
X135673708Y-136200000D02*
G01*
X133450208Y-138423500D01*
X133349792Y-138423500D01*
X131126292Y-136200000D01*
X133349792Y-133976500D01*
X133450208Y-133976500D01*
X135673708Y-136200000D01*
G37*
X135673708Y-136200000D02*
X133450208Y-138423500D01*
X133349792Y-138423500D01*
X131126292Y-136200000D01*
X133349792Y-133976500D01*
X133450208Y-133976500D01*
X135673708Y-136200000D01*
G36*
X135673708Y-131000000D02*
G01*
X133450208Y-133223500D01*
X133349792Y-133223500D01*
X131126292Y-131000000D01*
X133349792Y-128776500D01*
X133450208Y-128776500D01*
X135673708Y-131000000D01*
G37*
X135673708Y-131000000D02*
X133450208Y-133223500D01*
X133349792Y-133223500D01*
X131126292Y-131000000D01*
X133349792Y-128776500D01*
X133450208Y-128776500D01*
X135673708Y-131000000D01*
G36*
X135673708Y-125800000D02*
G01*
X133450208Y-128023500D01*
X133349792Y-128023500D01*
X131126292Y-125800000D01*
X133349792Y-123576500D01*
X133450208Y-123576500D01*
X135673708Y-125800000D01*
G37*
X135673708Y-125800000D02*
X133450208Y-128023500D01*
X133349792Y-128023500D01*
X131126292Y-125800000D01*
X133349792Y-123576500D01*
X133450208Y-123576500D01*
X135673708Y-125800000D01*
G36*
X135673708Y-120600000D02*
G01*
X133450208Y-122823500D01*
X133349792Y-122823500D01*
X131126292Y-120600000D01*
X133349792Y-118376500D01*
X133450208Y-118376500D01*
X135673708Y-120600000D01*
G37*
X135673708Y-120600000D02*
X133450208Y-122823500D01*
X133349792Y-122823500D01*
X131126292Y-120600000D01*
X133349792Y-118376500D01*
X133450208Y-118376500D01*
X135673708Y-120600000D01*
G36*
X135673708Y-115400000D02*
G01*
X133450208Y-117623500D01*
X133349792Y-117623500D01*
X131126292Y-115400000D01*
X133349792Y-113176500D01*
X133450208Y-113176500D01*
X135673708Y-115400000D01*
G37*
X135673708Y-115400000D02*
X133450208Y-117623500D01*
X133349792Y-117623500D01*
X131126292Y-115400000D01*
X133349792Y-113176500D01*
X133450208Y-113176500D01*
X135673708Y-115400000D01*
G36*
X133450208Y-112423500D02*
G01*
X133349792Y-112423500D01*
X131326292Y-110400000D01*
X135473708Y-110400000D01*
X133450208Y-112423500D01*
G37*
X133450208Y-112423500D02*
X133349792Y-112423500D01*
X131326292Y-110400000D01*
X135473708Y-110400000D01*
X133450208Y-112423500D01*
G36*
X125073708Y-141200000D02*
G01*
X120926292Y-141200000D01*
X122949792Y-139176500D01*
X123050208Y-139176500D01*
X125073708Y-141200000D01*
G37*
X125073708Y-141200000D02*
X120926292Y-141200000D01*
X122949792Y-139176500D01*
X123050208Y-139176500D01*
X125073708Y-141200000D01*
G36*
X125273708Y-136200000D02*
G01*
X123050208Y-138423500D01*
X122949792Y-138423500D01*
X120726292Y-136200000D01*
X122949792Y-133976500D01*
X123050208Y-133976500D01*
X125273708Y-136200000D01*
G37*
X125273708Y-136200000D02*
X123050208Y-138423500D01*
X122949792Y-138423500D01*
X120726292Y-136200000D01*
X122949792Y-133976500D01*
X123050208Y-133976500D01*
X125273708Y-136200000D01*
G36*
X125273708Y-131000000D02*
G01*
X123050208Y-133223500D01*
X122949792Y-133223500D01*
X120726292Y-131000000D01*
X122949792Y-128776500D01*
X123050208Y-128776500D01*
X125273708Y-131000000D01*
G37*
X125273708Y-131000000D02*
X123050208Y-133223500D01*
X122949792Y-133223500D01*
X120726292Y-131000000D01*
X122949792Y-128776500D01*
X123050208Y-128776500D01*
X125273708Y-131000000D01*
G36*
X125273708Y-125800000D02*
G01*
X123050208Y-128023500D01*
X122949792Y-128023500D01*
X120726292Y-125800000D01*
X122949792Y-123576500D01*
X123050208Y-123576500D01*
X125273708Y-125800000D01*
G37*
X125273708Y-125800000D02*
X123050208Y-128023500D01*
X122949792Y-128023500D01*
X120726292Y-125800000D01*
X122949792Y-123576500D01*
X123050208Y-123576500D01*
X125273708Y-125800000D01*
G36*
X125273708Y-120600000D02*
G01*
X123050208Y-122823500D01*
X122949792Y-122823500D01*
X120726292Y-120600000D01*
X122949792Y-118376500D01*
X123050208Y-118376500D01*
X125273708Y-120600000D01*
G37*
X125273708Y-120600000D02*
X123050208Y-122823500D01*
X122949792Y-122823500D01*
X120726292Y-120600000D01*
X122949792Y-118376500D01*
X123050208Y-118376500D01*
X125273708Y-120600000D01*
G36*
X125273708Y-115400000D02*
G01*
X123050208Y-117623500D01*
X122949792Y-117623500D01*
X120726292Y-115400000D01*
X122949792Y-113176500D01*
X123050208Y-113176500D01*
X125273708Y-115400000D01*
G37*
X125273708Y-115400000D02*
X123050208Y-117623500D01*
X122949792Y-117623500D01*
X120726292Y-115400000D01*
X122949792Y-113176500D01*
X123050208Y-113176500D01*
X125273708Y-115400000D01*
G36*
X123050208Y-112423500D02*
G01*
X122949792Y-112423500D01*
X120926292Y-110400000D01*
X125073708Y-110400000D01*
X123050208Y-112423500D01*
G37*
X123050208Y-112423500D02*
X122949792Y-112423500D01*
X120926292Y-110400000D01*
X125073708Y-110400000D01*
X123050208Y-112423500D01*
G36*
X151073722Y-141200000D02*
G01*
X146926292Y-141200000D01*
X148949792Y-139176500D01*
X149050141Y-139176500D01*
X151073722Y-141200000D01*
G37*
X151073722Y-141200000D02*
X146926292Y-141200000D01*
X148949792Y-139176500D01*
X149050141Y-139176500D01*
X151073722Y-141200000D01*
G36*
X151273729Y-136200000D02*
G01*
X149050141Y-138423500D01*
X148949792Y-138423500D01*
X146726292Y-136200000D01*
X148949792Y-133976500D01*
X149050141Y-133976500D01*
X151273729Y-136200000D01*
G37*
X151273729Y-136200000D02*
X149050141Y-138423500D01*
X148949792Y-138423500D01*
X146726292Y-136200000D01*
X148949792Y-133976500D01*
X149050141Y-133976500D01*
X151273729Y-136200000D01*
G36*
X151273729Y-131000000D02*
G01*
X149050141Y-133223500D01*
X148949792Y-133223500D01*
X146726292Y-131000000D01*
X148949792Y-128776500D01*
X149050141Y-128776500D01*
X151273729Y-131000000D01*
G37*
X151273729Y-131000000D02*
X149050141Y-133223500D01*
X148949792Y-133223500D01*
X146726292Y-131000000D01*
X148949792Y-128776500D01*
X149050141Y-128776500D01*
X151273729Y-131000000D01*
G36*
X151273729Y-125800000D02*
G01*
X149050141Y-128023500D01*
X148949792Y-128023500D01*
X146726292Y-125800000D01*
X148949792Y-123576500D01*
X149050141Y-123576500D01*
X151273729Y-125800000D01*
G37*
X151273729Y-125800000D02*
X149050141Y-128023500D01*
X148949792Y-128023500D01*
X146726292Y-125800000D01*
X148949792Y-123576500D01*
X149050141Y-123576500D01*
X151273729Y-125800000D01*
G36*
X151273729Y-120600000D02*
G01*
X149050141Y-122823500D01*
X148949792Y-122823500D01*
X146726292Y-120600000D01*
X148949792Y-118376500D01*
X149050141Y-118376500D01*
X151273729Y-120600000D01*
G37*
X151273729Y-120600000D02*
X149050141Y-122823500D01*
X148949792Y-122823500D01*
X146726292Y-120600000D01*
X148949792Y-118376500D01*
X149050141Y-118376500D01*
X151273729Y-120600000D01*
G36*
X151273729Y-115400000D02*
G01*
X149050141Y-117623500D01*
X148949792Y-117623500D01*
X146726292Y-115400000D01*
X148949792Y-113176500D01*
X149050141Y-113176500D01*
X151273729Y-115400000D01*
G37*
X151273729Y-115400000D02*
X149050141Y-117623500D01*
X148949792Y-117623500D01*
X146726292Y-115400000D01*
X148949792Y-113176500D01*
X149050141Y-113176500D01*
X151273729Y-115400000D01*
G36*
X149050141Y-112423500D02*
G01*
X148949792Y-112423500D01*
X146926292Y-110400000D01*
X151073722Y-110400000D01*
X149050141Y-112423500D01*
G37*
X149050141Y-112423500D02*
X148949792Y-112423500D01*
X146926292Y-110400000D01*
X151073722Y-110400000D01*
X149050141Y-112423500D01*
G36*
X140673708Y-141200000D02*
G01*
X136526292Y-141200000D01*
X138549792Y-139176500D01*
X138650208Y-139176500D01*
X140673708Y-141200000D01*
G37*
X140673708Y-141200000D02*
X136526292Y-141200000D01*
X138549792Y-139176500D01*
X138650208Y-139176500D01*
X140673708Y-141200000D01*
G36*
X140873708Y-136200000D02*
G01*
X138650208Y-138423500D01*
X138549792Y-138423500D01*
X136326292Y-136200000D01*
X138549792Y-133976500D01*
X138650208Y-133976500D01*
X140873708Y-136200000D01*
G37*
X140873708Y-136200000D02*
X138650208Y-138423500D01*
X138549792Y-138423500D01*
X136326292Y-136200000D01*
X138549792Y-133976500D01*
X138650208Y-133976500D01*
X140873708Y-136200000D01*
G36*
X140873708Y-131000000D02*
G01*
X138650208Y-133223500D01*
X138549792Y-133223500D01*
X136326292Y-131000000D01*
X138549792Y-128776500D01*
X138650208Y-128776500D01*
X140873708Y-131000000D01*
G37*
X140873708Y-131000000D02*
X138650208Y-133223500D01*
X138549792Y-133223500D01*
X136326292Y-131000000D01*
X138549792Y-128776500D01*
X138650208Y-128776500D01*
X140873708Y-131000000D01*
G36*
X140873708Y-125800000D02*
G01*
X138650208Y-128023500D01*
X138549792Y-128023500D01*
X136326292Y-125800000D01*
X138549792Y-123576500D01*
X138650208Y-123576500D01*
X140873708Y-125800000D01*
G37*
X140873708Y-125800000D02*
X138650208Y-128023500D01*
X138549792Y-128023500D01*
X136326292Y-125800000D01*
X138549792Y-123576500D01*
X138650208Y-123576500D01*
X140873708Y-125800000D01*
G36*
X140873708Y-120600000D02*
G01*
X138650208Y-122823500D01*
X138549792Y-122823500D01*
X136326292Y-120600000D01*
X138549792Y-118376500D01*
X138650208Y-118376500D01*
X140873708Y-120600000D01*
G37*
X140873708Y-120600000D02*
X138650208Y-122823500D01*
X138549792Y-122823500D01*
X136326292Y-120600000D01*
X138549792Y-118376500D01*
X138650208Y-118376500D01*
X140873708Y-120600000D01*
G36*
X140873708Y-115400000D02*
G01*
X138650208Y-117623500D01*
X138549792Y-117623500D01*
X136326292Y-115400000D01*
X138549792Y-113176500D01*
X138650208Y-113176500D01*
X140873708Y-115400000D01*
G37*
X140873708Y-115400000D02*
X138650208Y-117623500D01*
X138549792Y-117623500D01*
X136326292Y-115400000D01*
X138549792Y-113176500D01*
X138650208Y-113176500D01*
X140873708Y-115400000D01*
G36*
X138650208Y-112423500D02*
G01*
X138549792Y-112423500D01*
X136526292Y-110400000D01*
X140673708Y-110400000D01*
X138650208Y-112423500D01*
G37*
X138650208Y-112423500D02*
X138549792Y-112423500D01*
X136526292Y-110400000D01*
X140673708Y-110400000D01*
X138650208Y-112423500D01*
G36*
X145873708Y-141200000D02*
G01*
X141726292Y-141200000D01*
X143749792Y-139176500D01*
X143850208Y-139176500D01*
X145873708Y-141200000D01*
G37*
X145873708Y-141200000D02*
X141726292Y-141200000D01*
X143749792Y-139176500D01*
X143850208Y-139176500D01*
X145873708Y-141200000D01*
G36*
X146073708Y-136200000D02*
G01*
X143850208Y-138423500D01*
X143749792Y-138423500D01*
X141526292Y-136200000D01*
X143749792Y-133976500D01*
X143850208Y-133976500D01*
X146073708Y-136200000D01*
G37*
X146073708Y-136200000D02*
X143850208Y-138423500D01*
X143749792Y-138423500D01*
X141526292Y-136200000D01*
X143749792Y-133976500D01*
X143850208Y-133976500D01*
X146073708Y-136200000D01*
G36*
X146073708Y-131000000D02*
G01*
X143850208Y-133223500D01*
X143749792Y-133223500D01*
X141526292Y-131000000D01*
X143749792Y-128776500D01*
X143850208Y-128776500D01*
X146073708Y-131000000D01*
G37*
X146073708Y-131000000D02*
X143850208Y-133223500D01*
X143749792Y-133223500D01*
X141526292Y-131000000D01*
X143749792Y-128776500D01*
X143850208Y-128776500D01*
X146073708Y-131000000D01*
G36*
X146073708Y-125800000D02*
G01*
X143850208Y-128023500D01*
X143749792Y-128023500D01*
X141526292Y-125800000D01*
X143749792Y-123576500D01*
X143850208Y-123576500D01*
X146073708Y-125800000D01*
G37*
X146073708Y-125800000D02*
X143850208Y-128023500D01*
X143749792Y-128023500D01*
X141526292Y-125800000D01*
X143749792Y-123576500D01*
X143850208Y-123576500D01*
X146073708Y-125800000D01*
G36*
X146073708Y-120600000D02*
G01*
X143850208Y-122823500D01*
X143749792Y-122823500D01*
X141526292Y-120600000D01*
X143749792Y-118376500D01*
X143850208Y-118376500D01*
X146073708Y-120600000D01*
G37*
X146073708Y-120600000D02*
X143850208Y-122823500D01*
X143749792Y-122823500D01*
X141526292Y-120600000D01*
X143749792Y-118376500D01*
X143850208Y-118376500D01*
X146073708Y-120600000D01*
G36*
X146073708Y-115400000D02*
G01*
X143850208Y-117623500D01*
X143749792Y-117623500D01*
X141526292Y-115400000D01*
X143749792Y-113176500D01*
X143850208Y-113176500D01*
X146073708Y-115400000D01*
G37*
X146073708Y-115400000D02*
X143850208Y-117623500D01*
X143749792Y-117623500D01*
X141526292Y-115400000D01*
X143749792Y-113176500D01*
X143850208Y-113176500D01*
X146073708Y-115400000D01*
G36*
X143850208Y-112423500D02*
G01*
X143749792Y-112423500D01*
X141726292Y-110400000D01*
X145873708Y-110400000D01*
X143850208Y-112423500D01*
G37*
X143850208Y-112423500D02*
X143749792Y-112423500D01*
X141726292Y-110400000D01*
X145873708Y-110400000D01*
X143850208Y-112423500D01*
G36*
X114673708Y-141200000D02*
G01*
X110526292Y-141200000D01*
X112549792Y-139176500D01*
X112650208Y-139176500D01*
X114673708Y-141200000D01*
G37*
X114673708Y-141200000D02*
X110526292Y-141200000D01*
X112549792Y-139176500D01*
X112650208Y-139176500D01*
X114673708Y-141200000D01*
G36*
X114873708Y-136200000D02*
G01*
X112650208Y-138423500D01*
X112549792Y-138423500D01*
X110326292Y-136200000D01*
X112549792Y-133976500D01*
X112650208Y-133976500D01*
X114873708Y-136200000D01*
G37*
X114873708Y-136200000D02*
X112650208Y-138423500D01*
X112549792Y-138423500D01*
X110326292Y-136200000D01*
X112549792Y-133976500D01*
X112650208Y-133976500D01*
X114873708Y-136200000D01*
G36*
X114873708Y-131000000D02*
G01*
X112650208Y-133223500D01*
X112549792Y-133223500D01*
X110326292Y-131000000D01*
X112549792Y-128776500D01*
X112650208Y-128776500D01*
X114873708Y-131000000D01*
G37*
X114873708Y-131000000D02*
X112650208Y-133223500D01*
X112549792Y-133223500D01*
X110326292Y-131000000D01*
X112549792Y-128776500D01*
X112650208Y-128776500D01*
X114873708Y-131000000D01*
G36*
X114873708Y-125800000D02*
G01*
X112650208Y-128023500D01*
X112549792Y-128023500D01*
X110326292Y-125800000D01*
X112549792Y-123576500D01*
X112650208Y-123576500D01*
X114873708Y-125800000D01*
G37*
X114873708Y-125800000D02*
X112650208Y-128023500D01*
X112549792Y-128023500D01*
X110326292Y-125800000D01*
X112549792Y-123576500D01*
X112650208Y-123576500D01*
X114873708Y-125800000D01*
G36*
X114873708Y-120600000D02*
G01*
X112650208Y-122823500D01*
X112549792Y-122823500D01*
X110326292Y-120600000D01*
X112549792Y-118376500D01*
X112650208Y-118376500D01*
X114873708Y-120600000D01*
G37*
X114873708Y-120600000D02*
X112650208Y-122823500D01*
X112549792Y-122823500D01*
X110326292Y-120600000D01*
X112549792Y-118376500D01*
X112650208Y-118376500D01*
X114873708Y-120600000D01*
G36*
X114873708Y-115400000D02*
G01*
X112650208Y-117623500D01*
X112549792Y-117623500D01*
X110326292Y-115400000D01*
X112549792Y-113176500D01*
X112650208Y-113176500D01*
X114873708Y-115400000D01*
G37*
X114873708Y-115400000D02*
X112650208Y-117623500D01*
X112549792Y-117623500D01*
X110326292Y-115400000D01*
X112549792Y-113176500D01*
X112650208Y-113176500D01*
X114873708Y-115400000D01*
G36*
X112650208Y-112423500D02*
G01*
X112549792Y-112423500D01*
X110526292Y-110400000D01*
X114673708Y-110400000D01*
X112650208Y-112423500D01*
G37*
X112650208Y-112423500D02*
X112549792Y-112423500D01*
X110526292Y-110400000D01*
X114673708Y-110400000D01*
X112650208Y-112423500D01*
D18*
G36*
X162309229Y-60938267D02*
G01*
X162606688Y-61028075D01*
X162881028Y-61173945D01*
X163121813Y-61370325D01*
X163319873Y-61609736D01*
X163467654Y-61883053D01*
X163559535Y-62179872D01*
X163594001Y-62507792D01*
X163594000Y-141480146D01*
X163561733Y-141809230D01*
X163471926Y-142106684D01*
X163326056Y-142381025D01*
X163129675Y-142621813D01*
X162890265Y-142819871D01*
X162616948Y-142967654D01*
X162320128Y-143059535D01*
X161992218Y-143094000D01*
X152477000Y-143094000D01*
X152477000Y-109800000D01*
X152474560Y-109775224D01*
X152467333Y-109751399D01*
X152455597Y-109729443D01*
X152439803Y-109710197D01*
X152420557Y-109694403D01*
X152398601Y-109682667D01*
X152374776Y-109675440D01*
X152350655Y-109673002D01*
X149457500Y-109658089D01*
X149457500Y-109580959D01*
X149459712Y-109558500D01*
X149457500Y-109536040D01*
X149457500Y-109536030D01*
X149450880Y-109468814D01*
X149424719Y-109382575D01*
X149382237Y-109303097D01*
X149345739Y-109258624D01*
X149339390Y-109250887D01*
X149339386Y-109250883D01*
X149325066Y-109233434D01*
X149307617Y-109219114D01*
X137080889Y-96992387D01*
X137066566Y-96974934D01*
X136996903Y-96917763D01*
X136917425Y-96875281D01*
X136831186Y-96849120D01*
X136763970Y-96842500D01*
X136763959Y-96842500D01*
X136741500Y-96840288D01*
X136719041Y-96842500D01*
X126436502Y-96842500D01*
X119451680Y-89857678D01*
X119524689Y-89850487D01*
X119596508Y-89828701D01*
X119662696Y-89793322D01*
X119720711Y-89745711D01*
X119768322Y-89687696D01*
X119803701Y-89621508D01*
X119825487Y-89549689D01*
X119832843Y-89475000D01*
X119832843Y-89106000D01*
X132440409Y-89106000D01*
X159494001Y-116159593D01*
X159494000Y-137469085D01*
X159247150Y-137518187D01*
X158777438Y-137712748D01*
X158354709Y-137995207D01*
X157995207Y-138354709D01*
X157712748Y-138777438D01*
X157518187Y-139247150D01*
X157419000Y-139745794D01*
X157419000Y-140254206D01*
X157518187Y-140752850D01*
X157712748Y-141222562D01*
X157995207Y-141645291D01*
X158354709Y-142004793D01*
X158777438Y-142287252D01*
X159247150Y-142481813D01*
X159745794Y-142581000D01*
X160254206Y-142581000D01*
X160752850Y-142481813D01*
X161222562Y-142287252D01*
X161645291Y-142004793D01*
X162004793Y-141645291D01*
X162287252Y-141222562D01*
X162481813Y-140752850D01*
X162581000Y-140254206D01*
X162581000Y-139745794D01*
X162481813Y-139247150D01*
X162287252Y-138777438D01*
X162004793Y-138354709D01*
X161645291Y-137995207D01*
X161222562Y-137712748D01*
X160752850Y-137518187D01*
X160506000Y-137469085D01*
X160506000Y-115974854D01*
X160508448Y-115950000D01*
X160498678Y-115850807D01*
X160469745Y-115755425D01*
X160444709Y-115708587D01*
X160422759Y-115667521D01*
X160359527Y-115590473D01*
X160340220Y-115574628D01*
X133025376Y-88259785D01*
X133009527Y-88240473D01*
X132932479Y-88177241D01*
X132844575Y-88130255D01*
X132749193Y-88101322D01*
X132674854Y-88094000D01*
X132674846Y-88094000D01*
X132650000Y-88091553D01*
X132625154Y-88094000D01*
X119832843Y-88094000D01*
X119832843Y-87725000D01*
X119825487Y-87650311D01*
X119803701Y-87578492D01*
X119768322Y-87512304D01*
X119720711Y-87454289D01*
X119662696Y-87406678D01*
X119596508Y-87371299D01*
X119524689Y-87349513D01*
X119450000Y-87342157D01*
X119000000Y-87342157D01*
X118925311Y-87349513D01*
X118900000Y-87357191D01*
X118874689Y-87349513D01*
X118800000Y-87342157D01*
X118350000Y-87342157D01*
X118275311Y-87349513D01*
X118250000Y-87357191D01*
X118224689Y-87349513D01*
X118150000Y-87342157D01*
X117700000Y-87342157D01*
X117625311Y-87349513D01*
X117600000Y-87357191D01*
X117574689Y-87349513D01*
X117500000Y-87342157D01*
X117356903Y-87342157D01*
X117307151Y-87279861D01*
X117211524Y-87199228D01*
X117102005Y-87138801D01*
X116982801Y-87100901D01*
X116881750Y-87090000D01*
X116723000Y-87248750D01*
X116723000Y-87528539D01*
X116696299Y-87578492D01*
X116674513Y-87650311D01*
X116667157Y-87725000D01*
X116667157Y-89475000D01*
X116674513Y-89549689D01*
X116696299Y-89621508D01*
X116723000Y-89671461D01*
X116723000Y-89951250D01*
X116881750Y-90110000D01*
X116982801Y-90099099D01*
X116997442Y-90094444D01*
X125216636Y-98313639D01*
X125230956Y-98331088D01*
X125248405Y-98345408D01*
X125248409Y-98345412D01*
X125300619Y-98388260D01*
X125352413Y-98415944D01*
X125380097Y-98430741D01*
X125466336Y-98456902D01*
X125533552Y-98463522D01*
X125533555Y-98463522D01*
X125556022Y-98465735D01*
X125578489Y-98463522D01*
X126303930Y-98463522D01*
X126150727Y-98526981D01*
X125502652Y-98960010D01*
X124951510Y-99511152D01*
X124518481Y-100159227D01*
X124220205Y-100879328D01*
X124068146Y-101643784D01*
X124068146Y-102423216D01*
X124220205Y-103187672D01*
X124282314Y-103337616D01*
X115782500Y-94837802D01*
X115782500Y-89857843D01*
X115893097Y-89857843D01*
X115942849Y-89920139D01*
X116038476Y-90000772D01*
X116147995Y-90061199D01*
X116267199Y-90099099D01*
X116368250Y-90110000D01*
X116527000Y-89951250D01*
X116527000Y-89671461D01*
X116553701Y-89621508D01*
X116575487Y-89549689D01*
X116582843Y-89475000D01*
X116582843Y-87725000D01*
X116575487Y-87650311D01*
X116553701Y-87578492D01*
X116527000Y-87528539D01*
X116527000Y-87248750D01*
X116481000Y-87202750D01*
X116481000Y-86634591D01*
X120190220Y-82925372D01*
X120209527Y-82909527D01*
X120272759Y-82832479D01*
X120319745Y-82744575D01*
X120348678Y-82649193D01*
X120356000Y-82574854D01*
X120356000Y-82574853D01*
X120358448Y-82550000D01*
X120356000Y-82525146D01*
X120356000Y-80364852D01*
X120358448Y-80339998D01*
X120348678Y-80240805D01*
X120319745Y-80145423D01*
X120317999Y-80142157D01*
X120272759Y-80057519D01*
X120209527Y-79980471D01*
X120190220Y-79964626D01*
X119834878Y-79609284D01*
X152579646Y-79609284D01*
X152579646Y-80388716D01*
X152731705Y-81153172D01*
X153029981Y-81873273D01*
X153463010Y-82521348D01*
X154014152Y-83072490D01*
X154662227Y-83505519D01*
X155382328Y-83803795D01*
X156146784Y-83955854D01*
X156926216Y-83955854D01*
X157690672Y-83803795D01*
X158410773Y-83505519D01*
X159058848Y-83072490D01*
X159609990Y-82521348D01*
X160043019Y-81873273D01*
X160341295Y-81153172D01*
X160493354Y-80388716D01*
X160493354Y-79609284D01*
X160341295Y-78844828D01*
X160043019Y-78124727D01*
X159609990Y-77476652D01*
X159058848Y-76925510D01*
X158410773Y-76492481D01*
X157690672Y-76194205D01*
X156926216Y-76042146D01*
X156146784Y-76042146D01*
X155382328Y-76194205D01*
X154662227Y-76492481D01*
X154014152Y-76925510D01*
X153463010Y-77476652D01*
X153029981Y-78124727D01*
X152731705Y-78844828D01*
X152579646Y-79609284D01*
X119834878Y-79609284D01*
X109424093Y-69198499D01*
X124688812Y-69198499D01*
X124688812Y-69801501D01*
X124806452Y-70392916D01*
X125037210Y-70950016D01*
X125372220Y-71451394D01*
X125798606Y-71877780D01*
X126299984Y-72212790D01*
X126857084Y-72443548D01*
X127448499Y-72561188D01*
X128051501Y-72561188D01*
X128642916Y-72443548D01*
X129200016Y-72212790D01*
X129701394Y-71877780D01*
X130127780Y-71451394D01*
X130462790Y-70950016D01*
X130693548Y-70392916D01*
X130811188Y-69801501D01*
X130811188Y-69198499D01*
X130693548Y-68607084D01*
X130462790Y-68049984D01*
X130127780Y-67548606D01*
X129701394Y-67122220D01*
X129200016Y-66787210D01*
X128642916Y-66556452D01*
X128051501Y-66438812D01*
X127448499Y-66438812D01*
X126857084Y-66556452D01*
X126299984Y-66787210D01*
X125798606Y-67122220D01*
X125372220Y-67548606D01*
X125037210Y-68049984D01*
X124806452Y-68607084D01*
X124688812Y-69198499D01*
X109424093Y-69198499D01*
X106685378Y-66459785D01*
X106669529Y-66440473D01*
X106592481Y-66377241D01*
X106504577Y-66330255D01*
X106409195Y-66301322D01*
X106334856Y-66294000D01*
X106334848Y-66294000D01*
X106310002Y-66291553D01*
X106285156Y-66294000D01*
X98309592Y-66294000D01*
X98067314Y-66051722D01*
X98287252Y-65722562D01*
X98481813Y-65252850D01*
X98581000Y-64754206D01*
X98581000Y-64245794D01*
X98481813Y-63747150D01*
X98287252Y-63277438D01*
X98004793Y-62854709D01*
X97645291Y-62495207D01*
X97624027Y-62480999D01*
X157315408Y-62480999D01*
X157872605Y-63038196D01*
X157712748Y-63277438D01*
X157518187Y-63747150D01*
X157419000Y-64245794D01*
X157419000Y-64754206D01*
X157518187Y-65252850D01*
X157712748Y-65722562D01*
X157995207Y-66145291D01*
X158354709Y-66504793D01*
X158777438Y-66787252D01*
X159247150Y-66981813D01*
X159745794Y-67081000D01*
X160254206Y-67081000D01*
X160752850Y-66981813D01*
X161222562Y-66787252D01*
X161645291Y-66504793D01*
X162004793Y-66145291D01*
X162287252Y-65722562D01*
X162481813Y-65252850D01*
X162581000Y-64754206D01*
X162581000Y-64245794D01*
X162481813Y-63747150D01*
X162287252Y-63277438D01*
X162004793Y-62854709D01*
X161645291Y-62495207D01*
X161222562Y-62212748D01*
X160752850Y-62018187D01*
X160254206Y-61919000D01*
X159745794Y-61919000D01*
X159247150Y-62018187D01*
X158777438Y-62212748D01*
X158598142Y-62332550D01*
X157900375Y-61634784D01*
X157884526Y-61615472D01*
X157807478Y-61552240D01*
X157719574Y-61505254D01*
X157624192Y-61476321D01*
X157549853Y-61468999D01*
X157549845Y-61468999D01*
X157524999Y-61466552D01*
X157500153Y-61468999D01*
X94812844Y-61468999D01*
X94787998Y-61466552D01*
X94763152Y-61468999D01*
X94763145Y-61468999D01*
X94698693Y-61475347D01*
X94688805Y-61476321D01*
X94681375Y-61478575D01*
X94593424Y-61505254D01*
X94505520Y-61552240D01*
X94428472Y-61615472D01*
X94412627Y-61634779D01*
X93134784Y-62912623D01*
X93115472Y-62928472D01*
X93052240Y-63005520D01*
X93005254Y-63093425D01*
X92976321Y-63188807D01*
X92968999Y-63263146D01*
X92968999Y-63263153D01*
X92966552Y-63287999D01*
X92968999Y-63312845D01*
X92969000Y-65687145D01*
X92966552Y-65712001D01*
X92976321Y-65811193D01*
X93005254Y-65906575D01*
X93005255Y-65906576D01*
X93052241Y-65994480D01*
X93115473Y-66071528D01*
X93134779Y-66087373D01*
X94687626Y-67640220D01*
X94703471Y-67659527D01*
X94780519Y-67722759D01*
X94868423Y-67769745D01*
X94963805Y-67798678D01*
X95062998Y-67808448D01*
X95087852Y-67806000D01*
X105950411Y-67806000D01*
X118292254Y-80147844D01*
X118275311Y-80149513D01*
X118250000Y-80157191D01*
X118224689Y-80149513D01*
X118150000Y-80142157D01*
X117700000Y-80142157D01*
X117625311Y-80149513D01*
X117600000Y-80157191D01*
X117574689Y-80149513D01*
X117500000Y-80142157D01*
X117050000Y-80142157D01*
X116975311Y-80149513D01*
X116950000Y-80157191D01*
X116924689Y-80149513D01*
X116850000Y-80142157D01*
X116400000Y-80142157D01*
X116325311Y-80149513D01*
X116300000Y-80157191D01*
X116274689Y-80149513D01*
X116200000Y-80142157D01*
X116056903Y-80142157D01*
X116007151Y-80079861D01*
X115911524Y-79999228D01*
X115802005Y-79938801D01*
X115682801Y-79900901D01*
X115581750Y-79890000D01*
X115423000Y-80048750D01*
X115423000Y-80328539D01*
X115396299Y-80378492D01*
X115374513Y-80450311D01*
X115367157Y-80525000D01*
X115367157Y-82275000D01*
X115374513Y-82349689D01*
X115396299Y-82421508D01*
X115423000Y-82471461D01*
X115423000Y-82751250D01*
X115581750Y-82910000D01*
X115682801Y-82899099D01*
X115802005Y-82861199D01*
X115911524Y-82800772D01*
X116007151Y-82720139D01*
X116056903Y-82657843D01*
X116200000Y-82657843D01*
X116274689Y-82650487D01*
X116300000Y-82642809D01*
X116325311Y-82650487D01*
X116400000Y-82657843D01*
X116850000Y-82657843D01*
X116924689Y-82650487D01*
X116950000Y-82642809D01*
X116975311Y-82650487D01*
X117050000Y-82657843D01*
X117500000Y-82657843D01*
X117574689Y-82650487D01*
X117600000Y-82642809D01*
X117625311Y-82650487D01*
X117700000Y-82657843D01*
X118117500Y-82657843D01*
X118117500Y-82810497D01*
X113936999Y-86990999D01*
X110934069Y-86990999D01*
X114982618Y-82942451D01*
X115000066Y-82928132D01*
X115014386Y-82910683D01*
X115014389Y-82910680D01*
X115019282Y-82904718D01*
X115068250Y-82910000D01*
X115227000Y-82751250D01*
X115227000Y-82471461D01*
X115253701Y-82421508D01*
X115275487Y-82349689D01*
X115282843Y-82275000D01*
X115282843Y-80525000D01*
X115275487Y-80450311D01*
X115253701Y-80378492D01*
X115227000Y-80328539D01*
X115227000Y-80048750D01*
X115068250Y-79890000D01*
X114967199Y-79900901D01*
X114847995Y-79938801D01*
X114738476Y-79999228D01*
X114642849Y-80079861D01*
X114593097Y-80142157D01*
X114450000Y-80142157D01*
X114375311Y-80149513D01*
X114350000Y-80157191D01*
X114324689Y-80149513D01*
X114250000Y-80142157D01*
X113800000Y-80142157D01*
X113725311Y-80149513D01*
X113700000Y-80157191D01*
X113674689Y-80149513D01*
X113600000Y-80142157D01*
X113150000Y-80142157D01*
X113075311Y-80149513D01*
X113050000Y-80157191D01*
X113024689Y-80149513D01*
X112950000Y-80142157D01*
X112500000Y-80142157D01*
X112425311Y-80149513D01*
X112400000Y-80157191D01*
X112374689Y-80149513D01*
X112300000Y-80142157D01*
X111850000Y-80142157D01*
X111775311Y-80149513D01*
X111750000Y-80157191D01*
X111724689Y-80149513D01*
X111650000Y-80142157D01*
X111200000Y-80142157D01*
X111125311Y-80149513D01*
X111100000Y-80157191D01*
X111074689Y-80149513D01*
X111000000Y-80142157D01*
X110550000Y-80142157D01*
X110475311Y-80149513D01*
X110403492Y-80171299D01*
X110337304Y-80206678D01*
X110279289Y-80254289D01*
X110231678Y-80312304D01*
X110196299Y-80378492D01*
X110174513Y-80450311D01*
X110167157Y-80525000D01*
X110167157Y-82275000D01*
X110174513Y-82349689D01*
X110196299Y-82421508D01*
X110231678Y-82487696D01*
X110279289Y-82545711D01*
X110337304Y-82593322D01*
X110403492Y-82628701D01*
X110475311Y-82650487D01*
X110550000Y-82657843D01*
X110967501Y-82657843D01*
X110967500Y-83666633D01*
X100044329Y-94589805D01*
X100026880Y-94604125D01*
X100012560Y-94621574D01*
X100012555Y-94621579D01*
X99969708Y-94673789D01*
X99927226Y-94753268D01*
X99919866Y-94777530D01*
X99901066Y-94839505D01*
X99895158Y-94899489D01*
X99892233Y-94929191D01*
X99894446Y-94951660D01*
X99894445Y-134257791D01*
X99892501Y-134277530D01*
X99892500Y-135277540D01*
X99890288Y-135300000D01*
X99892500Y-135322459D01*
X99892500Y-135322469D01*
X99899120Y-135389685D01*
X99925281Y-135475924D01*
X99967763Y-135555402D01*
X100024934Y-135625066D01*
X100042389Y-135639391D01*
X103510609Y-139107611D01*
X103524934Y-139125066D01*
X103542387Y-139139389D01*
X103594596Y-139182237D01*
X103674075Y-139224719D01*
X103723000Y-139239561D01*
X103723000Y-141800000D01*
X103725440Y-141824776D01*
X103732667Y-141848601D01*
X103744403Y-141870557D01*
X103760197Y-141889803D01*
X103779443Y-141905597D01*
X103801399Y-141917333D01*
X103825224Y-141924560D01*
X103850000Y-141927000D01*
X152223000Y-141927000D01*
X152223000Y-143094000D01*
X94019854Y-143094000D01*
X93690770Y-143061733D01*
X93393316Y-142971926D01*
X93118975Y-142826056D01*
X92878187Y-142629675D01*
X92680129Y-142390265D01*
X92532346Y-142116948D01*
X92492980Y-141989775D01*
X94189830Y-141989775D01*
X94429976Y-142377018D01*
X94923877Y-142637641D01*
X95459133Y-142796901D01*
X96015174Y-142848678D01*
X96570632Y-142790981D01*
X97104161Y-142626028D01*
X97570024Y-142377018D01*
X97810170Y-141989775D01*
X96000000Y-140179605D01*
X94189830Y-141989775D01*
X92492980Y-141989775D01*
X92440465Y-141820128D01*
X92406000Y-141492218D01*
X92406000Y-140015174D01*
X93151322Y-140015174D01*
X93209019Y-140570632D01*
X93373972Y-141104161D01*
X93622982Y-141570024D01*
X94010225Y-141810170D01*
X95820395Y-140000000D01*
X96179605Y-140000000D01*
X97989775Y-141810170D01*
X98377018Y-141570024D01*
X98637641Y-141076123D01*
X98796901Y-140540867D01*
X98848678Y-139984826D01*
X98790981Y-139429368D01*
X98626028Y-138895839D01*
X98377018Y-138429976D01*
X97989775Y-138189830D01*
X96179605Y-140000000D01*
X95820395Y-140000000D01*
X94010225Y-138189830D01*
X93622982Y-138429976D01*
X93362359Y-138923877D01*
X93203099Y-139459133D01*
X93151322Y-140015174D01*
X92406000Y-140015174D01*
X92406000Y-138010225D01*
X94189830Y-138010225D01*
X96000000Y-139820395D01*
X97810170Y-138010225D01*
X97570024Y-137622982D01*
X97076123Y-137362359D01*
X96540867Y-137203099D01*
X95984826Y-137151322D01*
X95429368Y-137209019D01*
X94895839Y-137373972D01*
X94429976Y-137622982D01*
X94189830Y-138010225D01*
X92406000Y-138010225D01*
X92406000Y-79609284D01*
X95556646Y-79609284D01*
X95556646Y-80388716D01*
X95708705Y-81153172D01*
X96006981Y-81873273D01*
X96440010Y-82521348D01*
X96991152Y-83072490D01*
X97639227Y-83505519D01*
X98359328Y-83803795D01*
X99123784Y-83955854D01*
X99903216Y-83955854D01*
X100667672Y-83803795D01*
X101387773Y-83505519D01*
X102035848Y-83072490D01*
X102586990Y-82521348D01*
X103020019Y-81873273D01*
X103318295Y-81153172D01*
X103470354Y-80388716D01*
X103470354Y-79609284D01*
X103318295Y-78844828D01*
X103020019Y-78124727D01*
X102586990Y-77476652D01*
X102035848Y-76925510D01*
X101387773Y-76492481D01*
X100667672Y-76194205D01*
X99903216Y-76042146D01*
X99123784Y-76042146D01*
X98359328Y-76194205D01*
X97639227Y-76492481D01*
X96991152Y-76925510D01*
X96440010Y-77476652D01*
X96006981Y-78124727D01*
X95708705Y-78844828D01*
X95556646Y-79609284D01*
X92406000Y-79609284D01*
X92406000Y-62519854D01*
X92438267Y-62190771D01*
X92528075Y-61893312D01*
X92673945Y-61618972D01*
X92870325Y-61378187D01*
X93109736Y-61180127D01*
X93383053Y-61032346D01*
X93679872Y-60940465D01*
X94007782Y-60906000D01*
X161980146Y-60906000D01*
X162309229Y-60938267D01*
G37*
X162309229Y-60938267D02*
X162606688Y-61028075D01*
X162881028Y-61173945D01*
X163121813Y-61370325D01*
X163319873Y-61609736D01*
X163467654Y-61883053D01*
X163559535Y-62179872D01*
X163594001Y-62507792D01*
X163594000Y-141480146D01*
X163561733Y-141809230D01*
X163471926Y-142106684D01*
X163326056Y-142381025D01*
X163129675Y-142621813D01*
X162890265Y-142819871D01*
X162616948Y-142967654D01*
X162320128Y-143059535D01*
X161992218Y-143094000D01*
X152477000Y-143094000D01*
X152477000Y-109800000D01*
X152474560Y-109775224D01*
X152467333Y-109751399D01*
X152455597Y-109729443D01*
X152439803Y-109710197D01*
X152420557Y-109694403D01*
X152398601Y-109682667D01*
X152374776Y-109675440D01*
X152350655Y-109673002D01*
X149457500Y-109658089D01*
X149457500Y-109580959D01*
X149459712Y-109558500D01*
X149457500Y-109536040D01*
X149457500Y-109536030D01*
X149450880Y-109468814D01*
X149424719Y-109382575D01*
X149382237Y-109303097D01*
X149345739Y-109258624D01*
X149339390Y-109250887D01*
X149339386Y-109250883D01*
X149325066Y-109233434D01*
X149307617Y-109219114D01*
X137080889Y-96992387D01*
X137066566Y-96974934D01*
X136996903Y-96917763D01*
X136917425Y-96875281D01*
X136831186Y-96849120D01*
X136763970Y-96842500D01*
X136763959Y-96842500D01*
X136741500Y-96840288D01*
X136719041Y-96842500D01*
X126436502Y-96842500D01*
X119451680Y-89857678D01*
X119524689Y-89850487D01*
X119596508Y-89828701D01*
X119662696Y-89793322D01*
X119720711Y-89745711D01*
X119768322Y-89687696D01*
X119803701Y-89621508D01*
X119825487Y-89549689D01*
X119832843Y-89475000D01*
X119832843Y-89106000D01*
X132440409Y-89106000D01*
X159494001Y-116159593D01*
X159494000Y-137469085D01*
X159247150Y-137518187D01*
X158777438Y-137712748D01*
X158354709Y-137995207D01*
X157995207Y-138354709D01*
X157712748Y-138777438D01*
X157518187Y-139247150D01*
X157419000Y-139745794D01*
X157419000Y-140254206D01*
X157518187Y-140752850D01*
X157712748Y-141222562D01*
X157995207Y-141645291D01*
X158354709Y-142004793D01*
X158777438Y-142287252D01*
X159247150Y-142481813D01*
X159745794Y-142581000D01*
X160254206Y-142581000D01*
X160752850Y-142481813D01*
X161222562Y-142287252D01*
X161645291Y-142004793D01*
X162004793Y-141645291D01*
X162287252Y-141222562D01*
X162481813Y-140752850D01*
X162581000Y-140254206D01*
X162581000Y-139745794D01*
X162481813Y-139247150D01*
X162287252Y-138777438D01*
X162004793Y-138354709D01*
X161645291Y-137995207D01*
X161222562Y-137712748D01*
X160752850Y-137518187D01*
X160506000Y-137469085D01*
X160506000Y-115974854D01*
X160508448Y-115950000D01*
X160498678Y-115850807D01*
X160469745Y-115755425D01*
X160444709Y-115708587D01*
X160422759Y-115667521D01*
X160359527Y-115590473D01*
X160340220Y-115574628D01*
X133025376Y-88259785D01*
X133009527Y-88240473D01*
X132932479Y-88177241D01*
X132844575Y-88130255D01*
X132749193Y-88101322D01*
X132674854Y-88094000D01*
X132674846Y-88094000D01*
X132650000Y-88091553D01*
X132625154Y-88094000D01*
X119832843Y-88094000D01*
X119832843Y-87725000D01*
X119825487Y-87650311D01*
X119803701Y-87578492D01*
X119768322Y-87512304D01*
X119720711Y-87454289D01*
X119662696Y-87406678D01*
X119596508Y-87371299D01*
X119524689Y-87349513D01*
X119450000Y-87342157D01*
X119000000Y-87342157D01*
X118925311Y-87349513D01*
X118900000Y-87357191D01*
X118874689Y-87349513D01*
X118800000Y-87342157D01*
X118350000Y-87342157D01*
X118275311Y-87349513D01*
X118250000Y-87357191D01*
X118224689Y-87349513D01*
X118150000Y-87342157D01*
X117700000Y-87342157D01*
X117625311Y-87349513D01*
X117600000Y-87357191D01*
X117574689Y-87349513D01*
X117500000Y-87342157D01*
X117356903Y-87342157D01*
X117307151Y-87279861D01*
X117211524Y-87199228D01*
X117102005Y-87138801D01*
X116982801Y-87100901D01*
X116881750Y-87090000D01*
X116723000Y-87248750D01*
X116723000Y-87528539D01*
X116696299Y-87578492D01*
X116674513Y-87650311D01*
X116667157Y-87725000D01*
X116667157Y-89475000D01*
X116674513Y-89549689D01*
X116696299Y-89621508D01*
X116723000Y-89671461D01*
X116723000Y-89951250D01*
X116881750Y-90110000D01*
X116982801Y-90099099D01*
X116997442Y-90094444D01*
X125216636Y-98313639D01*
X125230956Y-98331088D01*
X125248405Y-98345408D01*
X125248409Y-98345412D01*
X125300619Y-98388260D01*
X125352413Y-98415944D01*
X125380097Y-98430741D01*
X125466336Y-98456902D01*
X125533552Y-98463522D01*
X125533555Y-98463522D01*
X125556022Y-98465735D01*
X125578489Y-98463522D01*
X126303930Y-98463522D01*
X126150727Y-98526981D01*
X125502652Y-98960010D01*
X124951510Y-99511152D01*
X124518481Y-100159227D01*
X124220205Y-100879328D01*
X124068146Y-101643784D01*
X124068146Y-102423216D01*
X124220205Y-103187672D01*
X124282314Y-103337616D01*
X115782500Y-94837802D01*
X115782500Y-89857843D01*
X115893097Y-89857843D01*
X115942849Y-89920139D01*
X116038476Y-90000772D01*
X116147995Y-90061199D01*
X116267199Y-90099099D01*
X116368250Y-90110000D01*
X116527000Y-89951250D01*
X116527000Y-89671461D01*
X116553701Y-89621508D01*
X116575487Y-89549689D01*
X116582843Y-89475000D01*
X116582843Y-87725000D01*
X116575487Y-87650311D01*
X116553701Y-87578492D01*
X116527000Y-87528539D01*
X116527000Y-87248750D01*
X116481000Y-87202750D01*
X116481000Y-86634591D01*
X120190220Y-82925372D01*
X120209527Y-82909527D01*
X120272759Y-82832479D01*
X120319745Y-82744575D01*
X120348678Y-82649193D01*
X120356000Y-82574854D01*
X120356000Y-82574853D01*
X120358448Y-82550000D01*
X120356000Y-82525146D01*
X120356000Y-80364852D01*
X120358448Y-80339998D01*
X120348678Y-80240805D01*
X120319745Y-80145423D01*
X120317999Y-80142157D01*
X120272759Y-80057519D01*
X120209527Y-79980471D01*
X120190220Y-79964626D01*
X119834878Y-79609284D01*
X152579646Y-79609284D01*
X152579646Y-80388716D01*
X152731705Y-81153172D01*
X153029981Y-81873273D01*
X153463010Y-82521348D01*
X154014152Y-83072490D01*
X154662227Y-83505519D01*
X155382328Y-83803795D01*
X156146784Y-83955854D01*
X156926216Y-83955854D01*
X157690672Y-83803795D01*
X158410773Y-83505519D01*
X159058848Y-83072490D01*
X159609990Y-82521348D01*
X160043019Y-81873273D01*
X160341295Y-81153172D01*
X160493354Y-80388716D01*
X160493354Y-79609284D01*
X160341295Y-78844828D01*
X160043019Y-78124727D01*
X159609990Y-77476652D01*
X159058848Y-76925510D01*
X158410773Y-76492481D01*
X157690672Y-76194205D01*
X156926216Y-76042146D01*
X156146784Y-76042146D01*
X155382328Y-76194205D01*
X154662227Y-76492481D01*
X154014152Y-76925510D01*
X153463010Y-77476652D01*
X153029981Y-78124727D01*
X152731705Y-78844828D01*
X152579646Y-79609284D01*
X119834878Y-79609284D01*
X109424093Y-69198499D01*
X124688812Y-69198499D01*
X124688812Y-69801501D01*
X124806452Y-70392916D01*
X125037210Y-70950016D01*
X125372220Y-71451394D01*
X125798606Y-71877780D01*
X126299984Y-72212790D01*
X126857084Y-72443548D01*
X127448499Y-72561188D01*
X128051501Y-72561188D01*
X128642916Y-72443548D01*
X129200016Y-72212790D01*
X129701394Y-71877780D01*
X130127780Y-71451394D01*
X130462790Y-70950016D01*
X130693548Y-70392916D01*
X130811188Y-69801501D01*
X130811188Y-69198499D01*
X130693548Y-68607084D01*
X130462790Y-68049984D01*
X130127780Y-67548606D01*
X129701394Y-67122220D01*
X129200016Y-66787210D01*
X128642916Y-66556452D01*
X128051501Y-66438812D01*
X127448499Y-66438812D01*
X126857084Y-66556452D01*
X126299984Y-66787210D01*
X125798606Y-67122220D01*
X125372220Y-67548606D01*
X125037210Y-68049984D01*
X124806452Y-68607084D01*
X124688812Y-69198499D01*
X109424093Y-69198499D01*
X106685378Y-66459785D01*
X106669529Y-66440473D01*
X106592481Y-66377241D01*
X106504577Y-66330255D01*
X106409195Y-66301322D01*
X106334856Y-66294000D01*
X106334848Y-66294000D01*
X106310002Y-66291553D01*
X106285156Y-66294000D01*
X98309592Y-66294000D01*
X98067314Y-66051722D01*
X98287252Y-65722562D01*
X98481813Y-65252850D01*
X98581000Y-64754206D01*
X98581000Y-64245794D01*
X98481813Y-63747150D01*
X98287252Y-63277438D01*
X98004793Y-62854709D01*
X97645291Y-62495207D01*
X97624027Y-62480999D01*
X157315408Y-62480999D01*
X157872605Y-63038196D01*
X157712748Y-63277438D01*
X157518187Y-63747150D01*
X157419000Y-64245794D01*
X157419000Y-64754206D01*
X157518187Y-65252850D01*
X157712748Y-65722562D01*
X157995207Y-66145291D01*
X158354709Y-66504793D01*
X158777438Y-66787252D01*
X159247150Y-66981813D01*
X159745794Y-67081000D01*
X160254206Y-67081000D01*
X160752850Y-66981813D01*
X161222562Y-66787252D01*
X161645291Y-66504793D01*
X162004793Y-66145291D01*
X162287252Y-65722562D01*
X162481813Y-65252850D01*
X162581000Y-64754206D01*
X162581000Y-64245794D01*
X162481813Y-63747150D01*
X162287252Y-63277438D01*
X162004793Y-62854709D01*
X161645291Y-62495207D01*
X161222562Y-62212748D01*
X160752850Y-62018187D01*
X160254206Y-61919000D01*
X159745794Y-61919000D01*
X159247150Y-62018187D01*
X158777438Y-62212748D01*
X158598142Y-62332550D01*
X157900375Y-61634784D01*
X157884526Y-61615472D01*
X157807478Y-61552240D01*
X157719574Y-61505254D01*
X157624192Y-61476321D01*
X157549853Y-61468999D01*
X157549845Y-61468999D01*
X157524999Y-61466552D01*
X157500153Y-61468999D01*
X94812844Y-61468999D01*
X94787998Y-61466552D01*
X94763152Y-61468999D01*
X94763145Y-61468999D01*
X94698693Y-61475347D01*
X94688805Y-61476321D01*
X94681375Y-61478575D01*
X94593424Y-61505254D01*
X94505520Y-61552240D01*
X94428472Y-61615472D01*
X94412627Y-61634779D01*
X93134784Y-62912623D01*
X93115472Y-62928472D01*
X93052240Y-63005520D01*
X93005254Y-63093425D01*
X92976321Y-63188807D01*
X92968999Y-63263146D01*
X92968999Y-63263153D01*
X92966552Y-63287999D01*
X92968999Y-63312845D01*
X92969000Y-65687145D01*
X92966552Y-65712001D01*
X92976321Y-65811193D01*
X93005254Y-65906575D01*
X93005255Y-65906576D01*
X93052241Y-65994480D01*
X93115473Y-66071528D01*
X93134779Y-66087373D01*
X94687626Y-67640220D01*
X94703471Y-67659527D01*
X94780519Y-67722759D01*
X94868423Y-67769745D01*
X94963805Y-67798678D01*
X95062998Y-67808448D01*
X95087852Y-67806000D01*
X105950411Y-67806000D01*
X118292254Y-80147844D01*
X118275311Y-80149513D01*
X118250000Y-80157191D01*
X118224689Y-80149513D01*
X118150000Y-80142157D01*
X117700000Y-80142157D01*
X117625311Y-80149513D01*
X117600000Y-80157191D01*
X117574689Y-80149513D01*
X117500000Y-80142157D01*
X117050000Y-80142157D01*
X116975311Y-80149513D01*
X116950000Y-80157191D01*
X116924689Y-80149513D01*
X116850000Y-80142157D01*
X116400000Y-80142157D01*
X116325311Y-80149513D01*
X116300000Y-80157191D01*
X116274689Y-80149513D01*
X116200000Y-80142157D01*
X116056903Y-80142157D01*
X116007151Y-80079861D01*
X115911524Y-79999228D01*
X115802005Y-79938801D01*
X115682801Y-79900901D01*
X115581750Y-79890000D01*
X115423000Y-80048750D01*
X115423000Y-80328539D01*
X115396299Y-80378492D01*
X115374513Y-80450311D01*
X115367157Y-80525000D01*
X115367157Y-82275000D01*
X115374513Y-82349689D01*
X115396299Y-82421508D01*
X115423000Y-82471461D01*
X115423000Y-82751250D01*
X115581750Y-82910000D01*
X115682801Y-82899099D01*
X115802005Y-82861199D01*
X115911524Y-82800772D01*
X116007151Y-82720139D01*
X116056903Y-82657843D01*
X116200000Y-82657843D01*
X116274689Y-82650487D01*
X116300000Y-82642809D01*
X116325311Y-82650487D01*
X116400000Y-82657843D01*
X116850000Y-82657843D01*
X116924689Y-82650487D01*
X116950000Y-82642809D01*
X116975311Y-82650487D01*
X117050000Y-82657843D01*
X117500000Y-82657843D01*
X117574689Y-82650487D01*
X117600000Y-82642809D01*
X117625311Y-82650487D01*
X117700000Y-82657843D01*
X118117500Y-82657843D01*
X118117500Y-82810497D01*
X113936999Y-86990999D01*
X110934069Y-86990999D01*
X114982618Y-82942451D01*
X115000066Y-82928132D01*
X115014386Y-82910683D01*
X115014389Y-82910680D01*
X115019282Y-82904718D01*
X115068250Y-82910000D01*
X115227000Y-82751250D01*
X115227000Y-82471461D01*
X115253701Y-82421508D01*
X115275487Y-82349689D01*
X115282843Y-82275000D01*
X115282843Y-80525000D01*
X115275487Y-80450311D01*
X115253701Y-80378492D01*
X115227000Y-80328539D01*
X115227000Y-80048750D01*
X115068250Y-79890000D01*
X114967199Y-79900901D01*
X114847995Y-79938801D01*
X114738476Y-79999228D01*
X114642849Y-80079861D01*
X114593097Y-80142157D01*
X114450000Y-80142157D01*
X114375311Y-80149513D01*
X114350000Y-80157191D01*
X114324689Y-80149513D01*
X114250000Y-80142157D01*
X113800000Y-80142157D01*
X113725311Y-80149513D01*
X113700000Y-80157191D01*
X113674689Y-80149513D01*
X113600000Y-80142157D01*
X113150000Y-80142157D01*
X113075311Y-80149513D01*
X113050000Y-80157191D01*
X113024689Y-80149513D01*
X112950000Y-80142157D01*
X112500000Y-80142157D01*
X112425311Y-80149513D01*
X112400000Y-80157191D01*
X112374689Y-80149513D01*
X112300000Y-80142157D01*
X111850000Y-80142157D01*
X111775311Y-80149513D01*
X111750000Y-80157191D01*
X111724689Y-80149513D01*
X111650000Y-80142157D01*
X111200000Y-80142157D01*
X111125311Y-80149513D01*
X111100000Y-80157191D01*
X111074689Y-80149513D01*
X111000000Y-80142157D01*
X110550000Y-80142157D01*
X110475311Y-80149513D01*
X110403492Y-80171299D01*
X110337304Y-80206678D01*
X110279289Y-80254289D01*
X110231678Y-80312304D01*
X110196299Y-80378492D01*
X110174513Y-80450311D01*
X110167157Y-80525000D01*
X110167157Y-82275000D01*
X110174513Y-82349689D01*
X110196299Y-82421508D01*
X110231678Y-82487696D01*
X110279289Y-82545711D01*
X110337304Y-82593322D01*
X110403492Y-82628701D01*
X110475311Y-82650487D01*
X110550000Y-82657843D01*
X110967501Y-82657843D01*
X110967500Y-83666633D01*
X100044329Y-94589805D01*
X100026880Y-94604125D01*
X100012560Y-94621574D01*
X100012555Y-94621579D01*
X99969708Y-94673789D01*
X99927226Y-94753268D01*
X99919866Y-94777530D01*
X99901066Y-94839505D01*
X99895158Y-94899489D01*
X99892233Y-94929191D01*
X99894446Y-94951660D01*
X99894445Y-134257791D01*
X99892501Y-134277530D01*
X99892500Y-135277540D01*
X99890288Y-135300000D01*
X99892500Y-135322459D01*
X99892500Y-135322469D01*
X99899120Y-135389685D01*
X99925281Y-135475924D01*
X99967763Y-135555402D01*
X100024934Y-135625066D01*
X100042389Y-135639391D01*
X103510609Y-139107611D01*
X103524934Y-139125066D01*
X103542387Y-139139389D01*
X103594596Y-139182237D01*
X103674075Y-139224719D01*
X103723000Y-139239561D01*
X103723000Y-141800000D01*
X103725440Y-141824776D01*
X103732667Y-141848601D01*
X103744403Y-141870557D01*
X103760197Y-141889803D01*
X103779443Y-141905597D01*
X103801399Y-141917333D01*
X103825224Y-141924560D01*
X103850000Y-141927000D01*
X152223000Y-141927000D01*
X152223000Y-143094000D01*
X94019854Y-143094000D01*
X93690770Y-143061733D01*
X93393316Y-142971926D01*
X93118975Y-142826056D01*
X92878187Y-142629675D01*
X92680129Y-142390265D01*
X92532346Y-142116948D01*
X92492980Y-141989775D01*
X94189830Y-141989775D01*
X94429976Y-142377018D01*
X94923877Y-142637641D01*
X95459133Y-142796901D01*
X96015174Y-142848678D01*
X96570632Y-142790981D01*
X97104161Y-142626028D01*
X97570024Y-142377018D01*
X97810170Y-141989775D01*
X96000000Y-140179605D01*
X94189830Y-141989775D01*
X92492980Y-141989775D01*
X92440465Y-141820128D01*
X92406000Y-141492218D01*
X92406000Y-140015174D01*
X93151322Y-140015174D01*
X93209019Y-140570632D01*
X93373972Y-141104161D01*
X93622982Y-141570024D01*
X94010225Y-141810170D01*
X95820395Y-140000000D01*
X96179605Y-140000000D01*
X97989775Y-141810170D01*
X98377018Y-141570024D01*
X98637641Y-141076123D01*
X98796901Y-140540867D01*
X98848678Y-139984826D01*
X98790981Y-139429368D01*
X98626028Y-138895839D01*
X98377018Y-138429976D01*
X97989775Y-138189830D01*
X96179605Y-140000000D01*
X95820395Y-140000000D01*
X94010225Y-138189830D01*
X93622982Y-138429976D01*
X93362359Y-138923877D01*
X93203099Y-139459133D01*
X93151322Y-140015174D01*
X92406000Y-140015174D01*
X92406000Y-138010225D01*
X94189830Y-138010225D01*
X96000000Y-139820395D01*
X97810170Y-138010225D01*
X97570024Y-137622982D01*
X97076123Y-137362359D01*
X96540867Y-137203099D01*
X95984826Y-137151322D01*
X95429368Y-137209019D01*
X94895839Y-137373972D01*
X94429976Y-137622982D01*
X94189830Y-138010225D01*
X92406000Y-138010225D01*
X92406000Y-79609284D01*
X95556646Y-79609284D01*
X95556646Y-80388716D01*
X95708705Y-81153172D01*
X96006981Y-81873273D01*
X96440010Y-82521348D01*
X96991152Y-83072490D01*
X97639227Y-83505519D01*
X98359328Y-83803795D01*
X99123784Y-83955854D01*
X99903216Y-83955854D01*
X100667672Y-83803795D01*
X101387773Y-83505519D01*
X102035848Y-83072490D01*
X102586990Y-82521348D01*
X103020019Y-81873273D01*
X103318295Y-81153172D01*
X103470354Y-80388716D01*
X103470354Y-79609284D01*
X103318295Y-78844828D01*
X103020019Y-78124727D01*
X102586990Y-77476652D01*
X102035848Y-76925510D01*
X101387773Y-76492481D01*
X100667672Y-76194205D01*
X99903216Y-76042146D01*
X99123784Y-76042146D01*
X98359328Y-76194205D01*
X97639227Y-76492481D01*
X96991152Y-76925510D01*
X96440010Y-77476652D01*
X96006981Y-78124727D01*
X95708705Y-78844828D01*
X95556646Y-79609284D01*
X92406000Y-79609284D01*
X92406000Y-62519854D01*
X92438267Y-62190771D01*
X92528075Y-61893312D01*
X92673945Y-61618972D01*
X92870325Y-61378187D01*
X93109736Y-61180127D01*
X93383053Y-61032346D01*
X93679872Y-60940465D01*
X94007782Y-60906000D01*
X161980146Y-60906000D01*
X162309229Y-60938267D01*
G36*
X103310609Y-133907611D02*
G01*
X103324934Y-133925066D01*
X103394597Y-133982237D01*
X103474075Y-134024719D01*
X103560314Y-134050880D01*
X103627530Y-134057500D01*
X103627540Y-134057500D01*
X103649999Y-134059712D01*
X103672459Y-134057500D01*
X103723000Y-134057500D01*
X103723000Y-138025998D01*
X100809445Y-135112443D01*
X100809445Y-131406447D01*
X103310609Y-133907611D01*
G37*
X103310609Y-133907611D02*
X103324934Y-133925066D01*
X103394597Y-133982237D01*
X103474075Y-134024719D01*
X103560314Y-134050880D01*
X103627530Y-134057500D01*
X103627540Y-134057500D01*
X103649999Y-134059712D01*
X103672459Y-134057500D01*
X103723000Y-134057500D01*
X103723000Y-138025998D01*
X100809445Y-135112443D01*
X100809445Y-131406447D01*
X103310609Y-133907611D01*
G36*
X103360609Y-128707611D02*
G01*
X103374934Y-128725066D01*
X103444597Y-128782237D01*
X103524075Y-128824719D01*
X103610314Y-128850880D01*
X103677530Y-128857500D01*
X103677540Y-128857500D01*
X103699999Y-128859712D01*
X103722458Y-128857500D01*
X103723000Y-128857500D01*
X103723000Y-133025998D01*
X101162456Y-130465454D01*
X101162456Y-126509458D01*
X103360609Y-128707611D01*
G37*
X103360609Y-128707611D02*
X103374934Y-128725066D01*
X103444597Y-128782237D01*
X103524075Y-128824719D01*
X103610314Y-128850880D01*
X103677530Y-128857500D01*
X103677540Y-128857500D01*
X103699999Y-128859712D01*
X103722458Y-128857500D01*
X103723000Y-128857500D01*
X103723000Y-133025998D01*
X101162456Y-130465454D01*
X101162456Y-126509458D01*
X103360609Y-128707611D01*
G36*
X103410614Y-123507617D02*
G01*
X103424934Y-123525066D01*
X103442383Y-123539386D01*
X103442387Y-123539390D01*
X103494597Y-123582238D01*
X103546391Y-123609922D01*
X103574075Y-123624719D01*
X103660314Y-123650880D01*
X103723000Y-123657054D01*
X103723000Y-127775998D01*
X101515466Y-125568464D01*
X101515466Y-125430447D01*
X101515467Y-125430437D01*
X101515467Y-121612469D01*
X103410614Y-123507617D01*
G37*
X103410614Y-123507617D02*
X103424934Y-123525066D01*
X103442383Y-123539386D01*
X103442387Y-123539390D01*
X103494597Y-123582238D01*
X103546391Y-123609922D01*
X103574075Y-123624719D01*
X103660314Y-123650880D01*
X103723000Y-123657054D01*
X103723000Y-127775998D01*
X101515466Y-125568464D01*
X101515466Y-125430447D01*
X101515467Y-125430437D01*
X101515467Y-121612469D01*
X103410614Y-123507617D01*
G36*
X103460609Y-118307611D02*
G01*
X103474934Y-118325066D01*
X103544597Y-118382237D01*
X103624075Y-118424719D01*
X103710314Y-118450880D01*
X103723000Y-118452129D01*
X103723000Y-122525997D01*
X101868478Y-120671476D01*
X101868478Y-116715480D01*
X103460609Y-118307611D01*
G37*
X103460609Y-118307611D02*
X103474934Y-118325066D01*
X103544597Y-118382237D01*
X103624075Y-118424719D01*
X103710314Y-118450880D01*
X103723000Y-118452129D01*
X103723000Y-122525997D01*
X101868478Y-120671476D01*
X101868478Y-116715480D01*
X103460609Y-118307611D01*
G36*
X103510609Y-113107611D02*
G01*
X103524934Y-113125066D01*
X103594597Y-113182237D01*
X103674075Y-113224719D01*
X103723000Y-113239561D01*
X103723000Y-117275998D01*
X102221489Y-115774487D01*
X102221489Y-111818491D01*
X103510609Y-113107611D01*
G37*
X103510609Y-113107611D02*
X103524934Y-113125066D01*
X103594597Y-113182237D01*
X103674075Y-113224719D01*
X103723000Y-113239561D01*
X103723000Y-117275998D01*
X102221489Y-115774487D01*
X102221489Y-111818491D01*
X103510609Y-113107611D01*
G36*
X110167157Y-89475000D02*
G01*
X110174513Y-89549689D01*
X110196299Y-89621508D01*
X110231678Y-89687696D01*
X110279289Y-89745711D01*
X110337304Y-89793322D01*
X110403492Y-89828701D01*
X110475311Y-89850487D01*
X110550000Y-89857843D01*
X111000000Y-89857843D01*
X111074689Y-89850487D01*
X111100000Y-89842809D01*
X111125311Y-89850487D01*
X111200000Y-89857843D01*
X111617501Y-89857843D01*
X111617500Y-104385498D01*
X107092384Y-108910614D01*
X107074935Y-108924934D01*
X107060615Y-108942383D01*
X107060610Y-108942388D01*
X107017763Y-108994598D01*
X106975281Y-109074077D01*
X106949121Y-109160315D01*
X106940288Y-109250000D01*
X106942501Y-109272469D01*
X106942501Y-109438939D01*
X103850655Y-109423002D01*
X103825866Y-109425314D01*
X103802005Y-109432418D01*
X103779988Y-109444041D01*
X103760662Y-109459736D01*
X103744768Y-109478899D01*
X103732919Y-109500795D01*
X103725570Y-109524582D01*
X103723000Y-109550000D01*
X103723000Y-112025998D01*
X102574500Y-110877498D01*
X102574500Y-95849798D01*
X106232606Y-92191693D01*
X106250078Y-92177354D01*
X106264403Y-92159899D01*
X110167157Y-88257145D01*
X110167157Y-89475000D01*
G37*
X110167157Y-89475000D02*
X110174513Y-89549689D01*
X110196299Y-89621508D01*
X110231678Y-89687696D01*
X110279289Y-89745711D01*
X110337304Y-89793322D01*
X110403492Y-89828701D01*
X110475311Y-89850487D01*
X110550000Y-89857843D01*
X111000000Y-89857843D01*
X111074689Y-89850487D01*
X111100000Y-89842809D01*
X111125311Y-89850487D01*
X111200000Y-89857843D01*
X111617501Y-89857843D01*
X111617500Y-104385498D01*
X107092384Y-108910614D01*
X107074935Y-108924934D01*
X107060615Y-108942383D01*
X107060610Y-108942388D01*
X107017763Y-108994598D01*
X106975281Y-109074077D01*
X106949121Y-109160315D01*
X106940288Y-109250000D01*
X106942501Y-109272469D01*
X106942501Y-109438939D01*
X103850655Y-109423002D01*
X103825866Y-109425314D01*
X103802005Y-109432418D01*
X103779988Y-109444041D01*
X103760662Y-109459736D01*
X103744768Y-109478899D01*
X103732919Y-109500795D01*
X103725570Y-109524582D01*
X103723000Y-109550000D01*
X103723000Y-112025998D01*
X102574500Y-110877498D01*
X102574500Y-95849798D01*
X106232606Y-92191693D01*
X106250078Y-92177354D01*
X106264403Y-92159899D01*
X110167157Y-88257145D01*
X110167157Y-89475000D01*
G36*
X148447379Y-109652882D02*
G01*
X144257500Y-109631285D01*
X144257500Y-105463003D01*
X148447379Y-109652882D01*
G37*
X148447379Y-109652882D02*
X144257500Y-109631285D01*
X144257500Y-105463003D01*
X148447379Y-109652882D01*
G36*
X143342501Y-105190272D02*
G01*
X143342500Y-109626568D01*
X139057500Y-109604481D01*
X139057500Y-100905270D01*
X143342501Y-105190272D01*
G37*
X143342501Y-105190272D02*
X143342500Y-109626568D01*
X139057500Y-109604481D01*
X139057500Y-100905270D01*
X143342501Y-105190272D01*
G36*
X138142501Y-100489504D02*
G01*
X138142500Y-109599764D01*
X133855810Y-109577668D01*
X133855810Y-109370769D01*
X133858022Y-109348310D01*
X133855810Y-109325851D01*
X133855810Y-109325840D01*
X133849190Y-109258624D01*
X133823029Y-109172385D01*
X133802395Y-109133781D01*
X133780548Y-109092907D01*
X133737700Y-109040697D01*
X133737696Y-109040693D01*
X133723376Y-109023244D01*
X133705928Y-109008925D01*
X130439389Y-105742387D01*
X130425066Y-105724934D01*
X130355403Y-105667763D01*
X130275925Y-105625281D01*
X130189686Y-105599120D01*
X130122470Y-105592500D01*
X130122459Y-105592500D01*
X130100000Y-105590288D01*
X130077541Y-105592500D01*
X129772573Y-105592500D01*
X129899273Y-105540019D01*
X130547348Y-105106990D01*
X131098490Y-104555848D01*
X131531519Y-103907773D01*
X131829795Y-103187672D01*
X131981854Y-102423216D01*
X131981854Y-101643784D01*
X131829795Y-100879328D01*
X131531519Y-100159227D01*
X131098490Y-99511152D01*
X130547348Y-98960010D01*
X129899273Y-98526981D01*
X129746070Y-98463522D01*
X136116520Y-98463522D01*
X138142501Y-100489504D01*
G37*
X138142501Y-100489504D02*
X138142500Y-109599764D01*
X133855810Y-109577668D01*
X133855810Y-109370769D01*
X133858022Y-109348310D01*
X133855810Y-109325851D01*
X133855810Y-109325840D01*
X133849190Y-109258624D01*
X133823029Y-109172385D01*
X133802395Y-109133781D01*
X133780548Y-109092907D01*
X133737700Y-109040697D01*
X133737696Y-109040693D01*
X133723376Y-109023244D01*
X133705928Y-109008925D01*
X130439389Y-105742387D01*
X130425066Y-105724934D01*
X130355403Y-105667763D01*
X130275925Y-105625281D01*
X130189686Y-105599120D01*
X130122470Y-105592500D01*
X130122459Y-105592500D01*
X130100000Y-105590288D01*
X130077541Y-105592500D01*
X129772573Y-105592500D01*
X129899273Y-105540019D01*
X130547348Y-105106990D01*
X131098490Y-104555848D01*
X131531519Y-103907773D01*
X131829795Y-103187672D01*
X131981854Y-102423216D01*
X131981854Y-101643784D01*
X131829795Y-100879328D01*
X131531519Y-100159227D01*
X131098490Y-99511152D01*
X130547348Y-98960010D01*
X129899273Y-98526981D01*
X129746070Y-98463522D01*
X136116520Y-98463522D01*
X138142501Y-100489504D01*
G36*
X132940810Y-109537813D02*
G01*
X132940810Y-109572951D01*
X128657500Y-109550872D01*
X128657500Y-108423994D01*
X128659712Y-108401535D01*
X128657500Y-108379076D01*
X128657500Y-108379066D01*
X128650880Y-108311850D01*
X128624719Y-108225611D01*
X128582237Y-108146132D01*
X128539389Y-108093923D01*
X128525066Y-108076470D01*
X128507611Y-108062145D01*
X126952966Y-106507500D01*
X129910498Y-106507500D01*
X132940810Y-109537813D01*
G37*
X132940810Y-109537813D02*
X132940810Y-109572951D01*
X128657500Y-109550872D01*
X128657500Y-108423994D01*
X128659712Y-108401535D01*
X128657500Y-108379076D01*
X128657500Y-108379066D01*
X128650880Y-108311850D01*
X128624719Y-108225611D01*
X128582237Y-108146132D01*
X128539389Y-108093923D01*
X128525066Y-108076470D01*
X128507611Y-108062145D01*
X126952966Y-106507500D01*
X129910498Y-106507500D01*
X132940810Y-109537813D01*
G36*
X127742501Y-108591039D02*
G01*
X127742501Y-109546156D01*
X123457500Y-109524068D01*
X123457500Y-104306038D01*
X127742501Y-108591039D01*
G37*
X127742501Y-108591039D02*
X127742501Y-109546156D01*
X123457500Y-109524068D01*
X123457500Y-104306038D01*
X127742501Y-108591039D01*
G36*
X122542501Y-103890272D02*
G01*
X122542500Y-109519352D01*
X117957501Y-109495718D01*
X117957501Y-99305271D01*
X122542501Y-103890272D01*
G37*
X122542501Y-103890272D02*
X122542500Y-109519352D01*
X117957501Y-109495718D01*
X117957501Y-99305271D01*
X122542501Y-103890272D01*
G36*
X117042502Y-98889504D02*
G01*
X117042501Y-109491001D01*
X113057500Y-109470460D01*
X113057500Y-94991008D01*
X113096493Y-94943495D01*
X117042502Y-98889504D01*
G37*
X117042502Y-98889504D02*
X117042501Y-109491001D01*
X113057500Y-109470460D01*
X113057500Y-94991008D01*
X113096493Y-94943495D01*
X117042502Y-98889504D01*
G36*
X112142500Y-109465743D02*
G01*
X107857500Y-109443656D01*
X107857500Y-109439502D01*
X112142500Y-105154502D01*
X112142500Y-109465743D01*
G37*
X112142500Y-109465743D02*
X107857500Y-109443656D01*
X107857500Y-109439502D01*
X112142500Y-105154502D01*
X112142500Y-109465743D01*
M02*
