M48
; DRILL file {KiCad 5.1.5+dfsg1-2build2} date 2021年03月23日 21時33分18秒
; FORMAT={-:-/ absolute / inch / decimal}
; #@! TF.CreationDate,2021-03-23T21:33:18+09:00
; #@! TF.GenerationSoftware,Kicad,Pcbnew,5.1.5+dfsg1-2build2
FMAT,2
INCH
T1C0.0157
T2C0.0866
%
G90
G05
T1
X4.0846Y-4.306
X4.0846Y-4.5354
X4.0846Y-4.748
X4.0846Y-4.9498
X4.0846Y-5.1575
X4.0846Y-5.3596
X4.0849Y-5.5946
X4.2283Y-5.439
X4.2283Y-4.4154
X4.2283Y-4.4665
X4.2283Y-4.6201
X4.2283Y-4.6713
X4.2283Y-4.8248
X4.2283Y-4.876
X4.2283Y-5.0295
X4.2283Y-5.0807
X4.2283Y-5.2343
X4.2283Y-5.2854
X4.2283Y-5.4902
X4.3299Y-4.3071
X4.3324Y-5.5946
X4.3445Y-3.6535
X4.4331Y-5.439
X4.4331Y-4.4154
X4.4331Y-4.4665
X4.4331Y-4.6201
X4.4331Y-4.6713
X4.4331Y-4.8248
X4.4331Y-4.876
X4.4331Y-5.0295
X4.4331Y-5.0807
X4.4331Y-5.2343
X4.4331Y-5.2854
X4.4331Y-5.4902
X4.5217Y-3.0925
X4.5217Y-3.3386
X4.5349Y-4.3071
X4.5374Y-5.5946
X4.6004Y-3.6535
X4.6378Y-5.439
X4.6378Y-4.4154
X4.6378Y-4.4665
X4.6378Y-4.6201
X4.6378Y-4.6713
X4.6378Y-4.8248
X4.6378Y-4.876
X4.6378Y-5.0295
X4.6378Y-5.0807
X4.6378Y-5.2343
X4.6378Y-5.2854
X4.6378Y-5.4902
X4.7399Y-4.3071
X4.7424Y-5.5946
X4.7677Y-3.3386
X4.8425Y-5.439
X4.8425Y-4.4154
X4.8425Y-4.4665
X4.8425Y-4.6201
X4.8425Y-4.6713
X4.8425Y-4.8248
X4.8425Y-4.876
X4.8425Y-5.0295
X4.8425Y-5.0807
X4.8425Y-5.2343
X4.8425Y-5.2854
X4.8425Y-5.4902
X4.9449Y-4.3071
X4.9449Y-5.5946
X5.0472Y-5.439
X5.0472Y-4.4154
X5.0472Y-4.4665
X5.0472Y-4.6201
X5.0472Y-4.6713
X5.0472Y-4.8248
X5.0472Y-4.876
X5.0472Y-5.0295
X5.0472Y-5.0807
X5.0472Y-5.2343
X5.0472Y-5.2854
X5.0472Y-5.4902
X5.1499Y-4.3071
X5.1499Y-5.5946
X5.2519Y-4.4156
X5.252Y-5.439
X5.252Y-4.4665
X5.252Y-4.6201
X5.252Y-4.6713
X5.252Y-4.8248
X5.252Y-4.876
X5.252Y-5.0295
X5.252Y-5.0807
X5.252Y-5.2343
X5.252Y-5.2854
X5.252Y-5.4902
X5.3549Y-4.3071
X5.3549Y-5.5946
X5.4567Y-5.439
X5.4567Y-4.4154
X5.4567Y-4.4665
X5.4567Y-4.6201
X5.4567Y-4.6713
X5.4567Y-4.8248
X5.4567Y-4.876
X5.4567Y-5.0295
X5.4567Y-5.0807
X5.4567Y-5.2343
X5.4567Y-5.2854
X5.4567Y-5.4902
X5.5574Y-5.5946
X5.5599Y-4.3071
X5.6614Y-5.439
X5.6614Y-4.4154
X5.6614Y-4.4665
X5.6614Y-4.6201
X5.6614Y-4.6713
X5.6614Y-4.8248
X5.6614Y-4.876
X5.6614Y-5.0295
X5.6614Y-5.0807
X5.6614Y-5.2343
X5.6614Y-5.2854
X5.6614Y-5.4902
X5.7624Y-4.3071
X5.7624Y-5.5946
X5.8661Y-5.439
X5.8661Y-4.4154
X5.8661Y-4.4665
X5.8661Y-4.6201
X5.8661Y-4.6713
X5.8661Y-4.8248
X5.8661Y-4.876
X5.8661Y-5.0295
X5.8661Y-5.0807
X5.8661Y-5.2343
X5.8661Y-5.2854
X5.8661Y-5.4902
X5.9949Y-5.5946
X5.998Y-4.3071
X5.998Y-5.1571
X5.998Y-5.3621
X5.9999Y-4.5446
X5.9999Y-4.7471
X5.9999Y-4.9521
X6.2343Y-5.5118
X6.2533Y-5.4659
X6.2533Y-5.5577
X6.2992Y-5.4469
X6.2992Y-5.5768
X6.3451Y-5.4659
X6.3451Y-5.5577
X6.3642Y-5.5118
X3.7146Y-5.5118
X3.7336Y-5.4659
X3.7336Y-5.5577
X3.7795Y-5.4469
X3.7795Y-5.5768
X3.8255Y-5.4659
X3.8255Y-5.5577
X3.8445Y-5.5118
X3.7146Y-2.5394
X3.7336Y-2.4934
X3.7336Y-2.5853
X3.7795Y-2.4744
X3.7795Y-2.6043
X3.8255Y-2.4934
X3.8255Y-2.5853
X3.8445Y-2.5394
X6.2343Y-2.5394
X6.2533Y-2.4934
X6.2533Y-2.5853
X6.2992Y-2.4744
X6.2992Y-2.6043
X6.3451Y-2.4934
X6.3451Y-2.5853
X6.3642Y-2.5394
T2
X6.2992Y-2.5394
X6.2992Y-5.5118
X3.7795Y-5.5118
X3.7795Y-2.5394
T0
M30
