G04 #@! TF.GenerationSoftware,KiCad,Pcbnew,5.1.5+dfsg1-2build2*
G04 #@! TF.CreationDate,2021-03-23T21:39:09+09:00*
G04 #@! TF.ProjectId,MTCH6102_breakout,4d544348-3631-4303-925f-627265616b6f,rev?*
G04 #@! TF.SameCoordinates,Original*
G04 #@! TF.FileFunction,Soldermask,Bot*
G04 #@! TF.FilePolarity,Negative*
%FSLAX46Y46*%
G04 Gerber Fmt 4.6, Leading zero omitted, Abs format (unit mm)*
G04 Created by KiCad (PCBNEW 5.1.5+dfsg1-2build2) date 2021-03-23 21:39:09*
%MOMM*%
%LPD*%
G04 APERTURE LIST*
%ADD10R,0.850000X2.150000*%
%ADD11C,1.100000*%
%ADD12C,4.800000*%
G04 APERTURE END LIST*
D10*
X110775000Y-81400000D03*
X111425000Y-81400000D03*
X112075000Y-81400000D03*
X112725000Y-81400000D03*
X113375000Y-81400000D03*
X114025000Y-81400000D03*
X114675000Y-81400000D03*
X115325000Y-81400000D03*
X115975000Y-81400000D03*
X116625000Y-81400000D03*
X117275000Y-81400000D03*
X117925000Y-81400000D03*
X118575000Y-81400000D03*
X119225000Y-81400000D03*
X119225000Y-88600000D03*
X118575000Y-88600000D03*
X117925000Y-88600000D03*
X117275000Y-88600000D03*
X116625000Y-88600000D03*
X115975000Y-88600000D03*
X115325000Y-88600000D03*
X114675000Y-88600000D03*
X114025000Y-88600000D03*
X113375000Y-88600000D03*
X112725000Y-88600000D03*
X112075000Y-88600000D03*
X111425000Y-88600000D03*
X110775000Y-88600000D03*
D11*
X97166726Y-63333274D03*
X96000000Y-62850000D03*
X94833274Y-63333274D03*
X94350000Y-64500000D03*
X94833274Y-65666726D03*
X96000000Y-66150000D03*
X97166726Y-65666726D03*
X97650000Y-64500000D03*
D12*
X96000000Y-64500000D03*
X160000000Y-140000000D03*
D11*
X161650000Y-140000000D03*
X161166726Y-141166726D03*
X160000000Y-141650000D03*
X158833274Y-141166726D03*
X158350000Y-140000000D03*
X158833274Y-138833274D03*
X160000000Y-138350000D03*
X161166726Y-138833274D03*
X161166726Y-63333274D03*
X160000000Y-62850000D03*
X158833274Y-63333274D03*
X158350000Y-64500000D03*
X158833274Y-65666726D03*
X160000000Y-66150000D03*
X161166726Y-65666726D03*
X161650000Y-64500000D03*
D12*
X160000000Y-64500000D03*
D11*
X97166726Y-138833274D03*
X96000000Y-138350000D03*
X94833274Y-138833274D03*
X94350000Y-140000000D03*
X94833274Y-141166726D03*
X96000000Y-141650000D03*
X97166726Y-141166726D03*
X97650000Y-140000000D03*
D12*
X96000000Y-140000000D03*
M02*
