G04 #@! TF.GenerationSoftware,KiCad,Pcbnew,5.1.5+dfsg1-2build2*
G04 #@! TF.CreationDate,2021-03-25T10:03:56+09:00*
G04 #@! TF.ProjectId,pad,7061642e-6b69-4636-9164-5f7063625858,rev?*
G04 #@! TF.SameCoordinates,Original*
G04 #@! TF.FileFunction,Legend,Top*
G04 #@! TF.FilePolarity,Positive*
%FSLAX46Y46*%
G04 Gerber Fmt 4.6, Leading zero omitted, Abs format (unit mm)*
G04 Created by KiCad (PCBNEW 5.1.5+dfsg1-2build2) date 2021-03-25 10:03:56*
%MOMM*%
%LPD*%
G04 APERTURE LIST*
%ADD10C,0.120000*%
%ADD11C,0.150000*%
%ADD12C,0.125000*%
G04 APERTURE END LIST*
D10*
X82750000Y-103500000D02*
X82750000Y-137500000D01*
X137750000Y-103500000D02*
X82750000Y-103500000D01*
X137750000Y-137500000D02*
X137750000Y-103500000D01*
X82750000Y-137500000D02*
X137750000Y-137500000D01*
D11*
X74500000Y-103500000D02*
X74500000Y-97500000D01*
X74500000Y-97500000D02*
X86500000Y-97500000D01*
X86500000Y-97500000D02*
X86500000Y-103500000D01*
X86500000Y-103500000D02*
X74500000Y-103500000D01*
X146431000Y-97400000D02*
X146431000Y-103400000D01*
X146431000Y-103400000D02*
X134431000Y-103400000D01*
X134431000Y-103400000D02*
X134431000Y-97400000D01*
X134431000Y-97400000D02*
X146431000Y-97400000D01*
X107800000Y-128750000D02*
X107800000Y-130250000D01*
X113200000Y-128750000D02*
X107800000Y-128750000D01*
X113200000Y-130250000D02*
X113200000Y-128750000D01*
X107800000Y-130250000D02*
X113200000Y-130250000D01*
X111000000Y-130000000D02*
X111000000Y-129000000D01*
X110000000Y-129000000D02*
X110900000Y-129500000D01*
X110000000Y-130000000D02*
X110000000Y-129000000D01*
X110900000Y-129500000D02*
X110000000Y-130000000D01*
X100430000Y-84730000D02*
X87730000Y-84730000D01*
X100430000Y-96160000D02*
X100430000Y-84730000D01*
X87730000Y-96160000D02*
X100430000Y-96160000D01*
X87730000Y-84730000D02*
X87730000Y-96160000D01*
X99000000Y-63500000D02*
X99500000Y-65000000D01*
X104500000Y-62000000D02*
X105000000Y-63500000D01*
X100500000Y-62000000D02*
X99500000Y-65000000D01*
X100500000Y-62000000D02*
X101500000Y-65000000D01*
X102500000Y-62000000D02*
X103500000Y-65000000D01*
X102500000Y-62000000D02*
X101500000Y-65000000D01*
X99206000Y-63500000D02*
X98698000Y-63500000D01*
X105302000Y-63500000D02*
X104794000Y-63500000D01*
X104500000Y-62000000D02*
X103500000Y-65000000D01*
X107500000Y-111000000D02*
X108000000Y-112500000D01*
X113000000Y-109500000D02*
X113500000Y-111000000D01*
X109000000Y-109500000D02*
X108000000Y-112500000D01*
X109000000Y-109500000D02*
X110000000Y-112500000D01*
X111000000Y-109500000D02*
X112000000Y-112500000D01*
X111000000Y-109500000D02*
X110000000Y-112500000D01*
X107706000Y-111000000D02*
X107198000Y-111000000D01*
X113802000Y-111000000D02*
X113294000Y-111000000D01*
X113000000Y-109500000D02*
X112000000Y-112500000D01*
D10*
X82000000Y-74500000D02*
X82000000Y-73500000D01*
X81500000Y-74000000D02*
X82500000Y-74000000D01*
X85700000Y-67300000D02*
X88300000Y-67300000D01*
X80700000Y-67300000D02*
X83300000Y-67300000D01*
X75700000Y-67300000D02*
X78300000Y-67300000D01*
X77900000Y-81200000D02*
X78200000Y-81500000D01*
X77900000Y-81800000D02*
X77900000Y-81200000D01*
X78200000Y-81500000D02*
X77900000Y-81800000D01*
X75700000Y-80700000D02*
X78200000Y-80700000D01*
X75700000Y-75900000D02*
X75700000Y-80700000D01*
X88300000Y-80700000D02*
X85500000Y-80700000D01*
X88300000Y-75800000D02*
X88300000Y-80700000D01*
X88300000Y-67300000D02*
X88300000Y-72200000D01*
X75700000Y-72200000D02*
X75700000Y-67300000D01*
X85000000Y-74000000D02*
G75*
G03X85000000Y-74000000I-3000000J0D01*
G01*
X113500000Y-96000000D02*
G75*
G03X113500000Y-96000000I-3000000J0D01*
G01*
X108700000Y-102300000D02*
X103800000Y-102300000D01*
X103800000Y-89700000D02*
X108700000Y-89700000D01*
X112300000Y-89700000D02*
X117200000Y-89700000D01*
X117200000Y-89700000D02*
X117200000Y-92500000D01*
X112400000Y-102300000D02*
X117200000Y-102300000D01*
X117200000Y-102300000D02*
X117200000Y-99800000D01*
X118000000Y-99800000D02*
X118300000Y-100100000D01*
X118300000Y-100100000D02*
X117700000Y-100100000D01*
X117700000Y-100100000D02*
X118000000Y-99800000D01*
X103800000Y-102300000D02*
X103800000Y-99700000D01*
X103800000Y-97300000D02*
X103800000Y-94700000D01*
X103800000Y-92300000D02*
X103800000Y-89700000D01*
X110500000Y-96500000D02*
X110500000Y-95500000D01*
X111000000Y-96000000D02*
X110000000Y-96000000D01*
X139000000Y-74500000D02*
X139000000Y-73500000D01*
X138500000Y-74000000D02*
X139500000Y-74000000D01*
X142700000Y-67300000D02*
X145300000Y-67300000D01*
X137700000Y-67300000D02*
X140300000Y-67300000D01*
X132700000Y-67300000D02*
X135300000Y-67300000D01*
X134900000Y-81200000D02*
X135200000Y-81500000D01*
X134900000Y-81800000D02*
X134900000Y-81200000D01*
X135200000Y-81500000D02*
X134900000Y-81800000D01*
X132700000Y-80700000D02*
X135200000Y-80700000D01*
X132700000Y-75900000D02*
X132700000Y-80700000D01*
X145300000Y-80700000D02*
X142500000Y-80700000D01*
X145300000Y-75800000D02*
X145300000Y-80700000D01*
X145300000Y-67300000D02*
X145300000Y-72200000D01*
X132700000Y-72200000D02*
X132700000Y-67300000D01*
X142000000Y-74000000D02*
G75*
G03X142000000Y-74000000I-3000000J0D01*
G01*
D11*
X90500000Y-139000000D02*
X90500000Y-153000000D01*
X90500000Y-153000000D02*
X76500000Y-153000000D01*
X90500000Y-139000000D02*
X76500000Y-139000000D01*
X76500000Y-139000000D02*
X76500000Y-153000000D01*
X94500000Y-139000000D02*
X94500000Y-153000000D01*
X108500000Y-139000000D02*
X94500000Y-139000000D01*
X108500000Y-153000000D02*
X94500000Y-153000000D01*
X108500000Y-139000000D02*
X108500000Y-153000000D01*
X126500000Y-139000000D02*
X126500000Y-153000000D01*
X126500000Y-153000000D02*
X112500000Y-153000000D01*
X126500000Y-139000000D02*
X112500000Y-139000000D01*
X112500000Y-139000000D02*
X112500000Y-153000000D01*
X130500000Y-139000000D02*
X130500000Y-153000000D01*
X144500000Y-139000000D02*
X130500000Y-139000000D01*
X144500000Y-153000000D02*
X130500000Y-153000000D01*
X144500000Y-139000000D02*
X144500000Y-153000000D01*
D10*
X90150000Y-58480000D02*
X90150000Y-58710000D01*
X89630000Y-54810000D02*
X97350000Y-54810000D01*
X97350000Y-54810000D02*
X97350000Y-58710000D01*
X89630000Y-61820000D02*
X90150000Y-61820000D01*
X89630000Y-54810000D02*
X89630000Y-58710000D01*
X96830000Y-58480000D02*
X96830000Y-58710000D01*
X90150000Y-61310000D02*
X90150000Y-61820000D01*
X89630000Y-61310000D02*
X89630000Y-61820000D01*
X96290000Y-58480000D02*
X96830000Y-58480000D01*
X96830000Y-61310000D02*
X96830000Y-61820000D01*
X96830000Y-61820000D02*
X97350000Y-61820000D01*
X97350000Y-61310000D02*
X97350000Y-61820000D01*
X90150000Y-58480000D02*
X90690000Y-58480000D01*
X91790000Y-58480000D02*
X95190000Y-58480000D01*
D11*
X131400000Y-87750000D02*
X130390000Y-87750000D01*
X113600000Y-87750000D02*
X114600000Y-87750000D01*
X131400000Y-86750000D02*
X131400000Y-87750000D01*
X113600000Y-86700000D02*
X113600000Y-87750000D01*
X131400000Y-54700000D02*
X130450000Y-54700000D01*
X113600000Y-54700000D02*
X114600000Y-54700000D01*
X131400000Y-54700000D02*
X131400000Y-55700000D01*
X113600000Y-54700000D02*
X113600000Y-55700000D01*
X118750000Y-51800000D02*
X118750000Y-53100000D01*
X118750000Y-53100000D02*
X126250000Y-53100000D01*
X126250000Y-53100000D02*
X126250000Y-51800000D01*
X126250000Y-51800000D02*
X118750000Y-51800000D01*
X122000000Y-52150000D02*
X123000000Y-52150000D01*
X123000000Y-52150000D02*
X122500000Y-52800000D01*
X122500000Y-52800000D02*
X122000000Y-52150000D01*
X122150000Y-52300000D02*
X122850000Y-52300000D01*
X122250000Y-52450000D02*
X122750000Y-52450000D01*
X122350000Y-52600000D02*
X122650000Y-52600000D01*
D10*
X113260000Y-63500462D02*
G75*
G03X107710000Y-61955170I-2990000J462D01*
G01*
X113260000Y-63499538D02*
G75*
G02X107710000Y-65044830I-2990000J-462D01*
G01*
X112770000Y-63500000D02*
G75*
G03X112770000Y-63500000I-2500000J0D01*
G01*
X107710000Y-61955000D02*
X107710000Y-65045000D01*
D11*
X116700000Y-113800000D02*
X104300000Y-113800000D01*
X104300000Y-126200000D02*
X116700000Y-126200000D01*
X104300000Y-113800000D02*
X104300000Y-117500000D01*
X116700000Y-113800000D02*
X116700000Y-117500000D01*
X104300000Y-126200000D02*
X104300000Y-122500000D01*
X116700000Y-126200000D02*
X116700000Y-122500000D01*
X109600000Y-114500000D02*
X111400000Y-114500000D01*
X107300000Y-125500000D02*
X113700000Y-125500000D01*
X84750000Y-63500000D02*
X84250000Y-62000000D01*
X79250000Y-65000000D02*
X78750000Y-63500000D01*
X83250000Y-65000000D02*
X84250000Y-62000000D01*
X83250000Y-65000000D02*
X82250000Y-62000000D01*
X81250000Y-65000000D02*
X80250000Y-62000000D01*
X81250000Y-65000000D02*
X82250000Y-62000000D01*
X84544000Y-63500000D02*
X85052000Y-63500000D01*
X78448000Y-63500000D02*
X78956000Y-63500000D01*
X79250000Y-65000000D02*
X80250000Y-62000000D01*
X97000000Y-97000000D02*
X96000000Y-100000000D01*
X97802000Y-98500000D02*
X97294000Y-98500000D01*
X91706000Y-98500000D02*
X91198000Y-98500000D01*
X95000000Y-97000000D02*
X94000000Y-100000000D01*
X95000000Y-97000000D02*
X96000000Y-100000000D01*
X93000000Y-97000000D02*
X94000000Y-100000000D01*
X93000000Y-97000000D02*
X92000000Y-100000000D01*
X97000000Y-97000000D02*
X97500000Y-98500000D01*
X91500000Y-98500000D02*
X92000000Y-100000000D01*
X136000000Y-63500000D02*
X136500000Y-65000000D01*
X141500000Y-62000000D02*
X142000000Y-63500000D01*
X137500000Y-62000000D02*
X136500000Y-65000000D01*
X137500000Y-62000000D02*
X138500000Y-65000000D01*
X139500000Y-62000000D02*
X140500000Y-65000000D01*
X139500000Y-62000000D02*
X138500000Y-65000000D01*
X136206000Y-63500000D02*
X135698000Y-63500000D01*
X142302000Y-63500000D02*
X141794000Y-63500000D01*
X141500000Y-62000000D02*
X140500000Y-65000000D01*
X77738095Y-99952380D02*
X78309523Y-99952380D01*
X78023809Y-100952380D02*
X78023809Y-99952380D01*
X79214285Y-100952380D02*
X78880952Y-100476190D01*
X78642857Y-100952380D02*
X78642857Y-99952380D01*
X79023809Y-99952380D01*
X79119047Y-100000000D01*
X79166666Y-100047619D01*
X79214285Y-100142857D01*
X79214285Y-100285714D01*
X79166666Y-100380952D01*
X79119047Y-100428571D01*
X79023809Y-100476190D01*
X78642857Y-100476190D01*
X80214285Y-100952380D02*
X79880952Y-100476190D01*
X79642857Y-100952380D02*
X79642857Y-99952380D01*
X80023809Y-99952380D01*
X80119047Y-100000000D01*
X80166666Y-100047619D01*
X80214285Y-100142857D01*
X80214285Y-100285714D01*
X80166666Y-100380952D01*
X80119047Y-100428571D01*
X80023809Y-100476190D01*
X79642857Y-100476190D01*
X80595238Y-100904761D02*
X80738095Y-100952380D01*
X80976190Y-100952380D01*
X81071428Y-100904761D01*
X81119047Y-100857142D01*
X81166666Y-100761904D01*
X81166666Y-100666666D01*
X81119047Y-100571428D01*
X81071428Y-100523809D01*
X80976190Y-100476190D01*
X80785714Y-100428571D01*
X80690476Y-100380952D01*
X80642857Y-100333333D01*
X80595238Y-100238095D01*
X80595238Y-100142857D01*
X80642857Y-100047619D01*
X80690476Y-100000000D01*
X80785714Y-99952380D01*
X81023809Y-99952380D01*
X81166666Y-100000000D01*
X139869095Y-99952380D02*
X140440523Y-99952380D01*
X140154809Y-100952380D02*
X140154809Y-99952380D01*
X141345285Y-100952380D02*
X141011952Y-100476190D01*
X140773857Y-100952380D02*
X140773857Y-99952380D01*
X141154809Y-99952380D01*
X141250047Y-100000000D01*
X141297666Y-100047619D01*
X141345285Y-100142857D01*
X141345285Y-100285714D01*
X141297666Y-100380952D01*
X141250047Y-100428571D01*
X141154809Y-100476190D01*
X140773857Y-100476190D01*
X142345285Y-100952380D02*
X142011952Y-100476190D01*
X141773857Y-100952380D02*
X141773857Y-99952380D01*
X142154809Y-99952380D01*
X142250047Y-100000000D01*
X142297666Y-100047619D01*
X142345285Y-100142857D01*
X142345285Y-100285714D01*
X142297666Y-100380952D01*
X142250047Y-100428571D01*
X142154809Y-100476190D01*
X141773857Y-100476190D01*
X142726238Y-100904761D02*
X142869095Y-100952380D01*
X143107190Y-100952380D01*
X143202428Y-100904761D01*
X143250047Y-100857142D01*
X143297666Y-100761904D01*
X143297666Y-100666666D01*
X143250047Y-100571428D01*
X143202428Y-100523809D01*
X143107190Y-100476190D01*
X142916714Y-100428571D01*
X142821476Y-100380952D01*
X142773857Y-100333333D01*
X142726238Y-100238095D01*
X142726238Y-100142857D01*
X142773857Y-100047619D01*
X142821476Y-100000000D01*
X142916714Y-99952380D01*
X143154809Y-99952380D01*
X143297666Y-100000000D01*
X92904761Y-90452380D02*
X92428571Y-90452380D01*
X92428571Y-89452380D01*
X93095238Y-89452380D02*
X93428571Y-90452380D01*
X93761904Y-89452380D01*
X94666666Y-90357142D02*
X94619047Y-90404761D01*
X94476190Y-90452380D01*
X94380952Y-90452380D01*
X94238095Y-90404761D01*
X94142857Y-90309523D01*
X94095238Y-90214285D01*
X94047619Y-90023809D01*
X94047619Y-89880952D01*
X94095238Y-89690476D01*
X94142857Y-89595238D01*
X94238095Y-89500000D01*
X94380952Y-89452380D01*
X94476190Y-89452380D01*
X94619047Y-89500000D01*
X94666666Y-89547619D01*
X95619047Y-90452380D02*
X95047619Y-90452380D01*
X95333333Y-90452380D02*
X95333333Y-89452380D01*
X95238095Y-89595238D01*
X95142857Y-89690476D01*
X95047619Y-89738095D01*
X101866666Y-66361904D02*
X101600000Y-65980952D01*
X101409523Y-66361904D02*
X101409523Y-65561904D01*
X101714285Y-65561904D01*
X101790476Y-65600000D01*
X101828571Y-65638095D01*
X101866666Y-65714285D01*
X101866666Y-65828571D01*
X101828571Y-65904761D01*
X101790476Y-65942857D01*
X101714285Y-65980952D01*
X101409523Y-65980952D01*
X102628571Y-66361904D02*
X102171428Y-66361904D01*
X102400000Y-66361904D02*
X102400000Y-65561904D01*
X102323809Y-65676190D01*
X102247619Y-65752380D01*
X102171428Y-65790476D01*
X110392066Y-109861904D02*
X110125400Y-109480952D01*
X109934923Y-109861904D02*
X109934923Y-109061904D01*
X110239685Y-109061904D01*
X110315876Y-109100000D01*
X110353971Y-109138095D01*
X110392066Y-109214285D01*
X110392066Y-109328571D01*
X110353971Y-109404761D01*
X110315876Y-109442857D01*
X110239685Y-109480952D01*
X109934923Y-109480952D01*
X110696828Y-109138095D02*
X110734923Y-109100000D01*
X110811114Y-109061904D01*
X111001590Y-109061904D01*
X111077780Y-109100000D01*
X111115876Y-109138095D01*
X111153971Y-109214285D01*
X111153971Y-109290476D01*
X111115876Y-109404761D01*
X110658733Y-109861904D01*
X111153971Y-109861904D01*
X86166666Y-82404761D02*
X86309523Y-82452380D01*
X86547619Y-82452380D01*
X86642857Y-82404761D01*
X86690476Y-82357142D01*
X86738095Y-82261904D01*
X86738095Y-82166666D01*
X86690476Y-82071428D01*
X86642857Y-82023809D01*
X86547619Y-81976190D01*
X86357142Y-81928571D01*
X86261904Y-81880952D01*
X86214285Y-81833333D01*
X86166666Y-81738095D01*
X86166666Y-81642857D01*
X86214285Y-81547619D01*
X86261904Y-81500000D01*
X86357142Y-81452380D01*
X86595238Y-81452380D01*
X86738095Y-81500000D01*
X87071428Y-81452380D02*
X87309523Y-82452380D01*
X87500000Y-81738095D01*
X87690476Y-82452380D01*
X87928571Y-81452380D01*
X88833333Y-82452380D02*
X88261904Y-82452380D01*
X88547619Y-82452380D02*
X88547619Y-81452380D01*
X88452380Y-81595238D01*
X88357142Y-81690476D01*
X88261904Y-81738095D01*
X117665666Y-102512761D02*
X117808523Y-102560380D01*
X118046619Y-102560380D01*
X118141857Y-102512761D01*
X118189476Y-102465142D01*
X118237095Y-102369904D01*
X118237095Y-102274666D01*
X118189476Y-102179428D01*
X118141857Y-102131809D01*
X118046619Y-102084190D01*
X117856142Y-102036571D01*
X117760904Y-101988952D01*
X117713285Y-101941333D01*
X117665666Y-101846095D01*
X117665666Y-101750857D01*
X117713285Y-101655619D01*
X117760904Y-101608000D01*
X117856142Y-101560380D01*
X118094238Y-101560380D01*
X118237095Y-101608000D01*
X118570428Y-101560380D02*
X118808523Y-102560380D01*
X118999000Y-101846095D01*
X119189476Y-102560380D01*
X119427571Y-101560380D01*
X119760904Y-101655619D02*
X119808523Y-101608000D01*
X119903761Y-101560380D01*
X120141857Y-101560380D01*
X120237095Y-101608000D01*
X120284714Y-101655619D01*
X120332333Y-101750857D01*
X120332333Y-101846095D01*
X120284714Y-101988952D01*
X119713285Y-102560380D01*
X120332333Y-102560380D01*
X143256166Y-82700761D02*
X143399023Y-82748380D01*
X143637119Y-82748380D01*
X143732357Y-82700761D01*
X143779976Y-82653142D01*
X143827595Y-82557904D01*
X143827595Y-82462666D01*
X143779976Y-82367428D01*
X143732357Y-82319809D01*
X143637119Y-82272190D01*
X143446642Y-82224571D01*
X143351404Y-82176952D01*
X143303785Y-82129333D01*
X143256166Y-82034095D01*
X143256166Y-81938857D01*
X143303785Y-81843619D01*
X143351404Y-81796000D01*
X143446642Y-81748380D01*
X143684738Y-81748380D01*
X143827595Y-81796000D01*
X144160928Y-81748380D02*
X144399023Y-82748380D01*
X144589500Y-82034095D01*
X144779976Y-82748380D01*
X145018071Y-81748380D01*
X145303785Y-81748380D02*
X145922833Y-81748380D01*
X145589500Y-82129333D01*
X145732357Y-82129333D01*
X145827595Y-82176952D01*
X145875214Y-82224571D01*
X145922833Y-82319809D01*
X145922833Y-82557904D01*
X145875214Y-82653142D01*
X145827595Y-82700761D01*
X145732357Y-82748380D01*
X145446642Y-82748380D01*
X145351404Y-82700761D01*
X145303785Y-82653142D01*
X92156666Y-59594761D02*
X92299523Y-59642380D01*
X92537619Y-59642380D01*
X92632857Y-59594761D01*
X92680476Y-59547142D01*
X92728095Y-59451904D01*
X92728095Y-59356666D01*
X92680476Y-59261428D01*
X92632857Y-59213809D01*
X92537619Y-59166190D01*
X92347142Y-59118571D01*
X92251904Y-59070952D01*
X92204285Y-59023333D01*
X92156666Y-58928095D01*
X92156666Y-58832857D01*
X92204285Y-58737619D01*
X92251904Y-58690000D01*
X92347142Y-58642380D01*
X92585238Y-58642380D01*
X92728095Y-58690000D01*
X93061428Y-58642380D02*
X93299523Y-59642380D01*
X93490000Y-58928095D01*
X93680476Y-59642380D01*
X93918571Y-58642380D01*
X94442380Y-59070952D02*
X94347142Y-59023333D01*
X94299523Y-58975714D01*
X94251904Y-58880476D01*
X94251904Y-58832857D01*
X94299523Y-58737619D01*
X94347142Y-58690000D01*
X94442380Y-58642380D01*
X94632857Y-58642380D01*
X94728095Y-58690000D01*
X94775714Y-58737619D01*
X94823333Y-58832857D01*
X94823333Y-58880476D01*
X94775714Y-58975714D01*
X94728095Y-59023333D01*
X94632857Y-59070952D01*
X94442380Y-59070952D01*
X94347142Y-59118571D01*
X94299523Y-59166190D01*
X94251904Y-59261428D01*
X94251904Y-59451904D01*
X94299523Y-59547142D01*
X94347142Y-59594761D01*
X94442380Y-59642380D01*
X94632857Y-59642380D01*
X94728095Y-59594761D01*
X94775714Y-59547142D01*
X94823333Y-59451904D01*
X94823333Y-59261428D01*
X94775714Y-59166190D01*
X94728095Y-59118571D01*
X94632857Y-59070952D01*
D12*
X117042380Y-58839285D02*
X116819047Y-58482142D01*
X116659523Y-58839285D02*
X116659523Y-58089285D01*
X116914761Y-58089285D01*
X116978571Y-58125000D01*
X117010476Y-58160714D01*
X117042380Y-58232142D01*
X117042380Y-58339285D01*
X117010476Y-58410714D01*
X116978571Y-58446428D01*
X116914761Y-58482142D01*
X116659523Y-58482142D01*
X117297619Y-58625000D02*
X117616666Y-58625000D01*
X117233809Y-58839285D02*
X117457142Y-58089285D01*
X117680476Y-58839285D01*
X117840000Y-58089285D02*
X117999523Y-58839285D01*
X118127142Y-58303571D01*
X118254761Y-58839285D01*
X118414285Y-58089285D01*
X116994523Y-60675000D02*
X116930714Y-60639285D01*
X116835000Y-60639285D01*
X116739285Y-60675000D01*
X116675476Y-60746428D01*
X116643571Y-60817857D01*
X116611666Y-60960714D01*
X116611666Y-61067857D01*
X116643571Y-61210714D01*
X116675476Y-61282142D01*
X116739285Y-61353571D01*
X116835000Y-61389285D01*
X116898809Y-61389285D01*
X116994523Y-61353571D01*
X117026428Y-61317857D01*
X117026428Y-61067857D01*
X116898809Y-61067857D01*
X117313571Y-61389285D02*
X117313571Y-60639285D01*
X117696428Y-61389285D01*
X117696428Y-60639285D01*
X118015476Y-61389285D02*
X118015476Y-60639285D01*
X118175000Y-60639285D01*
X118270714Y-60675000D01*
X118334523Y-60746428D01*
X118366428Y-60817857D01*
X118398333Y-60960714D01*
X118398333Y-61067857D01*
X118366428Y-61210714D01*
X118334523Y-61282142D01*
X118270714Y-61353571D01*
X118175000Y-61389285D01*
X118015476Y-61389285D01*
X117138095Y-63939285D02*
X116914761Y-63582142D01*
X116755238Y-63939285D02*
X116755238Y-63189285D01*
X117010476Y-63189285D01*
X117074285Y-63225000D01*
X117106190Y-63260714D01*
X117138095Y-63332142D01*
X117138095Y-63439285D01*
X117106190Y-63510714D01*
X117074285Y-63546428D01*
X117010476Y-63582142D01*
X116755238Y-63582142D01*
X117393333Y-63903571D02*
X117489047Y-63939285D01*
X117648571Y-63939285D01*
X117712380Y-63903571D01*
X117744285Y-63867857D01*
X117776190Y-63796428D01*
X117776190Y-63725000D01*
X117744285Y-63653571D01*
X117712380Y-63617857D01*
X117648571Y-63582142D01*
X117520952Y-63546428D01*
X117457142Y-63510714D01*
X117425238Y-63475000D01*
X117393333Y-63403571D01*
X117393333Y-63332142D01*
X117425238Y-63260714D01*
X117457142Y-63225000D01*
X117520952Y-63189285D01*
X117680476Y-63189285D01*
X117776190Y-63225000D01*
X117967619Y-63189285D02*
X118350476Y-63189285D01*
X118159047Y-63939285D02*
X118159047Y-63189285D01*
X116611666Y-65639285D02*
X116835000Y-66389285D01*
X117058333Y-65639285D01*
X117664523Y-66317857D02*
X117632619Y-66353571D01*
X117536904Y-66389285D01*
X117473095Y-66389285D01*
X117377380Y-66353571D01*
X117313571Y-66282142D01*
X117281666Y-66210714D01*
X117249761Y-66067857D01*
X117249761Y-65960714D01*
X117281666Y-65817857D01*
X117313571Y-65746428D01*
X117377380Y-65675000D01*
X117473095Y-65639285D01*
X117536904Y-65639285D01*
X117632619Y-65675000D01*
X117664523Y-65710714D01*
X118334523Y-66317857D02*
X118302619Y-66353571D01*
X118206904Y-66389285D01*
X118143095Y-66389285D01*
X118047380Y-66353571D01*
X117983571Y-66282142D01*
X117951666Y-66210714D01*
X117919761Y-66067857D01*
X117919761Y-65960714D01*
X117951666Y-65817857D01*
X117983571Y-65746428D01*
X118047380Y-65675000D01*
X118143095Y-65639285D01*
X118206904Y-65639285D01*
X118302619Y-65675000D01*
X118334523Y-65710714D01*
X116669285Y-68875000D02*
X116988333Y-68875000D01*
X116605476Y-69089285D02*
X116828809Y-68339285D01*
X117052142Y-69089285D01*
X117211666Y-68339285D02*
X117626428Y-68339285D01*
X117403095Y-68625000D01*
X117498809Y-68625000D01*
X117562619Y-68660714D01*
X117594523Y-68696428D01*
X117626428Y-68767857D01*
X117626428Y-68946428D01*
X117594523Y-69017857D01*
X117562619Y-69053571D01*
X117498809Y-69089285D01*
X117307380Y-69089285D01*
X117243571Y-69053571D01*
X117211666Y-69017857D01*
X118392142Y-68303571D02*
X117817857Y-69267857D01*
X118838809Y-68696428D02*
X118615476Y-68696428D01*
X118615476Y-69089285D02*
X118615476Y-68339285D01*
X118934523Y-68339285D01*
X119476904Y-68589285D02*
X119476904Y-69089285D01*
X119317380Y-68303571D02*
X119157857Y-68839285D01*
X119572619Y-68839285D01*
X116669285Y-71375000D02*
X116988333Y-71375000D01*
X116605476Y-71589285D02*
X116828809Y-70839285D01*
X117052142Y-71589285D01*
X117243571Y-70910714D02*
X117275476Y-70875000D01*
X117339285Y-70839285D01*
X117498809Y-70839285D01*
X117562619Y-70875000D01*
X117594523Y-70910714D01*
X117626428Y-70982142D01*
X117626428Y-71053571D01*
X117594523Y-71160714D01*
X117211666Y-71589285D01*
X117626428Y-71589285D01*
X118392142Y-70803571D02*
X117817857Y-71767857D01*
X118838809Y-71196428D02*
X118615476Y-71196428D01*
X118615476Y-71589285D02*
X118615476Y-70839285D01*
X118934523Y-70839285D01*
X119508809Y-70839285D02*
X119189761Y-70839285D01*
X119157857Y-71196428D01*
X119189761Y-71160714D01*
X119253571Y-71125000D01*
X119413095Y-71125000D01*
X119476904Y-71160714D01*
X119508809Y-71196428D01*
X119540714Y-71267857D01*
X119540714Y-71446428D01*
X119508809Y-71517857D01*
X119476904Y-71553571D01*
X119413095Y-71589285D01*
X119253571Y-71589285D01*
X119189761Y-71553571D01*
X119157857Y-71517857D01*
X116669285Y-73875000D02*
X116988333Y-73875000D01*
X116605476Y-74089285D02*
X116828809Y-73339285D01*
X117052142Y-74089285D01*
X117626428Y-74089285D02*
X117243571Y-74089285D01*
X117435000Y-74089285D02*
X117435000Y-73339285D01*
X117371190Y-73446428D01*
X117307380Y-73517857D01*
X117243571Y-73553571D01*
X118392142Y-73303571D02*
X117817857Y-74267857D01*
X118838809Y-73696428D02*
X118615476Y-73696428D01*
X118615476Y-74089285D02*
X118615476Y-73339285D01*
X118934523Y-73339285D01*
X119476904Y-73339285D02*
X119349285Y-73339285D01*
X119285476Y-73375000D01*
X119253571Y-73410714D01*
X119189761Y-73517857D01*
X119157857Y-73660714D01*
X119157857Y-73946428D01*
X119189761Y-74017857D01*
X119221666Y-74053571D01*
X119285476Y-74089285D01*
X119413095Y-74089285D01*
X119476904Y-74053571D01*
X119508809Y-74017857D01*
X119540714Y-73946428D01*
X119540714Y-73767857D01*
X119508809Y-73696428D01*
X119476904Y-73660714D01*
X119413095Y-73625000D01*
X119285476Y-73625000D01*
X119221666Y-73660714D01*
X119189761Y-73696428D01*
X119157857Y-73767857D01*
X116669285Y-76425000D02*
X116988333Y-76425000D01*
X116605476Y-76639285D02*
X116828809Y-75889285D01*
X117052142Y-76639285D01*
X117403095Y-75889285D02*
X117466904Y-75889285D01*
X117530714Y-75925000D01*
X117562619Y-75960714D01*
X117594523Y-76032142D01*
X117626428Y-76175000D01*
X117626428Y-76353571D01*
X117594523Y-76496428D01*
X117562619Y-76567857D01*
X117530714Y-76603571D01*
X117466904Y-76639285D01*
X117403095Y-76639285D01*
X117339285Y-76603571D01*
X117307380Y-76567857D01*
X117275476Y-76496428D01*
X117243571Y-76353571D01*
X117243571Y-76175000D01*
X117275476Y-76032142D01*
X117307380Y-75960714D01*
X117339285Y-75925000D01*
X117403095Y-75889285D01*
X118392142Y-75853571D02*
X117817857Y-76817857D01*
X118838809Y-76246428D02*
X118615476Y-76246428D01*
X118615476Y-76639285D02*
X118615476Y-75889285D01*
X118934523Y-75889285D01*
X119125952Y-75889285D02*
X119572619Y-75889285D01*
X119285476Y-76639285D01*
X116972380Y-79189285D02*
X116589523Y-79189285D01*
X116780952Y-79189285D02*
X116780952Y-78439285D01*
X116717142Y-78546428D01*
X116653333Y-78617857D01*
X116589523Y-78653571D01*
X117578571Y-78439285D02*
X117259523Y-78439285D01*
X117227619Y-78796428D01*
X117259523Y-78760714D01*
X117323333Y-78725000D01*
X117482857Y-78725000D01*
X117546666Y-78760714D01*
X117578571Y-78796428D01*
X117610476Y-78867857D01*
X117610476Y-79046428D01*
X117578571Y-79117857D01*
X117546666Y-79153571D01*
X117482857Y-79189285D01*
X117323333Y-79189285D01*
X117259523Y-79153571D01*
X117227619Y-79117857D01*
X118376190Y-78403571D02*
X117801904Y-79367857D01*
X118822857Y-78796428D02*
X118918571Y-78832142D01*
X118950476Y-78867857D01*
X118982380Y-78939285D01*
X118982380Y-79046428D01*
X118950476Y-79117857D01*
X118918571Y-79153571D01*
X118854761Y-79189285D01*
X118599523Y-79189285D01*
X118599523Y-78439285D01*
X118822857Y-78439285D01*
X118886666Y-78475000D01*
X118918571Y-78510714D01*
X118950476Y-78582142D01*
X118950476Y-78653571D01*
X118918571Y-78725000D01*
X118886666Y-78760714D01*
X118822857Y-78796428D01*
X118599523Y-78796428D01*
X119620476Y-79189285D02*
X119237619Y-79189285D01*
X119429047Y-79189285D02*
X119429047Y-78439285D01*
X119365238Y-78546428D01*
X119301428Y-78617857D01*
X119237619Y-78653571D01*
X116972380Y-81739285D02*
X116589523Y-81739285D01*
X116780952Y-81739285D02*
X116780952Y-80989285D01*
X116717142Y-81096428D01*
X116653333Y-81167857D01*
X116589523Y-81203571D01*
X117546666Y-81239285D02*
X117546666Y-81739285D01*
X117387142Y-80953571D02*
X117227619Y-81489285D01*
X117642380Y-81489285D01*
X118376190Y-80953571D02*
X117801904Y-81917857D01*
X118822857Y-81346428D02*
X118918571Y-81382142D01*
X118950476Y-81417857D01*
X118982380Y-81489285D01*
X118982380Y-81596428D01*
X118950476Y-81667857D01*
X118918571Y-81703571D01*
X118854761Y-81739285D01*
X118599523Y-81739285D01*
X118599523Y-80989285D01*
X118822857Y-80989285D01*
X118886666Y-81025000D01*
X118918571Y-81060714D01*
X118950476Y-81132142D01*
X118950476Y-81203571D01*
X118918571Y-81275000D01*
X118886666Y-81310714D01*
X118822857Y-81346428D01*
X118599523Y-81346428D01*
X119205714Y-80989285D02*
X119620476Y-80989285D01*
X119397142Y-81275000D01*
X119492857Y-81275000D01*
X119556666Y-81310714D01*
X119588571Y-81346428D01*
X119620476Y-81417857D01*
X119620476Y-81596428D01*
X119588571Y-81667857D01*
X119556666Y-81703571D01*
X119492857Y-81739285D01*
X119301428Y-81739285D01*
X119237619Y-81703571D01*
X119205714Y-81667857D01*
X116972380Y-86789285D02*
X116589523Y-86789285D01*
X116780952Y-86789285D02*
X116780952Y-86039285D01*
X116717142Y-86146428D01*
X116653333Y-86217857D01*
X116589523Y-86253571D01*
X117387142Y-86039285D02*
X117450952Y-86039285D01*
X117514761Y-86075000D01*
X117546666Y-86110714D01*
X117578571Y-86182142D01*
X117610476Y-86325000D01*
X117610476Y-86503571D01*
X117578571Y-86646428D01*
X117546666Y-86717857D01*
X117514761Y-86753571D01*
X117450952Y-86789285D01*
X117387142Y-86789285D01*
X117323333Y-86753571D01*
X117291428Y-86717857D01*
X117259523Y-86646428D01*
X117227619Y-86503571D01*
X117227619Y-86325000D01*
X117259523Y-86182142D01*
X117291428Y-86110714D01*
X117323333Y-86075000D01*
X117387142Y-86039285D01*
X118376190Y-86003571D02*
X117801904Y-86967857D01*
X118822857Y-86396428D02*
X118918571Y-86432142D01*
X118950476Y-86467857D01*
X118982380Y-86539285D01*
X118982380Y-86646428D01*
X118950476Y-86717857D01*
X118918571Y-86753571D01*
X118854761Y-86789285D01*
X118599523Y-86789285D01*
X118599523Y-86039285D01*
X118822857Y-86039285D01*
X118886666Y-86075000D01*
X118918571Y-86110714D01*
X118950476Y-86182142D01*
X118950476Y-86253571D01*
X118918571Y-86325000D01*
X118886666Y-86360714D01*
X118822857Y-86396428D01*
X118599523Y-86396428D01*
X119556666Y-86039285D02*
X119429047Y-86039285D01*
X119365238Y-86075000D01*
X119333333Y-86110714D01*
X119269523Y-86217857D01*
X119237619Y-86360714D01*
X119237619Y-86646428D01*
X119269523Y-86717857D01*
X119301428Y-86753571D01*
X119365238Y-86789285D01*
X119492857Y-86789285D01*
X119556666Y-86753571D01*
X119588571Y-86717857D01*
X119620476Y-86646428D01*
X119620476Y-86467857D01*
X119588571Y-86396428D01*
X119556666Y-86360714D01*
X119492857Y-86325000D01*
X119365238Y-86325000D01*
X119301428Y-86360714D01*
X119269523Y-86396428D01*
X119237619Y-86467857D01*
X116972380Y-84289285D02*
X116589523Y-84289285D01*
X116780952Y-84289285D02*
X116780952Y-83539285D01*
X116717142Y-83646428D01*
X116653333Y-83717857D01*
X116589523Y-83753571D01*
X117546666Y-83539285D02*
X117419047Y-83539285D01*
X117355238Y-83575000D01*
X117323333Y-83610714D01*
X117259523Y-83717857D01*
X117227619Y-83860714D01*
X117227619Y-84146428D01*
X117259523Y-84217857D01*
X117291428Y-84253571D01*
X117355238Y-84289285D01*
X117482857Y-84289285D01*
X117546666Y-84253571D01*
X117578571Y-84217857D01*
X117610476Y-84146428D01*
X117610476Y-83967857D01*
X117578571Y-83896428D01*
X117546666Y-83860714D01*
X117482857Y-83825000D01*
X117355238Y-83825000D01*
X117291428Y-83860714D01*
X117259523Y-83896428D01*
X117227619Y-83967857D01*
X118376190Y-83503571D02*
X117801904Y-84467857D01*
X118822857Y-83896428D02*
X118918571Y-83932142D01*
X118950476Y-83967857D01*
X118982380Y-84039285D01*
X118982380Y-84146428D01*
X118950476Y-84217857D01*
X118918571Y-84253571D01*
X118854761Y-84289285D01*
X118599523Y-84289285D01*
X118599523Y-83539285D01*
X118822857Y-83539285D01*
X118886666Y-83575000D01*
X118918571Y-83610714D01*
X118950476Y-83682142D01*
X118950476Y-83753571D01*
X118918571Y-83825000D01*
X118886666Y-83860714D01*
X118822857Y-83896428D01*
X118599523Y-83896428D01*
X119237619Y-83610714D02*
X119269523Y-83575000D01*
X119333333Y-83539285D01*
X119492857Y-83539285D01*
X119556666Y-83575000D01*
X119588571Y-83610714D01*
X119620476Y-83682142D01*
X119620476Y-83753571D01*
X119588571Y-83860714D01*
X119205714Y-84289285D01*
X119620476Y-84289285D01*
X126072380Y-81196428D02*
X126295714Y-81196428D01*
X126391428Y-81589285D02*
X126072380Y-81589285D01*
X126072380Y-80839285D01*
X126391428Y-80839285D01*
X126965714Y-80839285D02*
X126838095Y-80839285D01*
X126774285Y-80875000D01*
X126742380Y-80910714D01*
X126678571Y-81017857D01*
X126646666Y-81160714D01*
X126646666Y-81446428D01*
X126678571Y-81517857D01*
X126710476Y-81553571D01*
X126774285Y-81589285D01*
X126901904Y-81589285D01*
X126965714Y-81553571D01*
X126997619Y-81517857D01*
X127029523Y-81446428D01*
X127029523Y-81267857D01*
X126997619Y-81196428D01*
X126965714Y-81160714D01*
X126901904Y-81125000D01*
X126774285Y-81125000D01*
X126710476Y-81160714D01*
X126678571Y-81196428D01*
X126646666Y-81267857D01*
X127795238Y-80803571D02*
X127220952Y-81767857D01*
X127954761Y-80839285D02*
X128401428Y-80839285D01*
X128114285Y-81589285D01*
X126040476Y-79039285D02*
X126040476Y-78289285D01*
X126200000Y-78289285D01*
X126295714Y-78325000D01*
X126359523Y-78396428D01*
X126391428Y-78467857D01*
X126423333Y-78610714D01*
X126423333Y-78717857D01*
X126391428Y-78860714D01*
X126359523Y-78932142D01*
X126295714Y-79003571D01*
X126200000Y-79039285D01*
X126040476Y-79039285D01*
X126646666Y-78289285D02*
X127093333Y-78289285D01*
X126806190Y-79039285D01*
X127827142Y-78253571D02*
X127252857Y-79217857D01*
X128337619Y-78289285D02*
X128210000Y-78289285D01*
X128146190Y-78325000D01*
X128114285Y-78360714D01*
X128050476Y-78467857D01*
X128018571Y-78610714D01*
X128018571Y-78896428D01*
X128050476Y-78967857D01*
X128082380Y-79003571D01*
X128146190Y-79039285D01*
X128273809Y-79039285D01*
X128337619Y-79003571D01*
X128369523Y-78967857D01*
X128401428Y-78896428D01*
X128401428Y-78717857D01*
X128369523Y-78646428D01*
X128337619Y-78610714D01*
X128273809Y-78575000D01*
X128146190Y-78575000D01*
X128082380Y-78610714D01*
X128050476Y-78646428D01*
X128018571Y-78717857D01*
X126944523Y-63275000D02*
X126880714Y-63239285D01*
X126785000Y-63239285D01*
X126689285Y-63275000D01*
X126625476Y-63346428D01*
X126593571Y-63417857D01*
X126561666Y-63560714D01*
X126561666Y-63667857D01*
X126593571Y-63810714D01*
X126625476Y-63882142D01*
X126689285Y-63953571D01*
X126785000Y-63989285D01*
X126848809Y-63989285D01*
X126944523Y-63953571D01*
X126976428Y-63917857D01*
X126976428Y-63667857D01*
X126848809Y-63667857D01*
X127263571Y-63989285D02*
X127263571Y-63239285D01*
X127646428Y-63989285D01*
X127646428Y-63239285D01*
X127965476Y-63989285D02*
X127965476Y-63239285D01*
X128125000Y-63239285D01*
X128220714Y-63275000D01*
X128284523Y-63346428D01*
X128316428Y-63417857D01*
X128348333Y-63560714D01*
X128348333Y-63667857D01*
X128316428Y-63810714D01*
X128284523Y-63882142D01*
X128220714Y-63953571D01*
X128125000Y-63989285D01*
X127965476Y-63989285D01*
X126944523Y-65725000D02*
X126880714Y-65689285D01*
X126785000Y-65689285D01*
X126689285Y-65725000D01*
X126625476Y-65796428D01*
X126593571Y-65867857D01*
X126561666Y-66010714D01*
X126561666Y-66117857D01*
X126593571Y-66260714D01*
X126625476Y-66332142D01*
X126689285Y-66403571D01*
X126785000Y-66439285D01*
X126848809Y-66439285D01*
X126944523Y-66403571D01*
X126976428Y-66367857D01*
X126976428Y-66117857D01*
X126848809Y-66117857D01*
X127263571Y-66439285D02*
X127263571Y-65689285D01*
X127646428Y-66439285D01*
X127646428Y-65689285D01*
X127965476Y-66439285D02*
X127965476Y-65689285D01*
X128125000Y-65689285D01*
X128220714Y-65725000D01*
X128284523Y-65796428D01*
X128316428Y-65867857D01*
X128348333Y-66010714D01*
X128348333Y-66117857D01*
X128316428Y-66260714D01*
X128284523Y-66332142D01*
X128220714Y-66403571D01*
X128125000Y-66439285D01*
X127965476Y-66439285D01*
X124916190Y-58889285D02*
X124916190Y-58139285D01*
X125075714Y-58139285D01*
X125171428Y-58175000D01*
X125235238Y-58246428D01*
X125267142Y-58317857D01*
X125299047Y-58460714D01*
X125299047Y-58567857D01*
X125267142Y-58710714D01*
X125235238Y-58782142D01*
X125171428Y-58853571D01*
X125075714Y-58889285D01*
X124916190Y-58889285D01*
X125522380Y-58139285D02*
X125937142Y-58139285D01*
X125713809Y-58425000D01*
X125809523Y-58425000D01*
X125873333Y-58460714D01*
X125905238Y-58496428D01*
X125937142Y-58567857D01*
X125937142Y-58746428D01*
X125905238Y-58817857D01*
X125873333Y-58853571D01*
X125809523Y-58889285D01*
X125618095Y-58889285D01*
X125554285Y-58853571D01*
X125522380Y-58817857D01*
X126702857Y-58103571D02*
X126128571Y-59067857D01*
X126830476Y-58139285D02*
X127213333Y-58139285D01*
X127021904Y-58889285D02*
X127021904Y-58139285D01*
X127372857Y-58139285D02*
X127819523Y-58889285D01*
X127819523Y-58139285D02*
X127372857Y-58889285D01*
X128202380Y-58139285D02*
X128266190Y-58139285D01*
X128330000Y-58175000D01*
X128361904Y-58210714D01*
X128393809Y-58282142D01*
X128425714Y-58425000D01*
X128425714Y-58603571D01*
X128393809Y-58746428D01*
X128361904Y-58817857D01*
X128330000Y-58853571D01*
X128266190Y-58889285D01*
X128202380Y-58889285D01*
X128138571Y-58853571D01*
X128106666Y-58817857D01*
X128074761Y-58746428D01*
X128042857Y-58603571D01*
X128042857Y-58425000D01*
X128074761Y-58282142D01*
X128106666Y-58210714D01*
X128138571Y-58175000D01*
X128202380Y-58139285D01*
X126040476Y-73939285D02*
X126040476Y-73189285D01*
X126200000Y-73189285D01*
X126295714Y-73225000D01*
X126359523Y-73296428D01*
X126391428Y-73367857D01*
X126423333Y-73510714D01*
X126423333Y-73617857D01*
X126391428Y-73760714D01*
X126359523Y-73832142D01*
X126295714Y-73903571D01*
X126200000Y-73939285D01*
X126040476Y-73939285D01*
X126997619Y-73439285D02*
X126997619Y-73939285D01*
X126838095Y-73153571D02*
X126678571Y-73689285D01*
X127093333Y-73689285D01*
X127827142Y-73153571D02*
X127252857Y-74117857D01*
X128337619Y-73439285D02*
X128337619Y-73939285D01*
X128178095Y-73153571D02*
X128018571Y-73689285D01*
X128433333Y-73689285D01*
X123466428Y-68903571D02*
X123562142Y-68939285D01*
X123721666Y-68939285D01*
X123785476Y-68903571D01*
X123817380Y-68867857D01*
X123849285Y-68796428D01*
X123849285Y-68725000D01*
X123817380Y-68653571D01*
X123785476Y-68617857D01*
X123721666Y-68582142D01*
X123594047Y-68546428D01*
X123530238Y-68510714D01*
X123498333Y-68475000D01*
X123466428Y-68403571D01*
X123466428Y-68332142D01*
X123498333Y-68260714D01*
X123530238Y-68225000D01*
X123594047Y-68189285D01*
X123753571Y-68189285D01*
X123849285Y-68225000D01*
X124136428Y-68939285D02*
X124136428Y-68189285D01*
X124295952Y-68189285D01*
X124391666Y-68225000D01*
X124455476Y-68296428D01*
X124487380Y-68367857D01*
X124519285Y-68510714D01*
X124519285Y-68617857D01*
X124487380Y-68760714D01*
X124455476Y-68832142D01*
X124391666Y-68903571D01*
X124295952Y-68939285D01*
X124136428Y-68939285D01*
X124774523Y-68725000D02*
X125093571Y-68725000D01*
X124710714Y-68939285D02*
X124934047Y-68189285D01*
X125157380Y-68939285D01*
X125859285Y-68153571D02*
X125285000Y-69117857D01*
X126082619Y-68939285D02*
X126082619Y-68189285D01*
X126242142Y-68189285D01*
X126337857Y-68225000D01*
X126401666Y-68296428D01*
X126433571Y-68367857D01*
X126465476Y-68510714D01*
X126465476Y-68617857D01*
X126433571Y-68760714D01*
X126401666Y-68832142D01*
X126337857Y-68903571D01*
X126242142Y-68939285D01*
X126082619Y-68939285D01*
X127103571Y-68939285D02*
X126720714Y-68939285D01*
X126912142Y-68939285D02*
X126912142Y-68189285D01*
X126848333Y-68296428D01*
X126784523Y-68367857D01*
X126720714Y-68403571D01*
X127869285Y-68153571D02*
X127295000Y-69117857D01*
X128060714Y-68260714D02*
X128092619Y-68225000D01*
X128156428Y-68189285D01*
X128315952Y-68189285D01*
X128379761Y-68225000D01*
X128411666Y-68260714D01*
X128443571Y-68332142D01*
X128443571Y-68403571D01*
X128411666Y-68510714D01*
X128028809Y-68939285D01*
X128443571Y-68939285D01*
X123482380Y-71403571D02*
X123578095Y-71439285D01*
X123737619Y-71439285D01*
X123801428Y-71403571D01*
X123833333Y-71367857D01*
X123865238Y-71296428D01*
X123865238Y-71225000D01*
X123833333Y-71153571D01*
X123801428Y-71117857D01*
X123737619Y-71082142D01*
X123610000Y-71046428D01*
X123546190Y-71010714D01*
X123514285Y-70975000D01*
X123482380Y-70903571D01*
X123482380Y-70832142D01*
X123514285Y-70760714D01*
X123546190Y-70725000D01*
X123610000Y-70689285D01*
X123769523Y-70689285D01*
X123865238Y-70725000D01*
X124535238Y-71367857D02*
X124503333Y-71403571D01*
X124407619Y-71439285D01*
X124343809Y-71439285D01*
X124248095Y-71403571D01*
X124184285Y-71332142D01*
X124152380Y-71260714D01*
X124120476Y-71117857D01*
X124120476Y-71010714D01*
X124152380Y-70867857D01*
X124184285Y-70796428D01*
X124248095Y-70725000D01*
X124343809Y-70689285D01*
X124407619Y-70689285D01*
X124503333Y-70725000D01*
X124535238Y-70760714D01*
X125141428Y-71439285D02*
X124822380Y-71439285D01*
X124822380Y-70689285D01*
X125843333Y-70653571D02*
X125269047Y-71617857D01*
X126066666Y-71439285D02*
X126066666Y-70689285D01*
X126226190Y-70689285D01*
X126321904Y-70725000D01*
X126385714Y-70796428D01*
X126417619Y-70867857D01*
X126449523Y-71010714D01*
X126449523Y-71117857D01*
X126417619Y-71260714D01*
X126385714Y-71332142D01*
X126321904Y-71403571D01*
X126226190Y-71439285D01*
X126066666Y-71439285D01*
X126864285Y-70689285D02*
X126928095Y-70689285D01*
X126991904Y-70725000D01*
X127023809Y-70760714D01*
X127055714Y-70832142D01*
X127087619Y-70975000D01*
X127087619Y-71153571D01*
X127055714Y-71296428D01*
X127023809Y-71367857D01*
X126991904Y-71403571D01*
X126928095Y-71439285D01*
X126864285Y-71439285D01*
X126800476Y-71403571D01*
X126768571Y-71367857D01*
X126736666Y-71296428D01*
X126704761Y-71153571D01*
X126704761Y-70975000D01*
X126736666Y-70832142D01*
X126768571Y-70760714D01*
X126800476Y-70725000D01*
X126864285Y-70689285D01*
X127853333Y-70653571D02*
X127279047Y-71617857D01*
X128012857Y-70689285D02*
X128427619Y-70689285D01*
X128204285Y-70975000D01*
X128300000Y-70975000D01*
X128363809Y-71010714D01*
X128395714Y-71046428D01*
X128427619Y-71117857D01*
X128427619Y-71296428D01*
X128395714Y-71367857D01*
X128363809Y-71403571D01*
X128300000Y-71439285D01*
X128108571Y-71439285D01*
X128044761Y-71403571D01*
X128012857Y-71367857D01*
X126423333Y-76417857D02*
X126391428Y-76453571D01*
X126295714Y-76489285D01*
X126231904Y-76489285D01*
X126136190Y-76453571D01*
X126072380Y-76382142D01*
X126040476Y-76310714D01*
X126008571Y-76167857D01*
X126008571Y-76060714D01*
X126040476Y-75917857D01*
X126072380Y-75846428D01*
X126136190Y-75775000D01*
X126231904Y-75739285D01*
X126295714Y-75739285D01*
X126391428Y-75775000D01*
X126423333Y-75810714D01*
X126997619Y-75739285D02*
X126870000Y-75739285D01*
X126806190Y-75775000D01*
X126774285Y-75810714D01*
X126710476Y-75917857D01*
X126678571Y-76060714D01*
X126678571Y-76346428D01*
X126710476Y-76417857D01*
X126742380Y-76453571D01*
X126806190Y-76489285D01*
X126933809Y-76489285D01*
X126997619Y-76453571D01*
X127029523Y-76417857D01*
X127061428Y-76346428D01*
X127061428Y-76167857D01*
X127029523Y-76096428D01*
X126997619Y-76060714D01*
X126933809Y-76025000D01*
X126806190Y-76025000D01*
X126742380Y-76060714D01*
X126710476Y-76096428D01*
X126678571Y-76167857D01*
X127827142Y-75703571D02*
X127252857Y-76667857D01*
X128369523Y-75739285D02*
X128050476Y-75739285D01*
X128018571Y-76096428D01*
X128050476Y-76060714D01*
X128114285Y-76025000D01*
X128273809Y-76025000D01*
X128337619Y-76060714D01*
X128369523Y-76096428D01*
X128401428Y-76167857D01*
X128401428Y-76346428D01*
X128369523Y-76417857D01*
X128337619Y-76453571D01*
X128273809Y-76489285D01*
X128114285Y-76489285D01*
X128050476Y-76453571D01*
X128018571Y-76417857D01*
X126263809Y-86246428D02*
X126359523Y-86282142D01*
X126391428Y-86317857D01*
X126423333Y-86389285D01*
X126423333Y-86496428D01*
X126391428Y-86567857D01*
X126359523Y-86603571D01*
X126295714Y-86639285D01*
X126040476Y-86639285D01*
X126040476Y-85889285D01*
X126263809Y-85889285D01*
X126327619Y-85925000D01*
X126359523Y-85960714D01*
X126391428Y-86032142D01*
X126391428Y-86103571D01*
X126359523Y-86175000D01*
X126327619Y-86210714D01*
X126263809Y-86246428D01*
X126040476Y-86246428D01*
X127029523Y-85889285D02*
X126710476Y-85889285D01*
X126678571Y-86246428D01*
X126710476Y-86210714D01*
X126774285Y-86175000D01*
X126933809Y-86175000D01*
X126997619Y-86210714D01*
X127029523Y-86246428D01*
X127061428Y-86317857D01*
X127061428Y-86496428D01*
X127029523Y-86567857D01*
X126997619Y-86603571D01*
X126933809Y-86639285D01*
X126774285Y-86639285D01*
X126710476Y-86603571D01*
X126678571Y-86567857D01*
X127827142Y-85853571D02*
X127252857Y-86817857D01*
X128082380Y-86639285D02*
X128210000Y-86639285D01*
X128273809Y-86603571D01*
X128305714Y-86567857D01*
X128369523Y-86460714D01*
X128401428Y-86317857D01*
X128401428Y-86032142D01*
X128369523Y-85960714D01*
X128337619Y-85925000D01*
X128273809Y-85889285D01*
X128146190Y-85889285D01*
X128082380Y-85925000D01*
X128050476Y-85960714D01*
X128018571Y-86032142D01*
X128018571Y-86210714D01*
X128050476Y-86282142D01*
X128082380Y-86317857D01*
X128146190Y-86353571D01*
X128273809Y-86353571D01*
X128337619Y-86317857D01*
X128369523Y-86282142D01*
X128401428Y-86210714D01*
X124836428Y-61439285D02*
X124836428Y-60689285D01*
X124995952Y-60689285D01*
X125091666Y-60725000D01*
X125155476Y-60796428D01*
X125187380Y-60867857D01*
X125219285Y-61010714D01*
X125219285Y-61117857D01*
X125187380Y-61260714D01*
X125155476Y-61332142D01*
X125091666Y-61403571D01*
X124995952Y-61439285D01*
X124836428Y-61439285D01*
X125474523Y-60760714D02*
X125506428Y-60725000D01*
X125570238Y-60689285D01*
X125729761Y-60689285D01*
X125793571Y-60725000D01*
X125825476Y-60760714D01*
X125857380Y-60832142D01*
X125857380Y-60903571D01*
X125825476Y-61010714D01*
X125442619Y-61439285D01*
X125857380Y-61439285D01*
X126623095Y-60653571D02*
X126048809Y-61617857D01*
X127229285Y-61439285D02*
X127005952Y-61082142D01*
X126846428Y-61439285D02*
X126846428Y-60689285D01*
X127101666Y-60689285D01*
X127165476Y-60725000D01*
X127197380Y-60760714D01*
X127229285Y-60832142D01*
X127229285Y-60939285D01*
X127197380Y-61010714D01*
X127165476Y-61046428D01*
X127101666Y-61082142D01*
X126846428Y-61082142D01*
X127452619Y-60689285D02*
X127899285Y-61439285D01*
X127899285Y-60689285D02*
X127452619Y-61439285D01*
X128505476Y-61439285D02*
X128122619Y-61439285D01*
X128314047Y-61439285D02*
X128314047Y-60689285D01*
X128250238Y-60796428D01*
X128186428Y-60867857D01*
X128122619Y-60903571D01*
X126263809Y-83746428D02*
X126359523Y-83782142D01*
X126391428Y-83817857D01*
X126423333Y-83889285D01*
X126423333Y-83996428D01*
X126391428Y-84067857D01*
X126359523Y-84103571D01*
X126295714Y-84139285D01*
X126040476Y-84139285D01*
X126040476Y-83389285D01*
X126263809Y-83389285D01*
X126327619Y-83425000D01*
X126359523Y-83460714D01*
X126391428Y-83532142D01*
X126391428Y-83603571D01*
X126359523Y-83675000D01*
X126327619Y-83710714D01*
X126263809Y-83746428D01*
X126040476Y-83746428D01*
X126997619Y-83639285D02*
X126997619Y-84139285D01*
X126838095Y-83353571D02*
X126678571Y-83889285D01*
X127093333Y-83889285D01*
X127827142Y-83353571D02*
X127252857Y-84317857D01*
X128146190Y-83710714D02*
X128082380Y-83675000D01*
X128050476Y-83639285D01*
X128018571Y-83567857D01*
X128018571Y-83532142D01*
X128050476Y-83460714D01*
X128082380Y-83425000D01*
X128146190Y-83389285D01*
X128273809Y-83389285D01*
X128337619Y-83425000D01*
X128369523Y-83460714D01*
X128401428Y-83532142D01*
X128401428Y-83567857D01*
X128369523Y-83639285D01*
X128337619Y-83675000D01*
X128273809Y-83710714D01*
X128146190Y-83710714D01*
X128082380Y-83746428D01*
X128050476Y-83782142D01*
X128018571Y-83853571D01*
X128018571Y-83996428D01*
X128050476Y-84067857D01*
X128082380Y-84103571D01*
X128146190Y-84139285D01*
X128273809Y-84139285D01*
X128337619Y-84103571D01*
X128369523Y-84067857D01*
X128401428Y-83996428D01*
X128401428Y-83853571D01*
X128369523Y-83782142D01*
X128337619Y-83746428D01*
X128273809Y-83710714D01*
D10*
X120003571Y-54389285D02*
X120003571Y-53639285D01*
X120253571Y-54175000D01*
X120503571Y-53639285D01*
X120503571Y-54389285D01*
X120860714Y-54389285D02*
X120860714Y-53889285D01*
X120860714Y-53639285D02*
X120825000Y-53675000D01*
X120860714Y-53710714D01*
X120896428Y-53675000D01*
X120860714Y-53639285D01*
X120860714Y-53710714D01*
X121539285Y-54353571D02*
X121467857Y-54389285D01*
X121325000Y-54389285D01*
X121253571Y-54353571D01*
X121217857Y-54317857D01*
X121182142Y-54246428D01*
X121182142Y-54032142D01*
X121217857Y-53960714D01*
X121253571Y-53925000D01*
X121325000Y-53889285D01*
X121467857Y-53889285D01*
X121539285Y-53925000D01*
X121860714Y-54389285D02*
X121860714Y-53889285D01*
X121860714Y-54032142D02*
X121896428Y-53960714D01*
X121932142Y-53925000D01*
X122003571Y-53889285D01*
X122075000Y-53889285D01*
X122432142Y-54389285D02*
X122360714Y-54353571D01*
X122325000Y-54317857D01*
X122289285Y-54246428D01*
X122289285Y-54032142D01*
X122325000Y-53960714D01*
X122360714Y-53925000D01*
X122432142Y-53889285D01*
X122539285Y-53889285D01*
X122610714Y-53925000D01*
X122646428Y-53960714D01*
X122682142Y-54032142D01*
X122682142Y-54246428D01*
X122646428Y-54317857D01*
X122610714Y-54353571D01*
X122539285Y-54389285D01*
X122432142Y-54389285D01*
X123003571Y-53639285D02*
X123003571Y-54246428D01*
X123039285Y-54317857D01*
X123075000Y-54353571D01*
X123146428Y-54389285D01*
X123289285Y-54389285D01*
X123360714Y-54353571D01*
X123396428Y-54317857D01*
X123432142Y-54246428D01*
X123432142Y-53639285D01*
X123753571Y-54353571D02*
X123860714Y-54389285D01*
X124039285Y-54389285D01*
X124110714Y-54353571D01*
X124146428Y-54317857D01*
X124182142Y-54246428D01*
X124182142Y-54175000D01*
X124146428Y-54103571D01*
X124110714Y-54067857D01*
X124039285Y-54032142D01*
X123896428Y-53996428D01*
X123825000Y-53960714D01*
X123789285Y-53925000D01*
X123753571Y-53853571D01*
X123753571Y-53782142D01*
X123789285Y-53710714D01*
X123825000Y-53675000D01*
X123896428Y-53639285D01*
X124075000Y-53639285D01*
X124182142Y-53675000D01*
X124753571Y-53996428D02*
X124860714Y-54032142D01*
X124896428Y-54067857D01*
X124932142Y-54139285D01*
X124932142Y-54246428D01*
X124896428Y-54317857D01*
X124860714Y-54353571D01*
X124789285Y-54389285D01*
X124503571Y-54389285D01*
X124503571Y-53639285D01*
X124753571Y-53639285D01*
X124825000Y-53675000D01*
X124860714Y-53710714D01*
X124896428Y-53782142D01*
X124896428Y-53853571D01*
X124860714Y-53925000D01*
X124825000Y-53960714D01*
X124753571Y-53996428D01*
X124503571Y-53996428D01*
D11*
X109531904Y-59992380D02*
X109531904Y-58992380D01*
X109770000Y-58992380D01*
X109912857Y-59040000D01*
X110008095Y-59135238D01*
X110055714Y-59230476D01*
X110103333Y-59420952D01*
X110103333Y-59563809D01*
X110055714Y-59754285D01*
X110008095Y-59849523D01*
X109912857Y-59944761D01*
X109770000Y-59992380D01*
X109531904Y-59992380D01*
X111055714Y-59992380D02*
X110484285Y-59992380D01*
X110770000Y-59992380D02*
X110770000Y-58992380D01*
X110674761Y-59135238D01*
X110579523Y-59230476D01*
X110484285Y-59278095D01*
X104857142Y-113452380D02*
X104380952Y-113452380D01*
X104380952Y-112452380D01*
X105142857Y-113404761D02*
X105285714Y-113452380D01*
X105523809Y-113452380D01*
X105619047Y-113404761D01*
X105666666Y-113357142D01*
X105714285Y-113261904D01*
X105714285Y-113166666D01*
X105666666Y-113071428D01*
X105619047Y-113023809D01*
X105523809Y-112976190D01*
X105333333Y-112928571D01*
X105238095Y-112880952D01*
X105190476Y-112833333D01*
X105142857Y-112738095D01*
X105142857Y-112642857D01*
X105190476Y-112547619D01*
X105238095Y-112500000D01*
X105333333Y-112452380D01*
X105571428Y-112452380D01*
X105714285Y-112500000D01*
X106666666Y-113452380D02*
X106095238Y-113452380D01*
X106380952Y-113452380D02*
X106380952Y-112452380D01*
X106285714Y-112595238D01*
X106190476Y-112690476D01*
X106095238Y-112738095D01*
X81591266Y-65361904D02*
X81324600Y-64980952D01*
X81134123Y-65361904D02*
X81134123Y-64561904D01*
X81438885Y-64561904D01*
X81515076Y-64600000D01*
X81553171Y-64638095D01*
X81591266Y-64714285D01*
X81591266Y-64828571D01*
X81553171Y-64904761D01*
X81515076Y-64942857D01*
X81438885Y-64980952D01*
X81134123Y-64980952D01*
X81857933Y-64561904D02*
X82353171Y-64561904D01*
X82086504Y-64866666D01*
X82200790Y-64866666D01*
X82276980Y-64904761D01*
X82315076Y-64942857D01*
X82353171Y-65019047D01*
X82353171Y-65209523D01*
X82315076Y-65285714D01*
X82276980Y-65323809D01*
X82200790Y-65361904D01*
X81972219Y-65361904D01*
X81896028Y-65323809D01*
X81857933Y-65285714D01*
X94392066Y-97361904D02*
X94125400Y-96980952D01*
X93934923Y-97361904D02*
X93934923Y-96561904D01*
X94239685Y-96561904D01*
X94315876Y-96600000D01*
X94353971Y-96638095D01*
X94392066Y-96714285D01*
X94392066Y-96828571D01*
X94353971Y-96904761D01*
X94315876Y-96942857D01*
X94239685Y-96980952D01*
X93934923Y-96980952D01*
X95077780Y-96828571D02*
X95077780Y-97361904D01*
X94887304Y-96523809D02*
X94696828Y-97095238D01*
X95192066Y-97095238D01*
X138892066Y-62361904D02*
X138625400Y-61980952D01*
X138434923Y-62361904D02*
X138434923Y-61561904D01*
X138739685Y-61561904D01*
X138815876Y-61600000D01*
X138853971Y-61638095D01*
X138892066Y-61714285D01*
X138892066Y-61828571D01*
X138853971Y-61904761D01*
X138815876Y-61942857D01*
X138739685Y-61980952D01*
X138434923Y-61980952D01*
X139615876Y-61561904D02*
X139234923Y-61561904D01*
X139196828Y-61942857D01*
X139234923Y-61904761D01*
X139311114Y-61866666D01*
X139501590Y-61866666D01*
X139577780Y-61904761D01*
X139615876Y-61942857D01*
X139653971Y-62019047D01*
X139653971Y-62209523D01*
X139615876Y-62285714D01*
X139577780Y-62323809D01*
X139501590Y-62361904D01*
X139311114Y-62361904D01*
X139234923Y-62323809D01*
X139196828Y-62285714D01*
M02*
