G04 #@! TF.GenerationSoftware,KiCad,Pcbnew,5.1.5+dfsg1-2build2*
G04 #@! TF.CreationDate,2021-03-25T10:03:56+09:00*
G04 #@! TF.ProjectId,pad,7061642e-6b69-4636-9164-5f7063625858,rev?*
G04 #@! TF.SameCoordinates,Original*
G04 #@! TF.FileFunction,Legend,Bot*
G04 #@! TF.FilePolarity,Positive*
%FSLAX46Y46*%
G04 Gerber Fmt 4.6, Leading zero omitted, Abs format (unit mm)*
G04 Created by KiCad (PCBNEW 5.1.5+dfsg1-2build2) date 2021-03-25 10:03:56*
%MOMM*%
%LPD*%
G04 APERTURE LIST*
%ADD10C,0.150000*%
G04 APERTURE END LIST*
D10*
X107800000Y-128750000D02*
X107800000Y-130250000D01*
X113200000Y-128750000D02*
X107800000Y-128750000D01*
X113200000Y-130250000D02*
X113200000Y-128750000D01*
X107800000Y-130250000D02*
X113200000Y-130250000D01*
X111000000Y-130000000D02*
X111000000Y-129000000D01*
X110000000Y-129000000D02*
X110900000Y-129500000D01*
X110000000Y-130000000D02*
X110000000Y-129000000D01*
X110900000Y-129500000D02*
X110000000Y-130000000D01*
G36*
X79690000Y-139484000D02*
G01*
X80706000Y-138468000D01*
X79690000Y-138468000D01*
X79690000Y-139484000D01*
G37*
X79690000Y-139484000D02*
X80706000Y-138468000D01*
X79690000Y-138468000D01*
X79690000Y-139484000D01*
G36*
X97690000Y-139484000D02*
G01*
X98706000Y-138468000D01*
X97690000Y-138468000D01*
X97690000Y-139484000D01*
G37*
X97690000Y-139484000D02*
X98706000Y-138468000D01*
X97690000Y-138468000D01*
X97690000Y-139484000D01*
G36*
X115690000Y-139484000D02*
G01*
X116706000Y-138468000D01*
X115690000Y-138468000D01*
X115690000Y-139484000D01*
G37*
X115690000Y-139484000D02*
X116706000Y-138468000D01*
X115690000Y-138468000D01*
X115690000Y-139484000D01*
G36*
X133690000Y-139484000D02*
G01*
X134706000Y-138468000D01*
X133690000Y-138468000D01*
X133690000Y-139484000D01*
G37*
X133690000Y-139484000D02*
X134706000Y-138468000D01*
X133690000Y-138468000D01*
X133690000Y-139484000D01*
X104528315Y-65022109D02*
X103528315Y-62022109D01*
X102528315Y-65022109D02*
X101528315Y-62022109D01*
X102528315Y-65022109D02*
X103528315Y-62022109D01*
X100528315Y-65022109D02*
X99528315Y-62022109D01*
X99028315Y-63522109D02*
X99528315Y-62022109D01*
X100528315Y-65022109D02*
X101528315Y-62022109D01*
X104528315Y-65022109D02*
X105028315Y-63522109D01*
X113028315Y-112522109D02*
X112028315Y-109522109D01*
X111028315Y-112522109D02*
X110028315Y-109522109D01*
X111028315Y-112522109D02*
X112028315Y-109522109D01*
X109028315Y-112522109D02*
X108028315Y-109522109D01*
X107528315Y-111022109D02*
X108028315Y-109522109D01*
X109028315Y-112522109D02*
X110028315Y-109522109D01*
X113028315Y-112522109D02*
X113528315Y-111022109D01*
X79221685Y-61977891D02*
X80221685Y-64977891D01*
X81221685Y-61977891D02*
X82221685Y-64977891D01*
X81221685Y-61977891D02*
X80221685Y-64977891D01*
X83221685Y-61977891D02*
X84221685Y-64977891D01*
X84721685Y-63477891D02*
X84221685Y-64977891D01*
X83221685Y-61977891D02*
X82221685Y-64977891D01*
X79221685Y-61977891D02*
X78721685Y-63477891D01*
X97028315Y-100022109D02*
X97528315Y-98522109D01*
X93028315Y-100022109D02*
X94028315Y-97022109D01*
X91528315Y-98522109D02*
X92028315Y-97022109D01*
X93028315Y-100022109D02*
X92028315Y-97022109D01*
X95028315Y-100022109D02*
X96028315Y-97022109D01*
X95028315Y-100022109D02*
X94028315Y-97022109D01*
X97028315Y-100022109D02*
X96028315Y-97022109D01*
X141528315Y-65022109D02*
X140528315Y-62022109D01*
X139528315Y-65022109D02*
X138528315Y-62022109D01*
X139528315Y-65022109D02*
X140528315Y-62022109D01*
X137528315Y-65022109D02*
X136528315Y-62022109D01*
X136028315Y-63522109D02*
X136528315Y-62022109D01*
X137528315Y-65022109D02*
X138528315Y-62022109D01*
X141528315Y-65022109D02*
X142028315Y-63522109D01*
X83666666Y-138152380D02*
X84142857Y-138152380D01*
X84142857Y-137152380D01*
X82809523Y-138152380D02*
X83380952Y-138152380D01*
X83095238Y-138152380D02*
X83095238Y-137152380D01*
X83190476Y-137295238D01*
X83285714Y-137390476D01*
X83380952Y-137438095D01*
X101666666Y-138152380D02*
X102142857Y-138152380D01*
X102142857Y-137152380D01*
X101380952Y-137247619D02*
X101333333Y-137200000D01*
X101238095Y-137152380D01*
X101000000Y-137152380D01*
X100904761Y-137200000D01*
X100857142Y-137247619D01*
X100809523Y-137342857D01*
X100809523Y-137438095D01*
X100857142Y-137580952D01*
X101428571Y-138152380D01*
X100809523Y-138152380D01*
X119666666Y-138152380D02*
X120142857Y-138152380D01*
X120142857Y-137152380D01*
X119428571Y-137152380D02*
X118809523Y-137152380D01*
X119142857Y-137533333D01*
X119000000Y-137533333D01*
X118904761Y-137580952D01*
X118857142Y-137628571D01*
X118809523Y-137723809D01*
X118809523Y-137961904D01*
X118857142Y-138057142D01*
X118904761Y-138104761D01*
X119000000Y-138152380D01*
X119285714Y-138152380D01*
X119380952Y-138104761D01*
X119428571Y-138057142D01*
X137666666Y-138152380D02*
X138142857Y-138152380D01*
X138142857Y-137152380D01*
X136904761Y-137485714D02*
X136904761Y-138152380D01*
X137142857Y-137104761D02*
X137380952Y-137819047D01*
X136761904Y-137819047D01*
X102101561Y-66361904D02*
X102368228Y-65980952D01*
X102558704Y-66361904D02*
X102558704Y-65561904D01*
X102253942Y-65561904D01*
X102177751Y-65600000D01*
X102139656Y-65638095D01*
X102101561Y-65714285D01*
X102101561Y-65828571D01*
X102139656Y-65904761D01*
X102177751Y-65942857D01*
X102253942Y-65980952D01*
X102558704Y-65980952D01*
X101339656Y-66361904D02*
X101796799Y-66361904D01*
X101568228Y-66361904D02*
X101568228Y-65561904D01*
X101644418Y-65676190D01*
X101720608Y-65752380D01*
X101796799Y-65790476D01*
X110601561Y-109850327D02*
X110868228Y-109469375D01*
X111058704Y-109850327D02*
X111058704Y-109050327D01*
X110753942Y-109050327D01*
X110677751Y-109088423D01*
X110639656Y-109126518D01*
X110601561Y-109202708D01*
X110601561Y-109316994D01*
X110639656Y-109393184D01*
X110677751Y-109431280D01*
X110753942Y-109469375D01*
X111058704Y-109469375D01*
X110296799Y-109126518D02*
X110258704Y-109088423D01*
X110182513Y-109050327D01*
X109992037Y-109050327D01*
X109915847Y-109088423D01*
X109877751Y-109126518D01*
X109839656Y-109202708D01*
X109839656Y-109278899D01*
X109877751Y-109393184D01*
X110334894Y-109850327D01*
X109839656Y-109850327D01*
X81915105Y-65373481D02*
X82181772Y-64992529D01*
X82372248Y-65373481D02*
X82372248Y-64573481D01*
X82067486Y-64573481D01*
X81991295Y-64611577D01*
X81953200Y-64649672D01*
X81915105Y-64725862D01*
X81915105Y-64840148D01*
X81953200Y-64916338D01*
X81991295Y-64954434D01*
X82067486Y-64992529D01*
X82372248Y-64992529D01*
X81610343Y-64649672D02*
X81572248Y-64611577D01*
X81496057Y-64573481D01*
X81305581Y-64573481D01*
X81229391Y-64611577D01*
X81191295Y-64649672D01*
X81153200Y-64725862D01*
X81153200Y-64802053D01*
X81191295Y-64916338D01*
X81648438Y-65373481D01*
X81153200Y-65373481D01*
X94601561Y-97350327D02*
X94868228Y-96969375D01*
X95058704Y-97350327D02*
X95058704Y-96550327D01*
X94753942Y-96550327D01*
X94677751Y-96588423D01*
X94639656Y-96626518D01*
X94601561Y-96702708D01*
X94601561Y-96816994D01*
X94639656Y-96893184D01*
X94677751Y-96931280D01*
X94753942Y-96969375D01*
X95058704Y-96969375D01*
X94296799Y-96626518D02*
X94258704Y-96588423D01*
X94182513Y-96550327D01*
X93992037Y-96550327D01*
X93915847Y-96588423D01*
X93877751Y-96626518D01*
X93839656Y-96702708D01*
X93839656Y-96778899D01*
X93877751Y-96893184D01*
X94334894Y-97350327D01*
X93839656Y-97350327D01*
X139101561Y-62350327D02*
X139368228Y-61969375D01*
X139558704Y-62350327D02*
X139558704Y-61550327D01*
X139253942Y-61550327D01*
X139177751Y-61588423D01*
X139139656Y-61626518D01*
X139101561Y-61702708D01*
X139101561Y-61816994D01*
X139139656Y-61893184D01*
X139177751Y-61931280D01*
X139253942Y-61969375D01*
X139558704Y-61969375D01*
X138796799Y-61626518D02*
X138758704Y-61588423D01*
X138682513Y-61550327D01*
X138492037Y-61550327D01*
X138415847Y-61588423D01*
X138377751Y-61626518D01*
X138339656Y-61702708D01*
X138339656Y-61778899D01*
X138377751Y-61893184D01*
X138834894Y-62350327D01*
X138339656Y-62350327D01*
M02*
