G04 #@! TF.GenerationSoftware,KiCad,Pcbnew,5.1.5+dfsg1-2build2*
G04 #@! TF.CreationDate,2021-03-25T10:03:56+09:00*
G04 #@! TF.ProjectId,pad,7061642e-6b69-4636-9164-5f7063625858,rev?*
G04 #@! TF.SameCoordinates,Original*
G04 #@! TF.FileFunction,Soldermask,Bot*
G04 #@! TF.FilePolarity,Negative*
%FSLAX46Y46*%
G04 Gerber Fmt 4.6, Leading zero omitted, Abs format (unit mm)*
G04 Created by KiCad (PCBNEW 5.1.5+dfsg1-2build2) date 2021-03-25 10:03:56*
%MOMM*%
%LPD*%
G04 APERTURE LIST*
%ADD10C,0.100000*%
G04 APERTURE END LIST*
D10*
G36*
X101724549Y-150771116D02*
G01*
X101835734Y-150793232D01*
X102045203Y-150879997D01*
X102233720Y-151005960D01*
X102394040Y-151166280D01*
X102520003Y-151354797D01*
X102606768Y-151564266D01*
X102651000Y-151786636D01*
X102651000Y-152013364D01*
X102606768Y-152235734D01*
X102520003Y-152445203D01*
X102394040Y-152633720D01*
X102233720Y-152794040D01*
X102045203Y-152920003D01*
X101835734Y-153006768D01*
X101724549Y-153028884D01*
X101613365Y-153051000D01*
X101386635Y-153051000D01*
X101275451Y-153028884D01*
X101164266Y-153006768D01*
X100954797Y-152920003D01*
X100766280Y-152794040D01*
X100605960Y-152633720D01*
X100479997Y-152445203D01*
X100393232Y-152235734D01*
X100349000Y-152013364D01*
X100349000Y-151786636D01*
X100393232Y-151564266D01*
X100479997Y-151354797D01*
X100605960Y-151166280D01*
X100766280Y-151005960D01*
X100954797Y-150879997D01*
X101164266Y-150793232D01*
X101275451Y-150771116D01*
X101386635Y-150749000D01*
X101613365Y-150749000D01*
X101724549Y-150771116D01*
G37*
G36*
X83724549Y-150771116D02*
G01*
X83835734Y-150793232D01*
X84045203Y-150879997D01*
X84233720Y-151005960D01*
X84394040Y-151166280D01*
X84520003Y-151354797D01*
X84606768Y-151564266D01*
X84651000Y-151786636D01*
X84651000Y-152013364D01*
X84606768Y-152235734D01*
X84520003Y-152445203D01*
X84394040Y-152633720D01*
X84233720Y-152794040D01*
X84045203Y-152920003D01*
X83835734Y-153006768D01*
X83724549Y-153028884D01*
X83613365Y-153051000D01*
X83386635Y-153051000D01*
X83275451Y-153028884D01*
X83164266Y-153006768D01*
X82954797Y-152920003D01*
X82766280Y-152794040D01*
X82605960Y-152633720D01*
X82479997Y-152445203D01*
X82393232Y-152235734D01*
X82349000Y-152013364D01*
X82349000Y-151786636D01*
X82393232Y-151564266D01*
X82479997Y-151354797D01*
X82605960Y-151166280D01*
X82766280Y-151005960D01*
X82954797Y-150879997D01*
X83164266Y-150793232D01*
X83275451Y-150771116D01*
X83386635Y-150749000D01*
X83613365Y-150749000D01*
X83724549Y-150771116D01*
G37*
G36*
X137724549Y-150771116D02*
G01*
X137835734Y-150793232D01*
X138045203Y-150879997D01*
X138233720Y-151005960D01*
X138394040Y-151166280D01*
X138520003Y-151354797D01*
X138606768Y-151564266D01*
X138651000Y-151786636D01*
X138651000Y-152013364D01*
X138606768Y-152235734D01*
X138520003Y-152445203D01*
X138394040Y-152633720D01*
X138233720Y-152794040D01*
X138045203Y-152920003D01*
X137835734Y-153006768D01*
X137724549Y-153028884D01*
X137613365Y-153051000D01*
X137386635Y-153051000D01*
X137275451Y-153028884D01*
X137164266Y-153006768D01*
X136954797Y-152920003D01*
X136766280Y-152794040D01*
X136605960Y-152633720D01*
X136479997Y-152445203D01*
X136393232Y-152235734D01*
X136349000Y-152013364D01*
X136349000Y-151786636D01*
X136393232Y-151564266D01*
X136479997Y-151354797D01*
X136605960Y-151166280D01*
X136766280Y-151005960D01*
X136954797Y-150879997D01*
X137164266Y-150793232D01*
X137275451Y-150771116D01*
X137386635Y-150749000D01*
X137613365Y-150749000D01*
X137724549Y-150771116D01*
G37*
G36*
X119724549Y-150771116D02*
G01*
X119835734Y-150793232D01*
X120045203Y-150879997D01*
X120233720Y-151005960D01*
X120394040Y-151166280D01*
X120520003Y-151354797D01*
X120606768Y-151564266D01*
X120651000Y-151786636D01*
X120651000Y-152013364D01*
X120606768Y-152235734D01*
X120520003Y-152445203D01*
X120394040Y-152633720D01*
X120233720Y-152794040D01*
X120045203Y-152920003D01*
X119835734Y-153006768D01*
X119724549Y-153028884D01*
X119613365Y-153051000D01*
X119386635Y-153051000D01*
X119275451Y-153028884D01*
X119164266Y-153006768D01*
X118954797Y-152920003D01*
X118766280Y-152794040D01*
X118605960Y-152633720D01*
X118479997Y-152445203D01*
X118393232Y-152235734D01*
X118349000Y-152013364D01*
X118349000Y-151786636D01*
X118393232Y-151564266D01*
X118479997Y-151354797D01*
X118605960Y-151166280D01*
X118766280Y-151005960D01*
X118954797Y-150879997D01*
X119164266Y-150793232D01*
X119275451Y-150771116D01*
X119386635Y-150749000D01*
X119613365Y-150749000D01*
X119724549Y-150771116D01*
G37*
G36*
X132624549Y-148771116D02*
G01*
X132735734Y-148793232D01*
X132945203Y-148879997D01*
X133133720Y-149005960D01*
X133294040Y-149166280D01*
X133420003Y-149354797D01*
X133506768Y-149564266D01*
X133551000Y-149786636D01*
X133551000Y-150013364D01*
X133506768Y-150235734D01*
X133420003Y-150445203D01*
X133294040Y-150633720D01*
X133133720Y-150794040D01*
X132945203Y-150920003D01*
X132735734Y-151006768D01*
X132624549Y-151028884D01*
X132513365Y-151051000D01*
X132286635Y-151051000D01*
X132175451Y-151028884D01*
X132064266Y-151006768D01*
X131854797Y-150920003D01*
X131666280Y-150794040D01*
X131505960Y-150633720D01*
X131379997Y-150445203D01*
X131293232Y-150235734D01*
X131249000Y-150013364D01*
X131249000Y-149786636D01*
X131293232Y-149564266D01*
X131379997Y-149354797D01*
X131505960Y-149166280D01*
X131666280Y-149005960D01*
X131854797Y-148879997D01*
X132064266Y-148793232D01*
X132175451Y-148771116D01*
X132286635Y-148749000D01*
X132513365Y-148749000D01*
X132624549Y-148771116D01*
G37*
G36*
X114624549Y-148771116D02*
G01*
X114735734Y-148793232D01*
X114945203Y-148879997D01*
X115133720Y-149005960D01*
X115294040Y-149166280D01*
X115420003Y-149354797D01*
X115506768Y-149564266D01*
X115551000Y-149786636D01*
X115551000Y-150013364D01*
X115506768Y-150235734D01*
X115420003Y-150445203D01*
X115294040Y-150633720D01*
X115133720Y-150794040D01*
X114945203Y-150920003D01*
X114735734Y-151006768D01*
X114624549Y-151028884D01*
X114513365Y-151051000D01*
X114286635Y-151051000D01*
X114175451Y-151028884D01*
X114064266Y-151006768D01*
X113854797Y-150920003D01*
X113666280Y-150794040D01*
X113505960Y-150633720D01*
X113379997Y-150445203D01*
X113293232Y-150235734D01*
X113249000Y-150013364D01*
X113249000Y-149786636D01*
X113293232Y-149564266D01*
X113379997Y-149354797D01*
X113505960Y-149166280D01*
X113666280Y-149005960D01*
X113854797Y-148879997D01*
X114064266Y-148793232D01*
X114175451Y-148771116D01*
X114286635Y-148749000D01*
X114513365Y-148749000D01*
X114624549Y-148771116D01*
G37*
G36*
X96624549Y-148771116D02*
G01*
X96735734Y-148793232D01*
X96945203Y-148879997D01*
X97133720Y-149005960D01*
X97294040Y-149166280D01*
X97420003Y-149354797D01*
X97506768Y-149564266D01*
X97551000Y-149786636D01*
X97551000Y-150013364D01*
X97506768Y-150235734D01*
X97420003Y-150445203D01*
X97294040Y-150633720D01*
X97133720Y-150794040D01*
X96945203Y-150920003D01*
X96735734Y-151006768D01*
X96624549Y-151028884D01*
X96513365Y-151051000D01*
X96286635Y-151051000D01*
X96175451Y-151028884D01*
X96064266Y-151006768D01*
X95854797Y-150920003D01*
X95666280Y-150794040D01*
X95505960Y-150633720D01*
X95379997Y-150445203D01*
X95293232Y-150235734D01*
X95249000Y-150013364D01*
X95249000Y-149786636D01*
X95293232Y-149564266D01*
X95379997Y-149354797D01*
X95505960Y-149166280D01*
X95666280Y-149005960D01*
X95854797Y-148879997D01*
X96064266Y-148793232D01*
X96175451Y-148771116D01*
X96286635Y-148749000D01*
X96513365Y-148749000D01*
X96624549Y-148771116D01*
G37*
G36*
X78624549Y-148771116D02*
G01*
X78735734Y-148793232D01*
X78945203Y-148879997D01*
X79133720Y-149005960D01*
X79294040Y-149166280D01*
X79420003Y-149354797D01*
X79506768Y-149564266D01*
X79551000Y-149786636D01*
X79551000Y-150013364D01*
X79506768Y-150235734D01*
X79420003Y-150445203D01*
X79294040Y-150633720D01*
X79133720Y-150794040D01*
X78945203Y-150920003D01*
X78735734Y-151006768D01*
X78624549Y-151028884D01*
X78513365Y-151051000D01*
X78286635Y-151051000D01*
X78175451Y-151028884D01*
X78064266Y-151006768D01*
X77854797Y-150920003D01*
X77666280Y-150794040D01*
X77505960Y-150633720D01*
X77379997Y-150445203D01*
X77293232Y-150235734D01*
X77249000Y-150013364D01*
X77249000Y-149786636D01*
X77293232Y-149564266D01*
X77379997Y-149354797D01*
X77505960Y-149166280D01*
X77666280Y-149005960D01*
X77854797Y-148879997D01*
X78064266Y-148793232D01*
X78175451Y-148771116D01*
X78286635Y-148749000D01*
X78513365Y-148749000D01*
X78624549Y-148771116D01*
G37*
G36*
X102098254Y-144027818D02*
G01*
X102471511Y-144182426D01*
X102471513Y-144182427D01*
X102807436Y-144406884D01*
X103093116Y-144692564D01*
X103317574Y-145028489D01*
X103472182Y-145401746D01*
X103551000Y-145797993D01*
X103551000Y-146202007D01*
X103472182Y-146598254D01*
X103321293Y-146962532D01*
X103317573Y-146971513D01*
X103093116Y-147307436D01*
X102807436Y-147593116D01*
X102471513Y-147817573D01*
X102471512Y-147817574D01*
X102471511Y-147817574D01*
X102098254Y-147972182D01*
X101702007Y-148051000D01*
X101297993Y-148051000D01*
X100901746Y-147972182D01*
X100528489Y-147817574D01*
X100528488Y-147817574D01*
X100528487Y-147817573D01*
X100192564Y-147593116D01*
X99906884Y-147307436D01*
X99682427Y-146971513D01*
X99678707Y-146962532D01*
X99527818Y-146598254D01*
X99449000Y-146202007D01*
X99449000Y-145797993D01*
X99527818Y-145401746D01*
X99682426Y-145028489D01*
X99906884Y-144692564D01*
X100192564Y-144406884D01*
X100528487Y-144182427D01*
X100528489Y-144182426D01*
X100901746Y-144027818D01*
X101297993Y-143949000D01*
X101702007Y-143949000D01*
X102098254Y-144027818D01*
G37*
G36*
X138098254Y-144027818D02*
G01*
X138471511Y-144182426D01*
X138471513Y-144182427D01*
X138807436Y-144406884D01*
X139093116Y-144692564D01*
X139317574Y-145028489D01*
X139472182Y-145401746D01*
X139551000Y-145797993D01*
X139551000Y-146202007D01*
X139472182Y-146598254D01*
X139321293Y-146962532D01*
X139317573Y-146971513D01*
X139093116Y-147307436D01*
X138807436Y-147593116D01*
X138471513Y-147817573D01*
X138471512Y-147817574D01*
X138471511Y-147817574D01*
X138098254Y-147972182D01*
X137702007Y-148051000D01*
X137297993Y-148051000D01*
X136901746Y-147972182D01*
X136528489Y-147817574D01*
X136528488Y-147817574D01*
X136528487Y-147817573D01*
X136192564Y-147593116D01*
X135906884Y-147307436D01*
X135682427Y-146971513D01*
X135678707Y-146962532D01*
X135527818Y-146598254D01*
X135449000Y-146202007D01*
X135449000Y-145797993D01*
X135527818Y-145401746D01*
X135682426Y-145028489D01*
X135906884Y-144692564D01*
X136192564Y-144406884D01*
X136528487Y-144182427D01*
X136528489Y-144182426D01*
X136901746Y-144027818D01*
X137297993Y-143949000D01*
X137702007Y-143949000D01*
X138098254Y-144027818D01*
G37*
G36*
X120098254Y-144027818D02*
G01*
X120471511Y-144182426D01*
X120471513Y-144182427D01*
X120807436Y-144406884D01*
X121093116Y-144692564D01*
X121317574Y-145028489D01*
X121472182Y-145401746D01*
X121551000Y-145797993D01*
X121551000Y-146202007D01*
X121472182Y-146598254D01*
X121321293Y-146962532D01*
X121317573Y-146971513D01*
X121093116Y-147307436D01*
X120807436Y-147593116D01*
X120471513Y-147817573D01*
X120471512Y-147817574D01*
X120471511Y-147817574D01*
X120098254Y-147972182D01*
X119702007Y-148051000D01*
X119297993Y-148051000D01*
X118901746Y-147972182D01*
X118528489Y-147817574D01*
X118528488Y-147817574D01*
X118528487Y-147817573D01*
X118192564Y-147593116D01*
X117906884Y-147307436D01*
X117682427Y-146971513D01*
X117678707Y-146962532D01*
X117527818Y-146598254D01*
X117449000Y-146202007D01*
X117449000Y-145797993D01*
X117527818Y-145401746D01*
X117682426Y-145028489D01*
X117906884Y-144692564D01*
X118192564Y-144406884D01*
X118528487Y-144182427D01*
X118528489Y-144182426D01*
X118901746Y-144027818D01*
X119297993Y-143949000D01*
X119702007Y-143949000D01*
X120098254Y-144027818D01*
G37*
G36*
X84098254Y-144027818D02*
G01*
X84471511Y-144182426D01*
X84471513Y-144182427D01*
X84807436Y-144406884D01*
X85093116Y-144692564D01*
X85317574Y-145028489D01*
X85472182Y-145401746D01*
X85551000Y-145797993D01*
X85551000Y-146202007D01*
X85472182Y-146598254D01*
X85321293Y-146962532D01*
X85317573Y-146971513D01*
X85093116Y-147307436D01*
X84807436Y-147593116D01*
X84471513Y-147817573D01*
X84471512Y-147817574D01*
X84471511Y-147817574D01*
X84098254Y-147972182D01*
X83702007Y-148051000D01*
X83297993Y-148051000D01*
X82901746Y-147972182D01*
X82528489Y-147817574D01*
X82528488Y-147817574D01*
X82528487Y-147817573D01*
X82192564Y-147593116D01*
X81906884Y-147307436D01*
X81682427Y-146971513D01*
X81678707Y-146962532D01*
X81527818Y-146598254D01*
X81449000Y-146202007D01*
X81449000Y-145797993D01*
X81527818Y-145401746D01*
X81682426Y-145028489D01*
X81906884Y-144692564D01*
X82192564Y-144406884D01*
X82528487Y-144182427D01*
X82528489Y-144182426D01*
X82901746Y-144027818D01*
X83297993Y-143949000D01*
X83702007Y-143949000D01*
X84098254Y-144027818D01*
G37*
G36*
X143291981Y-145037468D02*
G01*
X143474151Y-145112926D01*
X143638100Y-145222473D01*
X143777527Y-145361900D01*
X143887074Y-145525849D01*
X143962532Y-145708019D01*
X144001000Y-145901410D01*
X144001000Y-146098590D01*
X143962532Y-146291981D01*
X143887074Y-146474151D01*
X143777527Y-146638100D01*
X143638100Y-146777527D01*
X143474151Y-146887074D01*
X143291981Y-146962532D01*
X143098591Y-147001000D01*
X142901409Y-147001000D01*
X142708019Y-146962532D01*
X142525849Y-146887074D01*
X142361900Y-146777527D01*
X142222473Y-146638100D01*
X142112926Y-146474151D01*
X142037468Y-146291981D01*
X141999000Y-146098590D01*
X141999000Y-145901410D01*
X142037468Y-145708019D01*
X142112926Y-145525849D01*
X142222473Y-145361900D01*
X142361900Y-145222473D01*
X142525849Y-145112926D01*
X142708019Y-145037468D01*
X142901409Y-144999000D01*
X143098591Y-144999000D01*
X143291981Y-145037468D01*
G37*
G36*
X125291981Y-145037468D02*
G01*
X125474151Y-145112926D01*
X125638100Y-145222473D01*
X125777527Y-145361900D01*
X125887074Y-145525849D01*
X125962532Y-145708019D01*
X126001000Y-145901410D01*
X126001000Y-146098590D01*
X125962532Y-146291981D01*
X125887074Y-146474151D01*
X125777527Y-146638100D01*
X125638100Y-146777527D01*
X125474151Y-146887074D01*
X125291981Y-146962532D01*
X125098591Y-147001000D01*
X124901409Y-147001000D01*
X124708019Y-146962532D01*
X124525849Y-146887074D01*
X124361900Y-146777527D01*
X124222473Y-146638100D01*
X124112926Y-146474151D01*
X124037468Y-146291981D01*
X123999000Y-146098590D01*
X123999000Y-145901410D01*
X124037468Y-145708019D01*
X124112926Y-145525849D01*
X124222473Y-145361900D01*
X124361900Y-145222473D01*
X124525849Y-145112926D01*
X124708019Y-145037468D01*
X124901409Y-144999000D01*
X125098591Y-144999000D01*
X125291981Y-145037468D01*
G37*
G36*
X132291981Y-145037468D02*
G01*
X132474151Y-145112926D01*
X132638100Y-145222473D01*
X132777527Y-145361900D01*
X132887074Y-145525849D01*
X132962532Y-145708019D01*
X133001000Y-145901410D01*
X133001000Y-146098590D01*
X132962532Y-146291981D01*
X132887074Y-146474151D01*
X132777527Y-146638100D01*
X132638100Y-146777527D01*
X132474151Y-146887074D01*
X132291981Y-146962532D01*
X132098591Y-147001000D01*
X131901409Y-147001000D01*
X131708019Y-146962532D01*
X131525849Y-146887074D01*
X131361900Y-146777527D01*
X131222473Y-146638100D01*
X131112926Y-146474151D01*
X131037468Y-146291981D01*
X130999000Y-146098590D01*
X130999000Y-145901410D01*
X131037468Y-145708019D01*
X131112926Y-145525849D01*
X131222473Y-145361900D01*
X131361900Y-145222473D01*
X131525849Y-145112926D01*
X131708019Y-145037468D01*
X131901409Y-144999000D01*
X132098591Y-144999000D01*
X132291981Y-145037468D01*
G37*
G36*
X89291981Y-145037468D02*
G01*
X89474151Y-145112926D01*
X89638100Y-145222473D01*
X89777527Y-145361900D01*
X89887074Y-145525849D01*
X89962532Y-145708019D01*
X90001000Y-145901410D01*
X90001000Y-146098590D01*
X89962532Y-146291981D01*
X89887074Y-146474151D01*
X89777527Y-146638100D01*
X89638100Y-146777527D01*
X89474151Y-146887074D01*
X89291981Y-146962532D01*
X89098591Y-147001000D01*
X88901409Y-147001000D01*
X88708019Y-146962532D01*
X88525849Y-146887074D01*
X88361900Y-146777527D01*
X88222473Y-146638100D01*
X88112926Y-146474151D01*
X88037468Y-146291981D01*
X87999000Y-146098590D01*
X87999000Y-145901410D01*
X88037468Y-145708019D01*
X88112926Y-145525849D01*
X88222473Y-145361900D01*
X88361900Y-145222473D01*
X88525849Y-145112926D01*
X88708019Y-145037468D01*
X88901409Y-144999000D01*
X89098591Y-144999000D01*
X89291981Y-145037468D01*
G37*
G36*
X78291981Y-145037468D02*
G01*
X78474151Y-145112926D01*
X78638100Y-145222473D01*
X78777527Y-145361900D01*
X78887074Y-145525849D01*
X78962532Y-145708019D01*
X79001000Y-145901410D01*
X79001000Y-146098590D01*
X78962532Y-146291981D01*
X78887074Y-146474151D01*
X78777527Y-146638100D01*
X78638100Y-146777527D01*
X78474151Y-146887074D01*
X78291981Y-146962532D01*
X78098591Y-147001000D01*
X77901409Y-147001000D01*
X77708019Y-146962532D01*
X77525849Y-146887074D01*
X77361900Y-146777527D01*
X77222473Y-146638100D01*
X77112926Y-146474151D01*
X77037468Y-146291981D01*
X76999000Y-146098590D01*
X76999000Y-145901410D01*
X77037468Y-145708019D01*
X77112926Y-145525849D01*
X77222473Y-145361900D01*
X77361900Y-145222473D01*
X77525849Y-145112926D01*
X77708019Y-145037468D01*
X77901409Y-144999000D01*
X78098591Y-144999000D01*
X78291981Y-145037468D01*
G37*
G36*
X107291981Y-145037468D02*
G01*
X107474151Y-145112926D01*
X107638100Y-145222473D01*
X107777527Y-145361900D01*
X107887074Y-145525849D01*
X107962532Y-145708019D01*
X108001000Y-145901410D01*
X108001000Y-146098590D01*
X107962532Y-146291981D01*
X107887074Y-146474151D01*
X107777527Y-146638100D01*
X107638100Y-146777527D01*
X107474151Y-146887074D01*
X107291981Y-146962532D01*
X107098591Y-147001000D01*
X106901409Y-147001000D01*
X106708019Y-146962532D01*
X106525849Y-146887074D01*
X106361900Y-146777527D01*
X106222473Y-146638100D01*
X106112926Y-146474151D01*
X106037468Y-146291981D01*
X105999000Y-146098590D01*
X105999000Y-145901410D01*
X106037468Y-145708019D01*
X106112926Y-145525849D01*
X106222473Y-145361900D01*
X106361900Y-145222473D01*
X106525849Y-145112926D01*
X106708019Y-145037468D01*
X106901409Y-144999000D01*
X107098591Y-144999000D01*
X107291981Y-145037468D01*
G37*
G36*
X96291981Y-145037468D02*
G01*
X96474151Y-145112926D01*
X96638100Y-145222473D01*
X96777527Y-145361900D01*
X96887074Y-145525849D01*
X96962532Y-145708019D01*
X97001000Y-145901410D01*
X97001000Y-146098590D01*
X96962532Y-146291981D01*
X96887074Y-146474151D01*
X96777527Y-146638100D01*
X96638100Y-146777527D01*
X96474151Y-146887074D01*
X96291981Y-146962532D01*
X96098591Y-147001000D01*
X95901409Y-147001000D01*
X95708019Y-146962532D01*
X95525849Y-146887074D01*
X95361900Y-146777527D01*
X95222473Y-146638100D01*
X95112926Y-146474151D01*
X95037468Y-146291981D01*
X94999000Y-146098590D01*
X94999000Y-145901410D01*
X95037468Y-145708019D01*
X95112926Y-145525849D01*
X95222473Y-145361900D01*
X95361900Y-145222473D01*
X95525849Y-145112926D01*
X95708019Y-145037468D01*
X95901409Y-144999000D01*
X96098591Y-144999000D01*
X96291981Y-145037468D01*
G37*
G36*
X114291981Y-145037468D02*
G01*
X114474151Y-145112926D01*
X114638100Y-145222473D01*
X114777527Y-145361900D01*
X114887074Y-145525849D01*
X114962532Y-145708019D01*
X115001000Y-145901410D01*
X115001000Y-146098590D01*
X114962532Y-146291981D01*
X114887074Y-146474151D01*
X114777527Y-146638100D01*
X114638100Y-146777527D01*
X114474151Y-146887074D01*
X114291981Y-146962532D01*
X114098591Y-147001000D01*
X113901409Y-147001000D01*
X113708019Y-146962532D01*
X113525849Y-146887074D01*
X113361900Y-146777527D01*
X113222473Y-146638100D01*
X113112926Y-146474151D01*
X113037468Y-146291981D01*
X112999000Y-146098590D01*
X112999000Y-145901410D01*
X113037468Y-145708019D01*
X113112926Y-145525849D01*
X113222473Y-145361900D01*
X113361900Y-145222473D01*
X113525849Y-145112926D01*
X113708019Y-145037468D01*
X113901409Y-144999000D01*
X114098591Y-144999000D01*
X114291981Y-145037468D01*
G37*
G36*
X106880721Y-141270174D02*
G01*
X106980995Y-141311709D01*
X106980996Y-141311710D01*
X107071242Y-141372010D01*
X107147990Y-141448758D01*
X107147991Y-141448760D01*
X107208291Y-141539005D01*
X107249826Y-141639279D01*
X107271000Y-141745730D01*
X107271000Y-141854270D01*
X107249826Y-141960721D01*
X107208291Y-142060995D01*
X107208290Y-142060996D01*
X107147990Y-142151242D01*
X107071242Y-142227990D01*
X107025812Y-142258345D01*
X106980995Y-142288291D01*
X106880721Y-142329826D01*
X106774270Y-142351000D01*
X106665730Y-142351000D01*
X106559279Y-142329826D01*
X106459005Y-142288291D01*
X106414188Y-142258345D01*
X106368758Y-142227990D01*
X106292010Y-142151242D01*
X106231710Y-142060996D01*
X106231709Y-142060995D01*
X106190174Y-141960721D01*
X106169000Y-141854270D01*
X106169000Y-141745730D01*
X106190174Y-141639279D01*
X106231709Y-141539005D01*
X106292009Y-141448760D01*
X106292010Y-141448758D01*
X106368758Y-141372010D01*
X106459004Y-141311710D01*
X106459005Y-141311709D01*
X106559279Y-141270174D01*
X106665730Y-141249000D01*
X106774270Y-141249000D01*
X106880721Y-141270174D01*
G37*
G36*
X124880721Y-141270174D02*
G01*
X124980995Y-141311709D01*
X124980996Y-141311710D01*
X125071242Y-141372010D01*
X125147990Y-141448758D01*
X125147991Y-141448760D01*
X125208291Y-141539005D01*
X125249826Y-141639279D01*
X125271000Y-141745730D01*
X125271000Y-141854270D01*
X125249826Y-141960721D01*
X125208291Y-142060995D01*
X125208290Y-142060996D01*
X125147990Y-142151242D01*
X125071242Y-142227990D01*
X125025812Y-142258345D01*
X124980995Y-142288291D01*
X124880721Y-142329826D01*
X124774270Y-142351000D01*
X124665730Y-142351000D01*
X124559279Y-142329826D01*
X124459005Y-142288291D01*
X124414188Y-142258345D01*
X124368758Y-142227990D01*
X124292010Y-142151242D01*
X124231710Y-142060996D01*
X124231709Y-142060995D01*
X124190174Y-141960721D01*
X124169000Y-141854270D01*
X124169000Y-141745730D01*
X124190174Y-141639279D01*
X124231709Y-141539005D01*
X124292009Y-141448760D01*
X124292010Y-141448758D01*
X124368758Y-141372010D01*
X124459004Y-141311710D01*
X124459005Y-141311709D01*
X124559279Y-141270174D01*
X124665730Y-141249000D01*
X124774270Y-141249000D01*
X124880721Y-141270174D01*
G37*
G36*
X142880721Y-141270174D02*
G01*
X142980995Y-141311709D01*
X142980996Y-141311710D01*
X143071242Y-141372010D01*
X143147990Y-141448758D01*
X143147991Y-141448760D01*
X143208291Y-141539005D01*
X143249826Y-141639279D01*
X143271000Y-141745730D01*
X143271000Y-141854270D01*
X143249826Y-141960721D01*
X143208291Y-142060995D01*
X143208290Y-142060996D01*
X143147990Y-142151242D01*
X143071242Y-142227990D01*
X143025812Y-142258345D01*
X142980995Y-142288291D01*
X142880721Y-142329826D01*
X142774270Y-142351000D01*
X142665730Y-142351000D01*
X142559279Y-142329826D01*
X142459005Y-142288291D01*
X142414188Y-142258345D01*
X142368758Y-142227990D01*
X142292010Y-142151242D01*
X142231710Y-142060996D01*
X142231709Y-142060995D01*
X142190174Y-141960721D01*
X142169000Y-141854270D01*
X142169000Y-141745730D01*
X142190174Y-141639279D01*
X142231709Y-141539005D01*
X142292009Y-141448760D01*
X142292010Y-141448758D01*
X142368758Y-141372010D01*
X142459004Y-141311710D01*
X142459005Y-141311709D01*
X142559279Y-141270174D01*
X142665730Y-141249000D01*
X142774270Y-141249000D01*
X142880721Y-141270174D01*
G37*
G36*
X88880721Y-141270174D02*
G01*
X88980995Y-141311709D01*
X88980996Y-141311710D01*
X89071242Y-141372010D01*
X89147990Y-141448758D01*
X89147991Y-141448760D01*
X89208291Y-141539005D01*
X89249826Y-141639279D01*
X89271000Y-141745730D01*
X89271000Y-141854270D01*
X89249826Y-141960721D01*
X89208291Y-142060995D01*
X89208290Y-142060996D01*
X89147990Y-142151242D01*
X89071242Y-142227990D01*
X89025812Y-142258345D01*
X88980995Y-142288291D01*
X88880721Y-142329826D01*
X88774270Y-142351000D01*
X88665730Y-142351000D01*
X88559279Y-142329826D01*
X88459005Y-142288291D01*
X88414188Y-142258345D01*
X88368758Y-142227990D01*
X88292010Y-142151242D01*
X88231710Y-142060996D01*
X88231709Y-142060995D01*
X88190174Y-141960721D01*
X88169000Y-141854270D01*
X88169000Y-141745730D01*
X88190174Y-141639279D01*
X88231709Y-141539005D01*
X88292009Y-141448760D01*
X88292010Y-141448758D01*
X88368758Y-141372010D01*
X88459004Y-141311710D01*
X88459005Y-141311709D01*
X88559279Y-141270174D01*
X88665730Y-141249000D01*
X88774270Y-141249000D01*
X88880721Y-141270174D01*
G37*
G36*
X117951000Y-141711000D02*
G01*
X116049000Y-141711000D01*
X116049000Y-140789000D01*
X117951000Y-140789000D01*
X117951000Y-141711000D01*
G37*
G36*
X81951000Y-141711000D02*
G01*
X80049000Y-141711000D01*
X80049000Y-140789000D01*
X81951000Y-140789000D01*
X81951000Y-141711000D01*
G37*
G36*
X86951000Y-141711000D02*
G01*
X85049000Y-141711000D01*
X85049000Y-140789000D01*
X86951000Y-140789000D01*
X86951000Y-141711000D01*
G37*
G36*
X99951000Y-141711000D02*
G01*
X98049000Y-141711000D01*
X98049000Y-140789000D01*
X99951000Y-140789000D01*
X99951000Y-141711000D01*
G37*
G36*
X104951000Y-141711000D02*
G01*
X103049000Y-141711000D01*
X103049000Y-140789000D01*
X104951000Y-140789000D01*
X104951000Y-141711000D01*
G37*
G36*
X122951000Y-141711000D02*
G01*
X121049000Y-141711000D01*
X121049000Y-140789000D01*
X122951000Y-140789000D01*
X122951000Y-141711000D01*
G37*
G36*
X140951000Y-141711000D02*
G01*
X139049000Y-141711000D01*
X139049000Y-140789000D01*
X140951000Y-140789000D01*
X140951000Y-141711000D01*
G37*
G36*
X135951000Y-141711000D02*
G01*
X134049000Y-141711000D01*
X134049000Y-140789000D01*
X135951000Y-140789000D01*
X135951000Y-141711000D01*
G37*
G36*
X122951000Y-140211000D02*
G01*
X121049000Y-140211000D01*
X121049000Y-139289000D01*
X122951000Y-139289000D01*
X122951000Y-140211000D01*
G37*
G36*
X140951000Y-140211000D02*
G01*
X139049000Y-140211000D01*
X139049000Y-139289000D01*
X140951000Y-139289000D01*
X140951000Y-140211000D01*
G37*
G36*
X117951000Y-140211000D02*
G01*
X116049000Y-140211000D01*
X116049000Y-139289000D01*
X117951000Y-139289000D01*
X117951000Y-140211000D01*
G37*
G36*
X104951000Y-140211000D02*
G01*
X103049000Y-140211000D01*
X103049000Y-139289000D01*
X104951000Y-139289000D01*
X104951000Y-140211000D01*
G37*
G36*
X99951000Y-140211000D02*
G01*
X98049000Y-140211000D01*
X98049000Y-139289000D01*
X99951000Y-139289000D01*
X99951000Y-140211000D01*
G37*
G36*
X135951000Y-140211000D02*
G01*
X134049000Y-140211000D01*
X134049000Y-139289000D01*
X135951000Y-139289000D01*
X135951000Y-140211000D01*
G37*
G36*
X86951000Y-140211000D02*
G01*
X85049000Y-140211000D01*
X85049000Y-139289000D01*
X86951000Y-139289000D01*
X86951000Y-140211000D01*
G37*
G36*
X81951000Y-140211000D02*
G01*
X80049000Y-140211000D01*
X80049000Y-139289000D01*
X81951000Y-139289000D01*
X81951000Y-140211000D01*
G37*
G36*
X142775880Y-131759776D02*
G01*
X143156593Y-131835504D01*
X143566249Y-132005189D01*
X143934929Y-132251534D01*
X144248466Y-132565071D01*
X144494811Y-132933751D01*
X144664496Y-133343407D01*
X144751000Y-133778296D01*
X144751000Y-134221704D01*
X144664496Y-134656593D01*
X144494811Y-135066249D01*
X144248466Y-135434929D01*
X143934929Y-135748466D01*
X143566249Y-135994811D01*
X143156593Y-136164496D01*
X142775880Y-136240224D01*
X142721705Y-136251000D01*
X142278295Y-136251000D01*
X142224120Y-136240224D01*
X141843407Y-136164496D01*
X141433751Y-135994811D01*
X141065071Y-135748466D01*
X140751534Y-135434929D01*
X140505189Y-135066249D01*
X140335504Y-134656593D01*
X140249000Y-134221704D01*
X140249000Y-133778296D01*
X140335504Y-133343407D01*
X140505189Y-132933751D01*
X140751534Y-132565071D01*
X141065071Y-132251534D01*
X141433751Y-132005189D01*
X141843407Y-131835504D01*
X142224120Y-131759776D01*
X142278295Y-131749000D01*
X142721705Y-131749000D01*
X142775880Y-131759776D01*
G37*
G36*
X78775880Y-131759776D02*
G01*
X79156593Y-131835504D01*
X79566249Y-132005189D01*
X79934929Y-132251534D01*
X80248466Y-132565071D01*
X80494811Y-132933751D01*
X80664496Y-133343407D01*
X80751000Y-133778296D01*
X80751000Y-134221704D01*
X80664496Y-134656593D01*
X80494811Y-135066249D01*
X80248466Y-135434929D01*
X79934929Y-135748466D01*
X79566249Y-135994811D01*
X79156593Y-136164496D01*
X78775880Y-136240224D01*
X78721705Y-136251000D01*
X78278295Y-136251000D01*
X78224120Y-136240224D01*
X77843407Y-136164496D01*
X77433751Y-135994811D01*
X77065071Y-135748466D01*
X76751534Y-135434929D01*
X76505189Y-135066249D01*
X76335504Y-134656593D01*
X76249000Y-134221704D01*
X76249000Y-133778296D01*
X76335504Y-133343407D01*
X76505189Y-132933751D01*
X76751534Y-132565071D01*
X77065071Y-132251534D01*
X77433751Y-132005189D01*
X77843407Y-131835504D01*
X78224120Y-131759776D01*
X78278295Y-131749000D01*
X78721705Y-131749000D01*
X78775880Y-131759776D01*
G37*
G36*
X115059500Y-130249500D02*
G01*
X113560500Y-130249500D01*
X113560500Y-128750500D01*
X115059500Y-128750500D01*
X115059500Y-130249500D01*
G37*
G36*
X106784425Y-128754599D02*
G01*
X106908621Y-128779302D01*
X107045022Y-128835801D01*
X107167779Y-128917825D01*
X107272175Y-129022221D01*
X107354199Y-129144978D01*
X107410698Y-129281379D01*
X107439500Y-129426181D01*
X107439500Y-129573819D01*
X107410698Y-129718621D01*
X107354199Y-129855022D01*
X107272175Y-129977779D01*
X107167779Y-130082175D01*
X107045022Y-130164199D01*
X106908621Y-130220698D01*
X106784425Y-130245401D01*
X106763820Y-130249500D01*
X106616180Y-130249500D01*
X106595575Y-130245401D01*
X106471379Y-130220698D01*
X106334978Y-130164199D01*
X106212221Y-130082175D01*
X106107825Y-129977779D01*
X106025801Y-129855022D01*
X105969302Y-129718621D01*
X105940500Y-129573819D01*
X105940500Y-129426181D01*
X105969302Y-129281379D01*
X106025801Y-129144978D01*
X106107825Y-129022221D01*
X106212221Y-128917825D01*
X106334978Y-128835801D01*
X106471379Y-128779302D01*
X106595575Y-128754599D01*
X106616180Y-128750500D01*
X106763820Y-128750500D01*
X106784425Y-128754599D01*
G37*
G36*
X109426000Y-130026000D02*
G01*
X108024000Y-130026000D01*
X108024000Y-128974000D01*
X109426000Y-128974000D01*
X109426000Y-130026000D01*
G37*
G36*
X112976000Y-130026000D02*
G01*
X111574000Y-130026000D01*
X111574000Y-128974000D01*
X112976000Y-128974000D01*
X112976000Y-130026000D01*
G37*
G36*
X106848228Y-110181703D02*
G01*
X107003100Y-110245853D01*
X107142481Y-110338985D01*
X107261015Y-110457519D01*
X107354147Y-110596900D01*
X107418297Y-110751772D01*
X107451000Y-110916184D01*
X107451000Y-111083816D01*
X107418297Y-111248228D01*
X107354147Y-111403100D01*
X107261015Y-111542481D01*
X107142481Y-111661015D01*
X107003100Y-111754147D01*
X106848228Y-111818297D01*
X106683816Y-111851000D01*
X106516184Y-111851000D01*
X106351772Y-111818297D01*
X106196900Y-111754147D01*
X106057519Y-111661015D01*
X105938985Y-111542481D01*
X105845853Y-111403100D01*
X105781703Y-111248228D01*
X105749000Y-111083816D01*
X105749000Y-110916184D01*
X105781703Y-110751772D01*
X105845853Y-110596900D01*
X105938985Y-110457519D01*
X106057519Y-110338985D01*
X106196900Y-110245853D01*
X106351772Y-110181703D01*
X106516184Y-110149000D01*
X106683816Y-110149000D01*
X106848228Y-110181703D01*
G37*
G36*
X114648228Y-110181703D02*
G01*
X114803100Y-110245853D01*
X114942481Y-110338985D01*
X115061015Y-110457519D01*
X115154147Y-110596900D01*
X115218297Y-110751772D01*
X115251000Y-110916184D01*
X115251000Y-111083816D01*
X115218297Y-111248228D01*
X115154147Y-111403100D01*
X115061015Y-111542481D01*
X114942481Y-111661015D01*
X114803100Y-111754147D01*
X114648228Y-111818297D01*
X114483816Y-111851000D01*
X114316184Y-111851000D01*
X114151772Y-111818297D01*
X113996900Y-111754147D01*
X113857519Y-111661015D01*
X113738985Y-111542481D01*
X113645853Y-111403100D01*
X113581703Y-111248228D01*
X113549000Y-111083816D01*
X113549000Y-110916184D01*
X113581703Y-110751772D01*
X113645853Y-110596900D01*
X113738985Y-110457519D01*
X113857519Y-110338985D01*
X113996900Y-110245853D01*
X114151772Y-110181703D01*
X114316184Y-110149000D01*
X114483816Y-110149000D01*
X114648228Y-110181703D01*
G37*
G36*
X109951000Y-111651000D02*
G01*
X108349000Y-111651000D01*
X108349000Y-110349000D01*
X109951000Y-110349000D01*
X109951000Y-111651000D01*
G37*
G36*
X112651000Y-111651000D02*
G01*
X111049000Y-111651000D01*
X111049000Y-110349000D01*
X112651000Y-110349000D01*
X112651000Y-111651000D01*
G37*
G36*
X86810442Y-101705518D02*
G01*
X86876627Y-101712037D01*
X87046466Y-101763557D01*
X87202991Y-101847222D01*
X87238729Y-101876552D01*
X87340186Y-101959814D01*
X87423448Y-102061271D01*
X87452778Y-102097009D01*
X87536443Y-102253534D01*
X87587963Y-102423373D01*
X87605359Y-102600000D01*
X87587963Y-102776627D01*
X87536443Y-102946466D01*
X87452778Y-103102991D01*
X87423448Y-103138729D01*
X87340186Y-103240186D01*
X87238729Y-103323448D01*
X87202991Y-103352778D01*
X87046466Y-103436443D01*
X86876627Y-103487963D01*
X86810443Y-103494481D01*
X86744260Y-103501000D01*
X85855740Y-103501000D01*
X85789557Y-103494481D01*
X85723373Y-103487963D01*
X85553534Y-103436443D01*
X85397009Y-103352778D01*
X85361271Y-103323448D01*
X85259814Y-103240186D01*
X85176552Y-103138729D01*
X85147222Y-103102991D01*
X85063557Y-102946466D01*
X85012037Y-102776627D01*
X84994641Y-102600000D01*
X85012037Y-102423373D01*
X85063557Y-102253534D01*
X85147222Y-102097009D01*
X85176552Y-102061271D01*
X85259814Y-101959814D01*
X85361271Y-101876552D01*
X85397009Y-101847222D01*
X85553534Y-101763557D01*
X85723373Y-101712037D01*
X85789558Y-101705518D01*
X85855740Y-101699000D01*
X86744260Y-101699000D01*
X86810442Y-101705518D01*
G37*
G36*
X136641443Y-101605519D02*
G01*
X136707627Y-101612037D01*
X136877466Y-101663557D01*
X137033991Y-101747222D01*
X137053895Y-101763557D01*
X137171186Y-101859814D01*
X137253253Y-101959814D01*
X137283778Y-101997009D01*
X137367443Y-102153534D01*
X137418963Y-102323373D01*
X137436359Y-102500000D01*
X137418963Y-102676627D01*
X137367443Y-102846466D01*
X137283778Y-103002991D01*
X137254448Y-103038729D01*
X137171186Y-103140186D01*
X137069729Y-103223448D01*
X137033991Y-103252778D01*
X136877466Y-103336443D01*
X136707627Y-103387963D01*
X136641442Y-103394482D01*
X136575260Y-103401000D01*
X135686740Y-103401000D01*
X135620558Y-103394482D01*
X135554373Y-103387963D01*
X135384534Y-103336443D01*
X135228009Y-103252778D01*
X135192271Y-103223448D01*
X135090814Y-103140186D01*
X135007552Y-103038729D01*
X134978222Y-103002991D01*
X134894557Y-102846466D01*
X134843037Y-102676627D01*
X134825641Y-102500000D01*
X134843037Y-102323373D01*
X134894557Y-102153534D01*
X134978222Y-101997009D01*
X135008747Y-101959814D01*
X135090814Y-101859814D01*
X135208105Y-101763557D01*
X135228009Y-101747222D01*
X135384534Y-101663557D01*
X135554373Y-101612037D01*
X135620557Y-101605519D01*
X135686740Y-101599000D01*
X136575260Y-101599000D01*
X136641443Y-101605519D01*
G37*
G36*
X140641443Y-101605519D02*
G01*
X140707627Y-101612037D01*
X140877466Y-101663557D01*
X141033991Y-101747222D01*
X141053895Y-101763557D01*
X141171186Y-101859814D01*
X141253253Y-101959814D01*
X141283778Y-101997009D01*
X141367443Y-102153534D01*
X141418963Y-102323373D01*
X141436359Y-102500000D01*
X141418963Y-102676627D01*
X141367443Y-102846466D01*
X141283778Y-103002991D01*
X141254448Y-103038729D01*
X141171186Y-103140186D01*
X141069729Y-103223448D01*
X141033991Y-103252778D01*
X140877466Y-103336443D01*
X140707627Y-103387963D01*
X140641442Y-103394482D01*
X140575260Y-103401000D01*
X139686740Y-103401000D01*
X139620558Y-103394482D01*
X139554373Y-103387963D01*
X139384534Y-103336443D01*
X139228009Y-103252778D01*
X139192271Y-103223448D01*
X139090814Y-103140186D01*
X139007552Y-103038729D01*
X138978222Y-103002991D01*
X138894557Y-102846466D01*
X138843037Y-102676627D01*
X138825641Y-102500000D01*
X138843037Y-102323373D01*
X138894557Y-102153534D01*
X138978222Y-101997009D01*
X139008747Y-101959814D01*
X139090814Y-101859814D01*
X139208105Y-101763557D01*
X139228009Y-101747222D01*
X139384534Y-101663557D01*
X139554373Y-101612037D01*
X139620557Y-101605519D01*
X139686740Y-101599000D01*
X140575260Y-101599000D01*
X140641443Y-101605519D01*
G37*
G36*
X143641443Y-101605519D02*
G01*
X143707627Y-101612037D01*
X143877466Y-101663557D01*
X144033991Y-101747222D01*
X144053895Y-101763557D01*
X144171186Y-101859814D01*
X144253253Y-101959814D01*
X144283778Y-101997009D01*
X144367443Y-102153534D01*
X144418963Y-102323373D01*
X144436359Y-102500000D01*
X144418963Y-102676627D01*
X144367443Y-102846466D01*
X144283778Y-103002991D01*
X144254448Y-103038729D01*
X144171186Y-103140186D01*
X144069729Y-103223448D01*
X144033991Y-103252778D01*
X143877466Y-103336443D01*
X143707627Y-103387963D01*
X143641442Y-103394482D01*
X143575260Y-103401000D01*
X142686740Y-103401000D01*
X142620558Y-103394482D01*
X142554373Y-103387963D01*
X142384534Y-103336443D01*
X142228009Y-103252778D01*
X142192271Y-103223448D01*
X142090814Y-103140186D01*
X142007552Y-103038729D01*
X141978222Y-103002991D01*
X141894557Y-102846466D01*
X141843037Y-102676627D01*
X141825641Y-102500000D01*
X141843037Y-102323373D01*
X141894557Y-102153534D01*
X141978222Y-101997009D01*
X142008747Y-101959814D01*
X142090814Y-101859814D01*
X142208105Y-101763557D01*
X142228009Y-101747222D01*
X142384534Y-101663557D01*
X142554373Y-101612037D01*
X142620557Y-101605519D01*
X142686740Y-101599000D01*
X143575260Y-101599000D01*
X143641443Y-101605519D01*
G37*
G36*
X112051000Y-102901000D02*
G01*
X108949000Y-102901000D01*
X108949000Y-100299000D01*
X112051000Y-100299000D01*
X112051000Y-102901000D01*
G37*
G36*
X83189890Y-99874017D02*
G01*
X83308364Y-99923091D01*
X83414988Y-99994335D01*
X83505665Y-100085012D01*
X83576909Y-100191636D01*
X83625983Y-100310110D01*
X83651000Y-100435882D01*
X83651000Y-100564118D01*
X83625983Y-100689890D01*
X83576909Y-100808364D01*
X83505665Y-100914988D01*
X83414988Y-101005665D01*
X83308364Y-101076909D01*
X83308363Y-101076910D01*
X83308362Y-101076910D01*
X83189890Y-101125983D01*
X83064119Y-101151000D01*
X82935881Y-101151000D01*
X82810110Y-101125983D01*
X82691638Y-101076910D01*
X82691637Y-101076910D01*
X82691636Y-101076909D01*
X82585012Y-101005665D01*
X82494335Y-100914988D01*
X82423091Y-100808364D01*
X82374017Y-100689890D01*
X82349000Y-100564118D01*
X82349000Y-100435882D01*
X82374017Y-100310110D01*
X82423091Y-100191636D01*
X82494335Y-100085012D01*
X82585012Y-99994335D01*
X82691636Y-99923091D01*
X82810110Y-99874017D01*
X82935881Y-99849000D01*
X83064119Y-99849000D01*
X83189890Y-99874017D01*
G37*
G36*
X76189890Y-99874017D02*
G01*
X76308364Y-99923091D01*
X76414988Y-99994335D01*
X76505665Y-100085012D01*
X76576909Y-100191636D01*
X76625983Y-100310110D01*
X76651000Y-100435882D01*
X76651000Y-100564118D01*
X76625983Y-100689890D01*
X76576909Y-100808364D01*
X76505665Y-100914988D01*
X76414988Y-101005665D01*
X76308364Y-101076909D01*
X76308363Y-101076910D01*
X76308362Y-101076910D01*
X76189890Y-101125983D01*
X76064119Y-101151000D01*
X75935881Y-101151000D01*
X75810110Y-101125983D01*
X75691638Y-101076910D01*
X75691637Y-101076910D01*
X75691636Y-101076909D01*
X75585012Y-101005665D01*
X75494335Y-100914988D01*
X75423091Y-100808364D01*
X75374017Y-100689890D01*
X75349000Y-100564118D01*
X75349000Y-100435882D01*
X75374017Y-100310110D01*
X75423091Y-100191636D01*
X75494335Y-100085012D01*
X75585012Y-99994335D01*
X75691636Y-99923091D01*
X75810110Y-99874017D01*
X75935881Y-99849000D01*
X76064119Y-99849000D01*
X76189890Y-99874017D01*
G37*
G36*
X138120890Y-99774017D02*
G01*
X138239364Y-99823091D01*
X138345988Y-99894335D01*
X138436665Y-99985012D01*
X138507909Y-100091636D01*
X138556983Y-100210110D01*
X138582000Y-100335882D01*
X138582000Y-100464118D01*
X138556983Y-100589890D01*
X138507909Y-100708364D01*
X138436665Y-100814988D01*
X138345988Y-100905665D01*
X138239364Y-100976909D01*
X138239363Y-100976910D01*
X138239362Y-100976910D01*
X138120890Y-101025983D01*
X137995119Y-101051000D01*
X137866881Y-101051000D01*
X137741110Y-101025983D01*
X137622638Y-100976910D01*
X137622637Y-100976910D01*
X137622636Y-100976909D01*
X137516012Y-100905665D01*
X137425335Y-100814988D01*
X137354091Y-100708364D01*
X137305017Y-100589890D01*
X137280000Y-100464118D01*
X137280000Y-100335882D01*
X137305017Y-100210110D01*
X137354091Y-100091636D01*
X137425335Y-99985012D01*
X137516012Y-99894335D01*
X137622636Y-99823091D01*
X137741110Y-99774017D01*
X137866881Y-99749000D01*
X137995119Y-99749000D01*
X138120890Y-99774017D01*
G37*
G36*
X145120890Y-99774017D02*
G01*
X145239364Y-99823091D01*
X145345988Y-99894335D01*
X145436665Y-99985012D01*
X145507909Y-100091636D01*
X145556983Y-100210110D01*
X145582000Y-100335882D01*
X145582000Y-100464118D01*
X145556983Y-100589890D01*
X145507909Y-100708364D01*
X145436665Y-100814988D01*
X145345988Y-100905665D01*
X145239364Y-100976909D01*
X145239363Y-100976910D01*
X145239362Y-100976910D01*
X145120890Y-101025983D01*
X144995119Y-101051000D01*
X144866881Y-101051000D01*
X144741110Y-101025983D01*
X144622638Y-100976910D01*
X144622637Y-100976910D01*
X144622636Y-100976909D01*
X144516012Y-100905665D01*
X144425335Y-100814988D01*
X144354091Y-100708364D01*
X144305017Y-100589890D01*
X144280000Y-100464118D01*
X144280000Y-100335882D01*
X144305017Y-100210110D01*
X144354091Y-100091636D01*
X144425335Y-99985012D01*
X144516012Y-99894335D01*
X144622636Y-99823091D01*
X144741110Y-99774017D01*
X144866881Y-99749000D01*
X144995119Y-99749000D01*
X145120890Y-99774017D01*
G37*
G36*
X119051000Y-99551000D02*
G01*
X116949000Y-99551000D01*
X116949000Y-97449000D01*
X119051000Y-97449000D01*
X119051000Y-99551000D01*
G37*
G36*
X103806564Y-97489389D02*
G01*
X103985624Y-97563558D01*
X103997835Y-97568616D01*
X104115477Y-97647222D01*
X104169973Y-97683635D01*
X104316365Y-97830027D01*
X104431385Y-98002167D01*
X104510611Y-98193436D01*
X104551000Y-98396484D01*
X104551000Y-98603516D01*
X104510611Y-98806564D01*
X104455263Y-98940186D01*
X104431384Y-98997835D01*
X104316365Y-99169973D01*
X104169973Y-99316365D01*
X103997835Y-99431384D01*
X103997834Y-99431385D01*
X103997833Y-99431385D01*
X103806564Y-99510611D01*
X103603516Y-99551000D01*
X103396484Y-99551000D01*
X103193436Y-99510611D01*
X103002167Y-99431385D01*
X103002166Y-99431385D01*
X103002165Y-99431384D01*
X102830027Y-99316365D01*
X102683635Y-99169973D01*
X102568616Y-98997835D01*
X102544737Y-98940186D01*
X102489389Y-98806564D01*
X102449000Y-98603516D01*
X102449000Y-98396484D01*
X102489389Y-98193436D01*
X102568615Y-98002167D01*
X102683635Y-97830027D01*
X102830027Y-97683635D01*
X102884523Y-97647222D01*
X103002165Y-97568616D01*
X103014376Y-97563558D01*
X103193436Y-97489389D01*
X103396484Y-97449000D01*
X103603516Y-97449000D01*
X103806564Y-97489389D01*
G37*
G36*
X98648228Y-97681703D02*
G01*
X98803100Y-97745853D01*
X98942481Y-97838985D01*
X99061015Y-97957519D01*
X99154147Y-98096900D01*
X99218297Y-98251772D01*
X99251000Y-98416184D01*
X99251000Y-98583816D01*
X99218297Y-98748228D01*
X99154147Y-98903100D01*
X99061015Y-99042481D01*
X98942481Y-99161015D01*
X98803100Y-99254147D01*
X98648228Y-99318297D01*
X98483816Y-99351000D01*
X98316184Y-99351000D01*
X98151772Y-99318297D01*
X97996900Y-99254147D01*
X97857519Y-99161015D01*
X97738985Y-99042481D01*
X97645853Y-98903100D01*
X97581703Y-98748228D01*
X97549000Y-98583816D01*
X97549000Y-98416184D01*
X97581703Y-98251772D01*
X97645853Y-98096900D01*
X97738985Y-97957519D01*
X97857519Y-97838985D01*
X97996900Y-97745853D01*
X98151772Y-97681703D01*
X98316184Y-97649000D01*
X98483816Y-97649000D01*
X98648228Y-97681703D01*
G37*
G36*
X90848228Y-97681703D02*
G01*
X91003100Y-97745853D01*
X91142481Y-97838985D01*
X91261015Y-97957519D01*
X91354147Y-98096900D01*
X91418297Y-98251772D01*
X91451000Y-98416184D01*
X91451000Y-98583816D01*
X91418297Y-98748228D01*
X91354147Y-98903100D01*
X91261015Y-99042481D01*
X91142481Y-99161015D01*
X91003100Y-99254147D01*
X90848228Y-99318297D01*
X90683816Y-99351000D01*
X90516184Y-99351000D01*
X90351772Y-99318297D01*
X90196900Y-99254147D01*
X90057519Y-99161015D01*
X89938985Y-99042481D01*
X89845853Y-98903100D01*
X89781703Y-98748228D01*
X89749000Y-98583816D01*
X89749000Y-98416184D01*
X89781703Y-98251772D01*
X89845853Y-98096900D01*
X89938985Y-97957519D01*
X90057519Y-97838985D01*
X90196900Y-97745853D01*
X90351772Y-97681703D01*
X90516184Y-97649000D01*
X90683816Y-97649000D01*
X90848228Y-97681703D01*
G37*
G36*
X85310442Y-97505518D02*
G01*
X85376627Y-97512037D01*
X85546466Y-97563557D01*
X85702991Y-97647222D01*
X85738729Y-97676552D01*
X85840186Y-97759814D01*
X85897807Y-97830027D01*
X85952778Y-97897009D01*
X85952779Y-97897011D01*
X86008986Y-98002165D01*
X86036443Y-98053534D01*
X86087963Y-98223373D01*
X86105359Y-98400000D01*
X86087963Y-98576627D01*
X86036443Y-98746466D01*
X85952778Y-98902991D01*
X85923448Y-98938729D01*
X85840186Y-99040186D01*
X85738729Y-99123448D01*
X85702991Y-99152778D01*
X85546466Y-99236443D01*
X85376627Y-99287963D01*
X85310443Y-99294481D01*
X85244260Y-99301000D01*
X84355740Y-99301000D01*
X84289558Y-99294482D01*
X84223373Y-99287963D01*
X84053534Y-99236443D01*
X83897009Y-99152778D01*
X83861271Y-99123448D01*
X83759814Y-99040186D01*
X83676552Y-98938729D01*
X83647222Y-98902991D01*
X83563557Y-98746466D01*
X83512037Y-98576627D01*
X83494641Y-98400000D01*
X83512037Y-98223373D01*
X83563557Y-98053534D01*
X83591015Y-98002165D01*
X83647221Y-97897011D01*
X83647222Y-97897009D01*
X83702193Y-97830027D01*
X83759814Y-97759814D01*
X83861271Y-97676552D01*
X83897009Y-97647222D01*
X84053534Y-97563557D01*
X84223373Y-97512037D01*
X84289557Y-97505519D01*
X84355740Y-97499000D01*
X85244260Y-97499000D01*
X85310442Y-97505518D01*
G37*
G36*
X81310442Y-97505518D02*
G01*
X81376627Y-97512037D01*
X81546466Y-97563557D01*
X81702991Y-97647222D01*
X81738729Y-97676552D01*
X81840186Y-97759814D01*
X81897807Y-97830027D01*
X81952778Y-97897009D01*
X81952779Y-97897011D01*
X82008986Y-98002165D01*
X82036443Y-98053534D01*
X82087963Y-98223373D01*
X82105359Y-98400000D01*
X82087963Y-98576627D01*
X82036443Y-98746466D01*
X81952778Y-98902991D01*
X81923448Y-98938729D01*
X81840186Y-99040186D01*
X81738729Y-99123448D01*
X81702991Y-99152778D01*
X81546466Y-99236443D01*
X81376627Y-99287963D01*
X81310443Y-99294481D01*
X81244260Y-99301000D01*
X80355740Y-99301000D01*
X80289558Y-99294482D01*
X80223373Y-99287963D01*
X80053534Y-99236443D01*
X79897009Y-99152778D01*
X79861271Y-99123448D01*
X79759814Y-99040186D01*
X79676552Y-98938729D01*
X79647222Y-98902991D01*
X79563557Y-98746466D01*
X79512037Y-98576627D01*
X79494641Y-98400000D01*
X79512037Y-98223373D01*
X79563557Y-98053534D01*
X79591015Y-98002165D01*
X79647221Y-97897011D01*
X79647222Y-97897009D01*
X79702193Y-97830027D01*
X79759814Y-97759814D01*
X79861271Y-97676552D01*
X79897009Y-97647222D01*
X80053534Y-97563557D01*
X80223373Y-97512037D01*
X80289558Y-97505518D01*
X80355740Y-97499000D01*
X81244260Y-97499000D01*
X81310442Y-97505518D01*
G37*
G36*
X78310442Y-97505518D02*
G01*
X78376627Y-97512037D01*
X78546466Y-97563557D01*
X78702991Y-97647222D01*
X78738729Y-97676552D01*
X78840186Y-97759814D01*
X78897807Y-97830027D01*
X78952778Y-97897009D01*
X78952779Y-97897011D01*
X79008986Y-98002165D01*
X79036443Y-98053534D01*
X79087963Y-98223373D01*
X79105359Y-98400000D01*
X79087963Y-98576627D01*
X79036443Y-98746466D01*
X78952778Y-98902991D01*
X78923448Y-98938729D01*
X78840186Y-99040186D01*
X78738729Y-99123448D01*
X78702991Y-99152778D01*
X78546466Y-99236443D01*
X78376627Y-99287963D01*
X78310443Y-99294481D01*
X78244260Y-99301000D01*
X77355740Y-99301000D01*
X77289558Y-99294482D01*
X77223373Y-99287963D01*
X77053534Y-99236443D01*
X76897009Y-99152778D01*
X76861271Y-99123448D01*
X76759814Y-99040186D01*
X76676552Y-98938729D01*
X76647222Y-98902991D01*
X76563557Y-98746466D01*
X76512037Y-98576627D01*
X76494641Y-98400000D01*
X76512037Y-98223373D01*
X76563557Y-98053534D01*
X76591015Y-98002165D01*
X76647221Y-97897011D01*
X76647222Y-97897009D01*
X76702193Y-97830027D01*
X76759814Y-97759814D01*
X76861271Y-97676552D01*
X76897009Y-97647222D01*
X77053534Y-97563557D01*
X77223373Y-97512037D01*
X77289558Y-97505518D01*
X77355740Y-97499000D01*
X78244260Y-97499000D01*
X78310442Y-97505518D01*
G37*
G36*
X135141442Y-97405518D02*
G01*
X135207627Y-97412037D01*
X135377466Y-97463557D01*
X135533991Y-97547222D01*
X135553895Y-97563557D01*
X135671186Y-97659814D01*
X135741795Y-97745853D01*
X135783778Y-97797009D01*
X135867443Y-97953534D01*
X135918963Y-98123373D01*
X135936359Y-98300000D01*
X135918963Y-98476627D01*
X135867443Y-98646466D01*
X135783778Y-98802991D01*
X135754448Y-98838729D01*
X135671186Y-98940186D01*
X135600939Y-98997835D01*
X135533991Y-99052778D01*
X135377466Y-99136443D01*
X135207627Y-99187963D01*
X135141442Y-99194482D01*
X135075260Y-99201000D01*
X134186740Y-99201000D01*
X134120558Y-99194482D01*
X134054373Y-99187963D01*
X133884534Y-99136443D01*
X133728009Y-99052778D01*
X133661061Y-98997835D01*
X133590814Y-98940186D01*
X133507552Y-98838729D01*
X133478222Y-98802991D01*
X133394557Y-98646466D01*
X133343037Y-98476627D01*
X133325641Y-98300000D01*
X133343037Y-98123373D01*
X133394557Y-97953534D01*
X133478222Y-97797009D01*
X133520205Y-97745853D01*
X133590814Y-97659814D01*
X133708105Y-97563557D01*
X133728009Y-97547222D01*
X133884534Y-97463557D01*
X134054373Y-97412037D01*
X134120558Y-97405518D01*
X134186740Y-97399000D01*
X135075260Y-97399000D01*
X135141442Y-97405518D01*
G37*
G36*
X93951000Y-99151000D02*
G01*
X92349000Y-99151000D01*
X92349000Y-97849000D01*
X93951000Y-97849000D01*
X93951000Y-99151000D01*
G37*
G36*
X96651000Y-99151000D02*
G01*
X95049000Y-99151000D01*
X95049000Y-97849000D01*
X96651000Y-97849000D01*
X96651000Y-99151000D01*
G37*
G36*
X118306564Y-94989389D02*
G01*
X118497833Y-95068615D01*
X118497835Y-95068616D01*
X118669973Y-95183635D01*
X118816365Y-95330027D01*
X118931385Y-95502167D01*
X119010611Y-95693436D01*
X119051000Y-95896484D01*
X119051000Y-96103516D01*
X119010611Y-96306564D01*
X118931385Y-96497833D01*
X118931384Y-96497835D01*
X118816365Y-96669973D01*
X118669973Y-96816365D01*
X118497835Y-96931384D01*
X118497834Y-96931385D01*
X118497833Y-96931385D01*
X118306564Y-97010611D01*
X118103516Y-97051000D01*
X117896484Y-97051000D01*
X117693436Y-97010611D01*
X117502167Y-96931385D01*
X117502166Y-96931385D01*
X117502165Y-96931384D01*
X117330027Y-96816365D01*
X117183635Y-96669973D01*
X117068616Y-96497835D01*
X117068615Y-96497833D01*
X116989389Y-96306564D01*
X116949000Y-96103516D01*
X116949000Y-95896484D01*
X116989389Y-95693436D01*
X117068615Y-95502167D01*
X117183635Y-95330027D01*
X117330027Y-95183635D01*
X117502165Y-95068616D01*
X117502167Y-95068615D01*
X117693436Y-94989389D01*
X117896484Y-94949000D01*
X118103516Y-94949000D01*
X118306564Y-94989389D01*
G37*
G36*
X118306564Y-92489389D02*
G01*
X118497833Y-92568615D01*
X118497835Y-92568616D01*
X118669973Y-92683635D01*
X118816365Y-92830027D01*
X118900030Y-92955240D01*
X118931385Y-93002167D01*
X119010611Y-93193436D01*
X119051000Y-93396484D01*
X119051000Y-93603516D01*
X119010611Y-93806564D01*
X118931385Y-93997833D01*
X118931384Y-93997835D01*
X118816365Y-94169973D01*
X118669973Y-94316365D01*
X118497835Y-94431384D01*
X118497834Y-94431385D01*
X118497833Y-94431385D01*
X118306564Y-94510611D01*
X118103516Y-94551000D01*
X117896484Y-94551000D01*
X117693436Y-94510611D01*
X117502167Y-94431385D01*
X117502166Y-94431385D01*
X117502165Y-94431384D01*
X117330027Y-94316365D01*
X117183635Y-94169973D01*
X117068616Y-93997835D01*
X117068615Y-93997833D01*
X116989389Y-93806564D01*
X116949000Y-93603516D01*
X116949000Y-93396484D01*
X116989389Y-93193436D01*
X117068615Y-93002167D01*
X117099971Y-92955240D01*
X117183635Y-92830027D01*
X117330027Y-92683635D01*
X117502165Y-92568616D01*
X117502167Y-92568615D01*
X117693436Y-92489389D01*
X117896484Y-92449000D01*
X118103516Y-92449000D01*
X118306564Y-92489389D01*
G37*
G36*
X103806564Y-92489389D02*
G01*
X103997833Y-92568615D01*
X103997835Y-92568616D01*
X104169973Y-92683635D01*
X104316365Y-92830027D01*
X104400030Y-92955240D01*
X104431385Y-93002167D01*
X104510611Y-93193436D01*
X104551000Y-93396484D01*
X104551000Y-93603516D01*
X104510611Y-93806564D01*
X104431385Y-93997833D01*
X104431384Y-93997835D01*
X104316365Y-94169973D01*
X104169973Y-94316365D01*
X103997835Y-94431384D01*
X103997834Y-94431385D01*
X103997833Y-94431385D01*
X103806564Y-94510611D01*
X103603516Y-94551000D01*
X103396484Y-94551000D01*
X103193436Y-94510611D01*
X103002167Y-94431385D01*
X103002166Y-94431385D01*
X103002165Y-94431384D01*
X102830027Y-94316365D01*
X102683635Y-94169973D01*
X102568616Y-93997835D01*
X102568615Y-93997833D01*
X102489389Y-93806564D01*
X102449000Y-93603516D01*
X102449000Y-93396484D01*
X102489389Y-93193436D01*
X102568615Y-93002167D01*
X102599971Y-92955240D01*
X102683635Y-92830027D01*
X102830027Y-92683635D01*
X103002165Y-92568616D01*
X103002167Y-92568615D01*
X103193436Y-92489389D01*
X103396484Y-92449000D01*
X103603516Y-92449000D01*
X103806564Y-92489389D01*
G37*
G36*
X93478721Y-92074174D02*
G01*
X93578995Y-92115709D01*
X93578996Y-92115710D01*
X93669242Y-92176010D01*
X93745990Y-92252758D01*
X93745991Y-92252760D01*
X93806291Y-92343005D01*
X93837516Y-92418389D01*
X93849067Y-92440000D01*
X93864612Y-92458941D01*
X93883554Y-92474487D01*
X93905165Y-92486038D01*
X93928614Y-92493151D01*
X93953000Y-92495553D01*
X93977386Y-92493151D01*
X94000835Y-92486038D01*
X94022446Y-92474487D01*
X94041387Y-92458942D01*
X94056933Y-92440000D01*
X94068484Y-92418389D01*
X94099709Y-92343005D01*
X94160009Y-92252760D01*
X94160010Y-92252758D01*
X94236758Y-92176010D01*
X94327004Y-92115710D01*
X94327005Y-92115709D01*
X94427279Y-92074174D01*
X94533730Y-92053000D01*
X94642270Y-92053000D01*
X94748721Y-92074174D01*
X94848995Y-92115709D01*
X94848996Y-92115710D01*
X94939242Y-92176010D01*
X95015990Y-92252758D01*
X95015991Y-92252760D01*
X95076291Y-92343005D01*
X95107516Y-92418389D01*
X95119067Y-92440000D01*
X95134612Y-92458941D01*
X95153554Y-92474487D01*
X95175165Y-92486038D01*
X95198614Y-92493151D01*
X95223000Y-92495553D01*
X95247386Y-92493151D01*
X95270835Y-92486038D01*
X95292446Y-92474487D01*
X95311387Y-92458942D01*
X95326933Y-92440000D01*
X95338484Y-92418389D01*
X95369709Y-92343005D01*
X95430009Y-92252760D01*
X95430010Y-92252758D01*
X95506758Y-92176010D01*
X95597004Y-92115710D01*
X95597005Y-92115709D01*
X95697279Y-92074174D01*
X95803730Y-92053000D01*
X95912270Y-92053000D01*
X96018721Y-92074174D01*
X96118995Y-92115709D01*
X96118996Y-92115710D01*
X96209242Y-92176010D01*
X96285990Y-92252758D01*
X96285991Y-92252760D01*
X96346291Y-92343005D01*
X96377516Y-92418389D01*
X96389067Y-92440000D01*
X96404612Y-92458941D01*
X96423554Y-92474487D01*
X96445165Y-92486038D01*
X96468614Y-92493151D01*
X96493000Y-92495553D01*
X96517386Y-92493151D01*
X96540835Y-92486038D01*
X96562446Y-92474487D01*
X96581387Y-92458942D01*
X96596933Y-92440000D01*
X96608484Y-92418389D01*
X96639709Y-92343005D01*
X96700009Y-92252760D01*
X96700010Y-92252758D01*
X96776758Y-92176010D01*
X96867004Y-92115710D01*
X96867005Y-92115709D01*
X96967279Y-92074174D01*
X97073730Y-92053000D01*
X97182270Y-92053000D01*
X97288721Y-92074174D01*
X97388995Y-92115709D01*
X97388996Y-92115710D01*
X97479242Y-92176010D01*
X97555990Y-92252758D01*
X97555991Y-92252760D01*
X97618068Y-92345664D01*
X97633614Y-92364606D01*
X97652556Y-92380151D01*
X97674167Y-92391702D01*
X97697615Y-92398815D01*
X97722002Y-92401217D01*
X97746388Y-92398815D01*
X97769837Y-92391702D01*
X97791447Y-92380151D01*
X97810389Y-92364605D01*
X97825934Y-92345663D01*
X97837485Y-92324052D01*
X97844598Y-92300604D01*
X97847000Y-92276218D01*
X97847000Y-92053000D01*
X98949000Y-92053000D01*
X98949000Y-93155000D01*
X97847000Y-93155000D01*
X97847000Y-92931782D01*
X97844598Y-92907396D01*
X97837485Y-92883947D01*
X97825934Y-92862336D01*
X97810389Y-92843394D01*
X97791447Y-92827849D01*
X97769836Y-92816298D01*
X97746387Y-92809185D01*
X97722001Y-92806783D01*
X97697615Y-92809185D01*
X97674166Y-92816298D01*
X97652555Y-92827849D01*
X97633613Y-92843394D01*
X97618068Y-92862336D01*
X97576988Y-92923816D01*
X97555990Y-92955242D01*
X97479242Y-93031990D01*
X97433812Y-93062345D01*
X97388995Y-93092291D01*
X97288721Y-93133826D01*
X97182270Y-93155000D01*
X97073730Y-93155000D01*
X96967279Y-93133826D01*
X96867005Y-93092291D01*
X96822188Y-93062345D01*
X96776758Y-93031990D01*
X96700010Y-92955242D01*
X96668041Y-92907396D01*
X96639709Y-92864995D01*
X96608484Y-92789611D01*
X96596933Y-92768000D01*
X96581388Y-92749059D01*
X96562446Y-92733513D01*
X96540835Y-92721962D01*
X96517386Y-92714849D01*
X96493000Y-92712447D01*
X96468614Y-92714849D01*
X96445165Y-92721962D01*
X96423554Y-92733513D01*
X96404613Y-92749058D01*
X96389067Y-92768000D01*
X96377516Y-92789611D01*
X96346291Y-92864995D01*
X96317959Y-92907396D01*
X96285990Y-92955242D01*
X96209242Y-93031990D01*
X96163812Y-93062345D01*
X96118995Y-93092291D01*
X96018721Y-93133826D01*
X95912270Y-93155000D01*
X95803730Y-93155000D01*
X95697279Y-93133826D01*
X95597005Y-93092291D01*
X95552188Y-93062345D01*
X95506758Y-93031990D01*
X95430010Y-92955242D01*
X95398041Y-92907396D01*
X95369709Y-92864995D01*
X95338484Y-92789611D01*
X95326933Y-92768000D01*
X95311388Y-92749059D01*
X95292446Y-92733513D01*
X95270835Y-92721962D01*
X95247386Y-92714849D01*
X95223000Y-92712447D01*
X95198614Y-92714849D01*
X95175165Y-92721962D01*
X95153554Y-92733513D01*
X95134613Y-92749058D01*
X95119067Y-92768000D01*
X95107516Y-92789611D01*
X95076291Y-92864995D01*
X95047959Y-92907396D01*
X95015990Y-92955242D01*
X94939242Y-93031990D01*
X94893812Y-93062345D01*
X94848995Y-93092291D01*
X94748721Y-93133826D01*
X94642270Y-93155000D01*
X94533730Y-93155000D01*
X94427279Y-93133826D01*
X94327005Y-93092291D01*
X94282188Y-93062345D01*
X94236758Y-93031990D01*
X94160010Y-92955242D01*
X94128041Y-92907396D01*
X94099709Y-92864995D01*
X94068484Y-92789611D01*
X94056933Y-92768000D01*
X94041388Y-92749059D01*
X94022446Y-92733513D01*
X94000835Y-92721962D01*
X93977386Y-92714849D01*
X93953000Y-92712447D01*
X93928614Y-92714849D01*
X93905165Y-92721962D01*
X93883554Y-92733513D01*
X93864613Y-92749058D01*
X93849067Y-92768000D01*
X93837516Y-92789611D01*
X93806291Y-92864995D01*
X93777959Y-92907396D01*
X93745990Y-92955242D01*
X93669242Y-93031990D01*
X93623812Y-93062345D01*
X93578995Y-93092291D01*
X93478721Y-93133826D01*
X93372270Y-93155000D01*
X93263730Y-93155000D01*
X93157279Y-93133826D01*
X93057005Y-93092291D01*
X93012188Y-93062345D01*
X92966758Y-93031990D01*
X92890010Y-92955242D01*
X92858041Y-92907396D01*
X92829709Y-92864995D01*
X92788174Y-92764721D01*
X92767000Y-92658270D01*
X92767000Y-92549730D01*
X92788174Y-92443279D01*
X92829709Y-92343005D01*
X92890009Y-92252760D01*
X92890010Y-92252758D01*
X92966758Y-92176010D01*
X93057004Y-92115710D01*
X93057005Y-92115709D01*
X93157279Y-92074174D01*
X93263730Y-92053000D01*
X93372270Y-92053000D01*
X93478721Y-92074174D01*
G37*
G36*
X112051000Y-91701000D02*
G01*
X108949000Y-91701000D01*
X108949000Y-89099000D01*
X112051000Y-89099000D01*
X112051000Y-91701000D01*
G37*
G36*
X130348542Y-85680242D02*
G01*
X130496501Y-85741529D01*
X130629655Y-85830499D01*
X130742901Y-85943745D01*
X130831871Y-86076899D01*
X130893158Y-86224858D01*
X130924400Y-86381925D01*
X130924400Y-86542075D01*
X130893158Y-86699142D01*
X130831871Y-86847101D01*
X130742901Y-86980255D01*
X130629655Y-87093501D01*
X130496501Y-87182471D01*
X130348542Y-87243758D01*
X130191475Y-87275000D01*
X130031325Y-87275000D01*
X129874258Y-87243758D01*
X129726299Y-87182471D01*
X129593145Y-87093501D01*
X129479899Y-86980255D01*
X129390929Y-86847101D01*
X129329642Y-86699142D01*
X129298400Y-86542075D01*
X129298400Y-86381925D01*
X129329642Y-86224858D01*
X129390929Y-86076899D01*
X129479899Y-85943745D01*
X129593145Y-85830499D01*
X129726299Y-85741529D01*
X129874258Y-85680242D01*
X130031325Y-85649000D01*
X130191475Y-85649000D01*
X130348542Y-85680242D01*
G37*
G36*
X115128542Y-85680242D02*
G01*
X115276501Y-85741529D01*
X115409655Y-85830499D01*
X115522901Y-85943745D01*
X115611871Y-86076899D01*
X115673158Y-86224858D01*
X115704400Y-86381925D01*
X115704400Y-86542075D01*
X115673158Y-86699142D01*
X115611871Y-86847101D01*
X115522901Y-86980255D01*
X115409655Y-87093501D01*
X115276501Y-87182471D01*
X115128542Y-87243758D01*
X114971475Y-87275000D01*
X114811325Y-87275000D01*
X114654258Y-87243758D01*
X114506299Y-87182471D01*
X114373145Y-87093501D01*
X114259899Y-86980255D01*
X114170929Y-86847101D01*
X114109642Y-86699142D01*
X114078400Y-86542075D01*
X114078400Y-86381925D01*
X114109642Y-86224858D01*
X114170929Y-86076899D01*
X114259899Y-85943745D01*
X114373145Y-85830499D01*
X114506299Y-85741529D01*
X114654258Y-85680242D01*
X114811325Y-85649000D01*
X114971475Y-85649000D01*
X115128542Y-85680242D01*
G37*
G36*
X94357395Y-85085546D02*
G01*
X94530466Y-85157234D01*
X94530467Y-85157235D01*
X94686227Y-85261310D01*
X94818690Y-85393773D01*
X94818691Y-85393775D01*
X94922766Y-85549534D01*
X94994454Y-85722605D01*
X95031000Y-85906333D01*
X95031000Y-86093667D01*
X94994454Y-86277395D01*
X94922766Y-86450466D01*
X94922765Y-86450467D01*
X94818690Y-86606227D01*
X94686227Y-86738690D01*
X94607818Y-86791081D01*
X94530466Y-86842766D01*
X94357395Y-86914454D01*
X94173667Y-86951000D01*
X93986333Y-86951000D01*
X93802605Y-86914454D01*
X93629534Y-86842766D01*
X93552182Y-86791081D01*
X93473773Y-86738690D01*
X93341310Y-86606227D01*
X93237235Y-86450467D01*
X93237234Y-86450466D01*
X93165546Y-86277395D01*
X93129000Y-86093667D01*
X93129000Y-85906333D01*
X93165546Y-85722605D01*
X93237234Y-85549534D01*
X93341309Y-85393775D01*
X93341310Y-85393773D01*
X93473773Y-85261310D01*
X93629533Y-85157235D01*
X93629534Y-85157234D01*
X93802605Y-85085546D01*
X93986333Y-85049000D01*
X94173667Y-85049000D01*
X94357395Y-85085546D01*
G37*
G36*
X99437395Y-85085546D02*
G01*
X99610466Y-85157234D01*
X99610467Y-85157235D01*
X99766227Y-85261310D01*
X99898690Y-85393773D01*
X99898691Y-85393775D01*
X100002766Y-85549534D01*
X100074454Y-85722605D01*
X100111000Y-85906333D01*
X100111000Y-86093667D01*
X100074454Y-86277395D01*
X100002766Y-86450466D01*
X100002765Y-86450467D01*
X99898690Y-86606227D01*
X99766227Y-86738690D01*
X99687818Y-86791081D01*
X99610466Y-86842766D01*
X99437395Y-86914454D01*
X99253667Y-86951000D01*
X99066333Y-86951000D01*
X98882605Y-86914454D01*
X98709534Y-86842766D01*
X98632182Y-86791081D01*
X98553773Y-86738690D01*
X98421310Y-86606227D01*
X98317235Y-86450467D01*
X98317234Y-86450466D01*
X98245546Y-86277395D01*
X98209000Y-86093667D01*
X98209000Y-85906333D01*
X98245546Y-85722605D01*
X98317234Y-85549534D01*
X98421309Y-85393775D01*
X98421310Y-85393773D01*
X98553773Y-85261310D01*
X98709533Y-85157235D01*
X98709534Y-85157234D01*
X98882605Y-85085546D01*
X99066333Y-85049000D01*
X99253667Y-85049000D01*
X99437395Y-85085546D01*
G37*
G36*
X96897395Y-85085546D02*
G01*
X97070466Y-85157234D01*
X97070467Y-85157235D01*
X97226227Y-85261310D01*
X97358690Y-85393773D01*
X97358691Y-85393775D01*
X97462766Y-85549534D01*
X97534454Y-85722605D01*
X97571000Y-85906333D01*
X97571000Y-86093667D01*
X97534454Y-86277395D01*
X97462766Y-86450466D01*
X97462765Y-86450467D01*
X97358690Y-86606227D01*
X97226227Y-86738690D01*
X97147818Y-86791081D01*
X97070466Y-86842766D01*
X96897395Y-86914454D01*
X96713667Y-86951000D01*
X96526333Y-86951000D01*
X96342605Y-86914454D01*
X96169534Y-86842766D01*
X96092182Y-86791081D01*
X96013773Y-86738690D01*
X95881310Y-86606227D01*
X95777235Y-86450467D01*
X95777234Y-86450466D01*
X95705546Y-86277395D01*
X95669000Y-86093667D01*
X95669000Y-85906333D01*
X95705546Y-85722605D01*
X95777234Y-85549534D01*
X95881309Y-85393775D01*
X95881310Y-85393773D01*
X96013773Y-85261310D01*
X96169533Y-85157235D01*
X96169534Y-85157234D01*
X96342605Y-85085546D01*
X96526333Y-85049000D01*
X96713667Y-85049000D01*
X96897395Y-85085546D01*
G37*
G36*
X91817395Y-85085546D02*
G01*
X91990466Y-85157234D01*
X91990467Y-85157235D01*
X92146227Y-85261310D01*
X92278690Y-85393773D01*
X92278691Y-85393775D01*
X92382766Y-85549534D01*
X92454454Y-85722605D01*
X92491000Y-85906333D01*
X92491000Y-86093667D01*
X92454454Y-86277395D01*
X92382766Y-86450466D01*
X92382765Y-86450467D01*
X92278690Y-86606227D01*
X92146227Y-86738690D01*
X92067818Y-86791081D01*
X91990466Y-86842766D01*
X91817395Y-86914454D01*
X91633667Y-86951000D01*
X91446333Y-86951000D01*
X91262605Y-86914454D01*
X91089534Y-86842766D01*
X91012182Y-86791081D01*
X90933773Y-86738690D01*
X90801310Y-86606227D01*
X90697235Y-86450467D01*
X90697234Y-86450466D01*
X90625546Y-86277395D01*
X90589000Y-86093667D01*
X90589000Y-85906333D01*
X90625546Y-85722605D01*
X90697234Y-85549534D01*
X90801309Y-85393775D01*
X90801310Y-85393773D01*
X90933773Y-85261310D01*
X91089533Y-85157235D01*
X91089534Y-85157234D01*
X91262605Y-85085546D01*
X91446333Y-85049000D01*
X91633667Y-85049000D01*
X91817395Y-85085546D01*
G37*
G36*
X89813000Y-86813000D02*
G01*
X88187000Y-86813000D01*
X88187000Y-85187000D01*
X89813000Y-85187000D01*
X89813000Y-86813000D01*
G37*
G36*
X130348542Y-83140242D02*
G01*
X130496501Y-83201529D01*
X130629655Y-83290499D01*
X130742901Y-83403745D01*
X130831871Y-83536899D01*
X130893158Y-83684858D01*
X130924400Y-83841925D01*
X130924400Y-84002075D01*
X130893158Y-84159142D01*
X130831871Y-84307101D01*
X130742901Y-84440255D01*
X130629655Y-84553501D01*
X130496501Y-84642471D01*
X130348542Y-84703758D01*
X130191475Y-84735000D01*
X130031325Y-84735000D01*
X129874258Y-84703758D01*
X129726299Y-84642471D01*
X129593145Y-84553501D01*
X129479899Y-84440255D01*
X129390929Y-84307101D01*
X129329642Y-84159142D01*
X129298400Y-84002075D01*
X129298400Y-83841925D01*
X129329642Y-83684858D01*
X129390929Y-83536899D01*
X129479899Y-83403745D01*
X129593145Y-83290499D01*
X129726299Y-83201529D01*
X129874258Y-83140242D01*
X130031325Y-83109000D01*
X130191475Y-83109000D01*
X130348542Y-83140242D01*
G37*
G36*
X115128542Y-83140242D02*
G01*
X115276501Y-83201529D01*
X115409655Y-83290499D01*
X115522901Y-83403745D01*
X115611871Y-83536899D01*
X115673158Y-83684858D01*
X115704400Y-83841925D01*
X115704400Y-84002075D01*
X115673158Y-84159142D01*
X115611871Y-84307101D01*
X115522901Y-84440255D01*
X115409655Y-84553501D01*
X115276501Y-84642471D01*
X115128542Y-84703758D01*
X114971475Y-84735000D01*
X114811325Y-84735000D01*
X114654258Y-84703758D01*
X114506299Y-84642471D01*
X114373145Y-84553501D01*
X114259899Y-84440255D01*
X114170929Y-84307101D01*
X114109642Y-84159142D01*
X114078400Y-84002075D01*
X114078400Y-83841925D01*
X114109642Y-83684858D01*
X114170929Y-83536899D01*
X114259899Y-83403745D01*
X114373145Y-83290499D01*
X114506299Y-83201529D01*
X114654258Y-83140242D01*
X114811325Y-83109000D01*
X114971475Y-83109000D01*
X115128542Y-83140242D01*
G37*
G36*
X141806564Y-80489389D02*
G01*
X141997833Y-80568615D01*
X141997835Y-80568616D01*
X142045168Y-80600243D01*
X142169973Y-80683635D01*
X142316365Y-80830027D01*
X142431385Y-81002167D01*
X142510611Y-81193436D01*
X142551000Y-81396484D01*
X142551000Y-81603516D01*
X142510611Y-81806564D01*
X142471803Y-81900255D01*
X142431384Y-81997835D01*
X142316365Y-82169973D01*
X142169973Y-82316365D01*
X141997835Y-82431384D01*
X141997834Y-82431385D01*
X141997833Y-82431385D01*
X141806564Y-82510611D01*
X141603516Y-82551000D01*
X141396484Y-82551000D01*
X141193436Y-82510611D01*
X141002167Y-82431385D01*
X141002166Y-82431385D01*
X141002165Y-82431384D01*
X140830027Y-82316365D01*
X140683635Y-82169973D01*
X140568616Y-81997835D01*
X140528197Y-81900255D01*
X140489389Y-81806564D01*
X140449000Y-81603516D01*
X140449000Y-81396484D01*
X140489389Y-81193436D01*
X140568615Y-81002167D01*
X140683635Y-80830027D01*
X140830027Y-80683635D01*
X140954832Y-80600243D01*
X141002165Y-80568616D01*
X141002167Y-80568615D01*
X141193436Y-80489389D01*
X141396484Y-80449000D01*
X141603516Y-80449000D01*
X141806564Y-80489389D01*
G37*
G36*
X82306564Y-80489389D02*
G01*
X82497833Y-80568615D01*
X82497835Y-80568616D01*
X82545168Y-80600243D01*
X82669973Y-80683635D01*
X82816365Y-80830027D01*
X82931385Y-81002167D01*
X83010611Y-81193436D01*
X83051000Y-81396484D01*
X83051000Y-81603516D01*
X83010611Y-81806564D01*
X82971803Y-81900255D01*
X82931384Y-81997835D01*
X82816365Y-82169973D01*
X82669973Y-82316365D01*
X82497835Y-82431384D01*
X82497834Y-82431385D01*
X82497833Y-82431385D01*
X82306564Y-82510611D01*
X82103516Y-82551000D01*
X81896484Y-82551000D01*
X81693436Y-82510611D01*
X81502167Y-82431385D01*
X81502166Y-82431385D01*
X81502165Y-82431384D01*
X81330027Y-82316365D01*
X81183635Y-82169973D01*
X81068616Y-81997835D01*
X81028197Y-81900255D01*
X80989389Y-81806564D01*
X80949000Y-81603516D01*
X80949000Y-81396484D01*
X80989389Y-81193436D01*
X81068615Y-81002167D01*
X81183635Y-80830027D01*
X81330027Y-80683635D01*
X81454832Y-80600243D01*
X81502165Y-80568616D01*
X81502167Y-80568615D01*
X81693436Y-80489389D01*
X81896484Y-80449000D01*
X82103516Y-80449000D01*
X82306564Y-80489389D01*
G37*
G36*
X80551000Y-82551000D02*
G01*
X78449000Y-82551000D01*
X78449000Y-80449000D01*
X80551000Y-80449000D01*
X80551000Y-82551000D01*
G37*
G36*
X137551000Y-82551000D02*
G01*
X135449000Y-82551000D01*
X135449000Y-80449000D01*
X137551000Y-80449000D01*
X137551000Y-82551000D01*
G37*
G36*
X139306564Y-80489389D02*
G01*
X139497833Y-80568615D01*
X139497835Y-80568616D01*
X139545168Y-80600243D01*
X139669973Y-80683635D01*
X139816365Y-80830027D01*
X139931385Y-81002167D01*
X140010611Y-81193436D01*
X140051000Y-81396484D01*
X140051000Y-81603516D01*
X140010611Y-81806564D01*
X139971803Y-81900255D01*
X139931384Y-81997835D01*
X139816365Y-82169973D01*
X139669973Y-82316365D01*
X139497835Y-82431384D01*
X139497834Y-82431385D01*
X139497833Y-82431385D01*
X139306564Y-82510611D01*
X139103516Y-82551000D01*
X138896484Y-82551000D01*
X138693436Y-82510611D01*
X138502167Y-82431385D01*
X138502166Y-82431385D01*
X138502165Y-82431384D01*
X138330027Y-82316365D01*
X138183635Y-82169973D01*
X138068616Y-81997835D01*
X138028197Y-81900255D01*
X137989389Y-81806564D01*
X137949000Y-81603516D01*
X137949000Y-81396484D01*
X137989389Y-81193436D01*
X138068615Y-81002167D01*
X138183635Y-80830027D01*
X138330027Y-80683635D01*
X138454832Y-80600243D01*
X138502165Y-80568616D01*
X138502167Y-80568615D01*
X138693436Y-80489389D01*
X138896484Y-80449000D01*
X139103516Y-80449000D01*
X139306564Y-80489389D01*
G37*
G36*
X84806564Y-80489389D02*
G01*
X84997833Y-80568615D01*
X84997835Y-80568616D01*
X85045168Y-80600243D01*
X85169973Y-80683635D01*
X85316365Y-80830027D01*
X85431385Y-81002167D01*
X85510611Y-81193436D01*
X85551000Y-81396484D01*
X85551000Y-81603516D01*
X85510611Y-81806564D01*
X85471803Y-81900255D01*
X85431384Y-81997835D01*
X85316365Y-82169973D01*
X85169973Y-82316365D01*
X84997835Y-82431384D01*
X84997834Y-82431385D01*
X84997833Y-82431385D01*
X84806564Y-82510611D01*
X84603516Y-82551000D01*
X84396484Y-82551000D01*
X84193436Y-82510611D01*
X84002167Y-82431385D01*
X84002166Y-82431385D01*
X84002165Y-82431384D01*
X83830027Y-82316365D01*
X83683635Y-82169973D01*
X83568616Y-81997835D01*
X83528197Y-81900255D01*
X83489389Y-81806564D01*
X83449000Y-81603516D01*
X83449000Y-81396484D01*
X83489389Y-81193436D01*
X83568615Y-81002167D01*
X83683635Y-80830027D01*
X83830027Y-80683635D01*
X83954832Y-80600243D01*
X84002165Y-80568616D01*
X84002167Y-80568615D01*
X84193436Y-80489389D01*
X84396484Y-80449000D01*
X84603516Y-80449000D01*
X84806564Y-80489389D01*
G37*
G36*
X115128542Y-80600242D02*
G01*
X115276501Y-80661529D01*
X115409655Y-80750499D01*
X115522901Y-80863745D01*
X115611871Y-80996899D01*
X115673158Y-81144858D01*
X115704400Y-81301925D01*
X115704400Y-81462075D01*
X115673158Y-81619142D01*
X115611871Y-81767101D01*
X115522901Y-81900255D01*
X115409655Y-82013501D01*
X115276501Y-82102471D01*
X115128542Y-82163758D01*
X114971475Y-82195000D01*
X114811325Y-82195000D01*
X114654258Y-82163758D01*
X114506299Y-82102471D01*
X114373145Y-82013501D01*
X114259899Y-81900255D01*
X114170929Y-81767101D01*
X114109642Y-81619142D01*
X114078400Y-81462075D01*
X114078400Y-81301925D01*
X114109642Y-81144858D01*
X114170929Y-80996899D01*
X114259899Y-80863745D01*
X114373145Y-80750499D01*
X114506299Y-80661529D01*
X114654258Y-80600242D01*
X114811325Y-80569000D01*
X114971475Y-80569000D01*
X115128542Y-80600242D01*
G37*
G36*
X130348542Y-80600242D02*
G01*
X130496501Y-80661529D01*
X130629655Y-80750499D01*
X130742901Y-80863745D01*
X130831871Y-80996899D01*
X130893158Y-81144858D01*
X130924400Y-81301925D01*
X130924400Y-81462075D01*
X130893158Y-81619142D01*
X130831871Y-81767101D01*
X130742901Y-81900255D01*
X130629655Y-82013501D01*
X130496501Y-82102471D01*
X130348542Y-82163758D01*
X130191475Y-82195000D01*
X130031325Y-82195000D01*
X129874258Y-82163758D01*
X129726299Y-82102471D01*
X129593145Y-82013501D01*
X129479899Y-81900255D01*
X129390929Y-81767101D01*
X129329642Y-81619142D01*
X129298400Y-81462075D01*
X129298400Y-81301925D01*
X129329642Y-81144858D01*
X129390929Y-80996899D01*
X129479899Y-80863745D01*
X129593145Y-80750499D01*
X129726299Y-80661529D01*
X129874258Y-80600242D01*
X130031325Y-80569000D01*
X130191475Y-80569000D01*
X130348542Y-80600242D01*
G37*
G36*
X130348542Y-78060242D02*
G01*
X130496501Y-78121529D01*
X130629655Y-78210499D01*
X130742901Y-78323745D01*
X130831871Y-78456899D01*
X130893158Y-78604858D01*
X130924400Y-78761925D01*
X130924400Y-78922075D01*
X130893158Y-79079142D01*
X130831871Y-79227101D01*
X130742901Y-79360255D01*
X130629655Y-79473501D01*
X130496501Y-79562471D01*
X130348542Y-79623758D01*
X130191475Y-79655000D01*
X130031325Y-79655000D01*
X129874258Y-79623758D01*
X129726299Y-79562471D01*
X129593145Y-79473501D01*
X129479899Y-79360255D01*
X129390929Y-79227101D01*
X129329642Y-79079142D01*
X129298400Y-78922075D01*
X129298400Y-78761925D01*
X129329642Y-78604858D01*
X129390929Y-78456899D01*
X129479899Y-78323745D01*
X129593145Y-78210499D01*
X129726299Y-78121529D01*
X129874258Y-78060242D01*
X130031325Y-78029000D01*
X130191475Y-78029000D01*
X130348542Y-78060242D01*
G37*
G36*
X115128542Y-78060242D02*
G01*
X115276501Y-78121529D01*
X115409655Y-78210499D01*
X115522901Y-78323745D01*
X115611871Y-78456899D01*
X115673158Y-78604858D01*
X115704400Y-78761925D01*
X115704400Y-78922075D01*
X115673158Y-79079142D01*
X115611871Y-79227101D01*
X115522901Y-79360255D01*
X115409655Y-79473501D01*
X115276501Y-79562471D01*
X115128542Y-79623758D01*
X114971475Y-79655000D01*
X114811325Y-79655000D01*
X114654258Y-79623758D01*
X114506299Y-79562471D01*
X114373145Y-79473501D01*
X114259899Y-79360255D01*
X114170929Y-79227101D01*
X114109642Y-79079142D01*
X114078400Y-78922075D01*
X114078400Y-78761925D01*
X114109642Y-78604858D01*
X114170929Y-78456899D01*
X114259899Y-78323745D01*
X114373145Y-78210499D01*
X114506299Y-78121529D01*
X114654258Y-78060242D01*
X114811325Y-78029000D01*
X114971475Y-78029000D01*
X115128542Y-78060242D01*
G37*
G36*
X115128542Y-75520242D02*
G01*
X115276501Y-75581529D01*
X115409655Y-75670499D01*
X115522901Y-75783745D01*
X115611871Y-75916899D01*
X115673158Y-76064858D01*
X115704400Y-76221925D01*
X115704400Y-76382075D01*
X115673158Y-76539142D01*
X115611871Y-76687101D01*
X115522901Y-76820255D01*
X115409655Y-76933501D01*
X115276501Y-77022471D01*
X115128542Y-77083758D01*
X114971475Y-77115000D01*
X114811325Y-77115000D01*
X114654258Y-77083758D01*
X114506299Y-77022471D01*
X114373145Y-76933501D01*
X114259899Y-76820255D01*
X114170929Y-76687101D01*
X114109642Y-76539142D01*
X114078400Y-76382075D01*
X114078400Y-76221925D01*
X114109642Y-76064858D01*
X114170929Y-75916899D01*
X114259899Y-75783745D01*
X114373145Y-75670499D01*
X114506299Y-75581529D01*
X114654258Y-75520242D01*
X114811325Y-75489000D01*
X114971475Y-75489000D01*
X115128542Y-75520242D01*
G37*
G36*
X130348542Y-75520242D02*
G01*
X130496501Y-75581529D01*
X130629655Y-75670499D01*
X130742901Y-75783745D01*
X130831871Y-75916899D01*
X130893158Y-76064858D01*
X130924400Y-76221925D01*
X130924400Y-76382075D01*
X130893158Y-76539142D01*
X130831871Y-76687101D01*
X130742901Y-76820255D01*
X130629655Y-76933501D01*
X130496501Y-77022471D01*
X130348542Y-77083758D01*
X130191475Y-77115000D01*
X130031325Y-77115000D01*
X129874258Y-77083758D01*
X129726299Y-77022471D01*
X129593145Y-76933501D01*
X129479899Y-76820255D01*
X129390929Y-76687101D01*
X129329642Y-76539142D01*
X129298400Y-76382075D01*
X129298400Y-76221925D01*
X129329642Y-76064858D01*
X129390929Y-75916899D01*
X129479899Y-75783745D01*
X129593145Y-75670499D01*
X129726299Y-75581529D01*
X129874258Y-75520242D01*
X130031325Y-75489000D01*
X130191475Y-75489000D01*
X130348542Y-75520242D01*
G37*
G36*
X134701000Y-75551000D02*
G01*
X132099000Y-75551000D01*
X132099000Y-72449000D01*
X134701000Y-72449000D01*
X134701000Y-75551000D01*
G37*
G36*
X77701000Y-75551000D02*
G01*
X75099000Y-75551000D01*
X75099000Y-72449000D01*
X77701000Y-72449000D01*
X77701000Y-75551000D01*
G37*
G36*
X88901000Y-75551000D02*
G01*
X86299000Y-75551000D01*
X86299000Y-72449000D01*
X88901000Y-72449000D01*
X88901000Y-75551000D01*
G37*
G36*
X145901000Y-75551000D02*
G01*
X143299000Y-75551000D01*
X143299000Y-72449000D01*
X145901000Y-72449000D01*
X145901000Y-75551000D01*
G37*
G36*
X130348542Y-72980242D02*
G01*
X130496501Y-73041529D01*
X130629655Y-73130499D01*
X130742901Y-73243745D01*
X130831871Y-73376899D01*
X130893158Y-73524858D01*
X130924400Y-73681925D01*
X130924400Y-73842075D01*
X130893158Y-73999142D01*
X130831871Y-74147101D01*
X130742901Y-74280255D01*
X130629655Y-74393501D01*
X130496501Y-74482471D01*
X130348542Y-74543758D01*
X130191475Y-74575000D01*
X130031325Y-74575000D01*
X129874258Y-74543758D01*
X129726299Y-74482471D01*
X129593145Y-74393501D01*
X129479899Y-74280255D01*
X129390929Y-74147101D01*
X129329642Y-73999142D01*
X129298400Y-73842075D01*
X129298400Y-73681925D01*
X129329642Y-73524858D01*
X129390929Y-73376899D01*
X129479899Y-73243745D01*
X129593145Y-73130499D01*
X129726299Y-73041529D01*
X129874258Y-72980242D01*
X130031325Y-72949000D01*
X130191475Y-72949000D01*
X130348542Y-72980242D01*
G37*
G36*
X115128542Y-72980242D02*
G01*
X115276501Y-73041529D01*
X115409655Y-73130499D01*
X115522901Y-73243745D01*
X115611871Y-73376899D01*
X115673158Y-73524858D01*
X115704400Y-73681925D01*
X115704400Y-73842075D01*
X115673158Y-73999142D01*
X115611871Y-74147101D01*
X115522901Y-74280255D01*
X115409655Y-74393501D01*
X115276501Y-74482471D01*
X115128542Y-74543758D01*
X114971475Y-74575000D01*
X114811325Y-74575000D01*
X114654258Y-74543758D01*
X114506299Y-74482471D01*
X114373145Y-74393501D01*
X114259899Y-74280255D01*
X114170929Y-74147101D01*
X114109642Y-73999142D01*
X114078400Y-73842075D01*
X114078400Y-73681925D01*
X114109642Y-73524858D01*
X114170929Y-73376899D01*
X114259899Y-73243745D01*
X114373145Y-73130499D01*
X114506299Y-73041529D01*
X114654258Y-72980242D01*
X114811325Y-72949000D01*
X114971475Y-72949000D01*
X115128542Y-72980242D01*
G37*
G36*
X115128542Y-70440242D02*
G01*
X115276501Y-70501529D01*
X115409655Y-70590499D01*
X115522901Y-70703745D01*
X115611871Y-70836899D01*
X115673158Y-70984858D01*
X115704400Y-71141925D01*
X115704400Y-71302075D01*
X115673158Y-71459142D01*
X115611871Y-71607101D01*
X115522901Y-71740255D01*
X115409655Y-71853501D01*
X115276501Y-71942471D01*
X115128542Y-72003758D01*
X114971475Y-72035000D01*
X114811325Y-72035000D01*
X114654258Y-72003758D01*
X114506299Y-71942471D01*
X114373145Y-71853501D01*
X114259899Y-71740255D01*
X114170929Y-71607101D01*
X114109642Y-71459142D01*
X114078400Y-71302075D01*
X114078400Y-71141925D01*
X114109642Y-70984858D01*
X114170929Y-70836899D01*
X114259899Y-70703745D01*
X114373145Y-70590499D01*
X114506299Y-70501529D01*
X114654258Y-70440242D01*
X114811325Y-70409000D01*
X114971475Y-70409000D01*
X115128542Y-70440242D01*
G37*
G36*
X130348542Y-70440242D02*
G01*
X130496501Y-70501529D01*
X130629655Y-70590499D01*
X130742901Y-70703745D01*
X130831871Y-70836899D01*
X130893158Y-70984858D01*
X130924400Y-71141925D01*
X130924400Y-71302075D01*
X130893158Y-71459142D01*
X130831871Y-71607101D01*
X130742901Y-71740255D01*
X130629655Y-71853501D01*
X130496501Y-71942471D01*
X130348542Y-72003758D01*
X130191475Y-72035000D01*
X130031325Y-72035000D01*
X129874258Y-72003758D01*
X129726299Y-71942471D01*
X129593145Y-71853501D01*
X129479899Y-71740255D01*
X129390929Y-71607101D01*
X129329642Y-71459142D01*
X129298400Y-71302075D01*
X129298400Y-71141925D01*
X129329642Y-70984858D01*
X129390929Y-70836899D01*
X129479899Y-70703745D01*
X129593145Y-70590499D01*
X129726299Y-70501529D01*
X129874258Y-70440242D01*
X130031325Y-70409000D01*
X130191475Y-70409000D01*
X130348542Y-70440242D01*
G37*
G36*
X115128542Y-67900242D02*
G01*
X115276501Y-67961529D01*
X115409655Y-68050499D01*
X115522901Y-68163745D01*
X115611871Y-68296899D01*
X115673158Y-68444858D01*
X115704400Y-68601925D01*
X115704400Y-68762075D01*
X115673158Y-68919142D01*
X115611871Y-69067101D01*
X115522901Y-69200255D01*
X115409655Y-69313501D01*
X115276501Y-69402471D01*
X115128542Y-69463758D01*
X114971475Y-69495000D01*
X114811325Y-69495000D01*
X114654258Y-69463758D01*
X114506299Y-69402471D01*
X114373145Y-69313501D01*
X114259899Y-69200255D01*
X114170929Y-69067101D01*
X114109642Y-68919142D01*
X114078400Y-68762075D01*
X114078400Y-68601925D01*
X114109642Y-68444858D01*
X114170929Y-68296899D01*
X114259899Y-68163745D01*
X114373145Y-68050499D01*
X114506299Y-67961529D01*
X114654258Y-67900242D01*
X114811325Y-67869000D01*
X114971475Y-67869000D01*
X115128542Y-67900242D01*
G37*
G36*
X130348542Y-67900242D02*
G01*
X130496501Y-67961529D01*
X130629655Y-68050499D01*
X130742901Y-68163745D01*
X130831871Y-68296899D01*
X130893158Y-68444858D01*
X130924400Y-68601925D01*
X130924400Y-68762075D01*
X130893158Y-68919142D01*
X130831871Y-69067101D01*
X130742901Y-69200255D01*
X130629655Y-69313501D01*
X130496501Y-69402471D01*
X130348542Y-69463758D01*
X130191475Y-69495000D01*
X130031325Y-69495000D01*
X129874258Y-69463758D01*
X129726299Y-69402471D01*
X129593145Y-69313501D01*
X129479899Y-69200255D01*
X129390929Y-69067101D01*
X129329642Y-68919142D01*
X129298400Y-68762075D01*
X129298400Y-68601925D01*
X129329642Y-68444858D01*
X129390929Y-68296899D01*
X129479899Y-68163745D01*
X129593145Y-68050499D01*
X129726299Y-67961529D01*
X129874258Y-67900242D01*
X130031325Y-67869000D01*
X130191475Y-67869000D01*
X130348542Y-67900242D01*
G37*
G36*
X79806564Y-65989389D02*
G01*
X79981684Y-66061926D01*
X79997835Y-66068616D01*
X80169973Y-66183635D01*
X80316365Y-66330027D01*
X80431385Y-66502167D01*
X80510611Y-66693436D01*
X80551000Y-66896484D01*
X80551000Y-67103516D01*
X80510611Y-67306564D01*
X80431385Y-67497833D01*
X80431384Y-67497835D01*
X80316365Y-67669973D01*
X80169973Y-67816365D01*
X79997835Y-67931384D01*
X79997834Y-67931385D01*
X79997833Y-67931385D01*
X79806564Y-68010611D01*
X79603516Y-68051000D01*
X79396484Y-68051000D01*
X79193436Y-68010611D01*
X79002167Y-67931385D01*
X79002166Y-67931385D01*
X79002165Y-67931384D01*
X78830027Y-67816365D01*
X78683635Y-67669973D01*
X78568616Y-67497835D01*
X78568615Y-67497833D01*
X78489389Y-67306564D01*
X78449000Y-67103516D01*
X78449000Y-66896484D01*
X78489389Y-66693436D01*
X78568615Y-66502167D01*
X78683635Y-66330027D01*
X78830027Y-66183635D01*
X79002165Y-66068616D01*
X79018316Y-66061926D01*
X79193436Y-65989389D01*
X79396484Y-65949000D01*
X79603516Y-65949000D01*
X79806564Y-65989389D01*
G37*
G36*
X84806564Y-65989389D02*
G01*
X84981684Y-66061926D01*
X84997835Y-66068616D01*
X85169973Y-66183635D01*
X85316365Y-66330027D01*
X85431385Y-66502167D01*
X85510611Y-66693436D01*
X85551000Y-66896484D01*
X85551000Y-67103516D01*
X85510611Y-67306564D01*
X85431385Y-67497833D01*
X85431384Y-67497835D01*
X85316365Y-67669973D01*
X85169973Y-67816365D01*
X84997835Y-67931384D01*
X84997834Y-67931385D01*
X84997833Y-67931385D01*
X84806564Y-68010611D01*
X84603516Y-68051000D01*
X84396484Y-68051000D01*
X84193436Y-68010611D01*
X84002167Y-67931385D01*
X84002166Y-67931385D01*
X84002165Y-67931384D01*
X83830027Y-67816365D01*
X83683635Y-67669973D01*
X83568616Y-67497835D01*
X83568615Y-67497833D01*
X83489389Y-67306564D01*
X83449000Y-67103516D01*
X83449000Y-66896484D01*
X83489389Y-66693436D01*
X83568615Y-66502167D01*
X83683635Y-66330027D01*
X83830027Y-66183635D01*
X84002165Y-66068616D01*
X84018316Y-66061926D01*
X84193436Y-65989389D01*
X84396484Y-65949000D01*
X84603516Y-65949000D01*
X84806564Y-65989389D01*
G37*
G36*
X136806564Y-65989389D02*
G01*
X136981684Y-66061926D01*
X136997835Y-66068616D01*
X137169973Y-66183635D01*
X137316365Y-66330027D01*
X137431385Y-66502167D01*
X137510611Y-66693436D01*
X137551000Y-66896484D01*
X137551000Y-67103516D01*
X137510611Y-67306564D01*
X137431385Y-67497833D01*
X137431384Y-67497835D01*
X137316365Y-67669973D01*
X137169973Y-67816365D01*
X136997835Y-67931384D01*
X136997834Y-67931385D01*
X136997833Y-67931385D01*
X136806564Y-68010611D01*
X136603516Y-68051000D01*
X136396484Y-68051000D01*
X136193436Y-68010611D01*
X136002167Y-67931385D01*
X136002166Y-67931385D01*
X136002165Y-67931384D01*
X135830027Y-67816365D01*
X135683635Y-67669973D01*
X135568616Y-67497835D01*
X135568615Y-67497833D01*
X135489389Y-67306564D01*
X135449000Y-67103516D01*
X135449000Y-66896484D01*
X135489389Y-66693436D01*
X135568615Y-66502167D01*
X135683635Y-66330027D01*
X135830027Y-66183635D01*
X136002165Y-66068616D01*
X136018316Y-66061926D01*
X136193436Y-65989389D01*
X136396484Y-65949000D01*
X136603516Y-65949000D01*
X136806564Y-65989389D01*
G37*
G36*
X141806564Y-65989389D02*
G01*
X141981684Y-66061926D01*
X141997835Y-66068616D01*
X142169973Y-66183635D01*
X142316365Y-66330027D01*
X142431385Y-66502167D01*
X142510611Y-66693436D01*
X142551000Y-66896484D01*
X142551000Y-67103516D01*
X142510611Y-67306564D01*
X142431385Y-67497833D01*
X142431384Y-67497835D01*
X142316365Y-67669973D01*
X142169973Y-67816365D01*
X141997835Y-67931384D01*
X141997834Y-67931385D01*
X141997833Y-67931385D01*
X141806564Y-68010611D01*
X141603516Y-68051000D01*
X141396484Y-68051000D01*
X141193436Y-68010611D01*
X141002167Y-67931385D01*
X141002166Y-67931385D01*
X141002165Y-67931384D01*
X140830027Y-67816365D01*
X140683635Y-67669973D01*
X140568616Y-67497835D01*
X140568615Y-67497833D01*
X140489389Y-67306564D01*
X140449000Y-67103516D01*
X140449000Y-66896484D01*
X140489389Y-66693436D01*
X140568615Y-66502167D01*
X140683635Y-66330027D01*
X140830027Y-66183635D01*
X141002165Y-66068616D01*
X141018316Y-66061926D01*
X141193436Y-65989389D01*
X141396484Y-65949000D01*
X141603516Y-65949000D01*
X141806564Y-65989389D01*
G37*
G36*
X130348542Y-65360242D02*
G01*
X130496501Y-65421529D01*
X130629655Y-65510499D01*
X130742901Y-65623745D01*
X130831871Y-65756899D01*
X130893158Y-65904858D01*
X130924400Y-66061925D01*
X130924400Y-66222075D01*
X130893158Y-66379142D01*
X130831871Y-66527101D01*
X130742901Y-66660255D01*
X130629655Y-66773501D01*
X130496501Y-66862471D01*
X130348542Y-66923758D01*
X130191475Y-66955000D01*
X130031325Y-66955000D01*
X129874258Y-66923758D01*
X129726299Y-66862471D01*
X129593145Y-66773501D01*
X129479899Y-66660255D01*
X129390929Y-66527101D01*
X129329642Y-66379142D01*
X129298400Y-66222075D01*
X129298400Y-66061925D01*
X129329642Y-65904858D01*
X129390929Y-65756899D01*
X129479899Y-65623745D01*
X129593145Y-65510499D01*
X129726299Y-65421529D01*
X129874258Y-65360242D01*
X130031325Y-65329000D01*
X130191475Y-65329000D01*
X130348542Y-65360242D01*
G37*
G36*
X115128542Y-65360242D02*
G01*
X115276501Y-65421529D01*
X115409655Y-65510499D01*
X115522901Y-65623745D01*
X115611871Y-65756899D01*
X115673158Y-65904858D01*
X115704400Y-66061925D01*
X115704400Y-66222075D01*
X115673158Y-66379142D01*
X115611871Y-66527101D01*
X115522901Y-66660255D01*
X115409655Y-66773501D01*
X115276501Y-66862471D01*
X115128542Y-66923758D01*
X114971475Y-66955000D01*
X114811325Y-66955000D01*
X114654258Y-66923758D01*
X114506299Y-66862471D01*
X114373145Y-66773501D01*
X114259899Y-66660255D01*
X114170929Y-66527101D01*
X114109642Y-66379142D01*
X114078400Y-66222075D01*
X114078400Y-66061925D01*
X114109642Y-65904858D01*
X114170929Y-65756899D01*
X114259899Y-65623745D01*
X114373145Y-65510499D01*
X114506299Y-65421529D01*
X114654258Y-65360242D01*
X114811325Y-65329000D01*
X114971475Y-65329000D01*
X115128542Y-65360242D01*
G37*
G36*
X109951000Y-64451000D02*
G01*
X108049000Y-64451000D01*
X108049000Y-62549000D01*
X109951000Y-62549000D01*
X109951000Y-64451000D01*
G37*
G36*
X111817395Y-62585546D02*
G01*
X111990466Y-62657234D01*
X111990467Y-62657235D01*
X112146227Y-62761310D01*
X112278690Y-62893773D01*
X112321284Y-62957520D01*
X112382766Y-63049534D01*
X112454454Y-63222605D01*
X112491000Y-63406333D01*
X112491000Y-63593667D01*
X112454454Y-63777395D01*
X112382766Y-63950466D01*
X112382765Y-63950467D01*
X112278690Y-64106227D01*
X112146227Y-64238690D01*
X112123092Y-64254148D01*
X111990466Y-64342766D01*
X111817395Y-64414454D01*
X111633667Y-64451000D01*
X111446333Y-64451000D01*
X111262605Y-64414454D01*
X111089534Y-64342766D01*
X110956908Y-64254148D01*
X110933773Y-64238690D01*
X110801310Y-64106227D01*
X110697235Y-63950467D01*
X110697234Y-63950466D01*
X110625546Y-63777395D01*
X110589000Y-63593667D01*
X110589000Y-63406333D01*
X110625546Y-63222605D01*
X110697234Y-63049534D01*
X110758716Y-62957520D01*
X110801310Y-62893773D01*
X110933773Y-62761310D01*
X111089533Y-62657235D01*
X111089534Y-62657234D01*
X111262605Y-62585546D01*
X111446333Y-62549000D01*
X111633667Y-62549000D01*
X111817395Y-62585546D01*
G37*
G36*
X130348542Y-62820242D02*
G01*
X130496501Y-62881529D01*
X130629655Y-62970499D01*
X130742901Y-63083745D01*
X130831871Y-63216899D01*
X130893158Y-63364858D01*
X130924400Y-63521925D01*
X130924400Y-63682075D01*
X130893158Y-63839142D01*
X130831871Y-63987101D01*
X130742901Y-64120255D01*
X130629655Y-64233501D01*
X130496501Y-64322471D01*
X130348542Y-64383758D01*
X130191475Y-64415000D01*
X130031325Y-64415000D01*
X129874258Y-64383758D01*
X129726299Y-64322471D01*
X129593145Y-64233501D01*
X129479899Y-64120255D01*
X129390929Y-63987101D01*
X129329642Y-63839142D01*
X129298400Y-63682075D01*
X129298400Y-63521925D01*
X129329642Y-63364858D01*
X129390929Y-63216899D01*
X129479899Y-63083745D01*
X129593145Y-62970499D01*
X129726299Y-62881529D01*
X129874258Y-62820242D01*
X130031325Y-62789000D01*
X130191475Y-62789000D01*
X130348542Y-62820242D01*
G37*
G36*
X115128542Y-62820242D02*
G01*
X115276501Y-62881529D01*
X115409655Y-62970499D01*
X115522901Y-63083745D01*
X115611871Y-63216899D01*
X115673158Y-63364858D01*
X115704400Y-63521925D01*
X115704400Y-63682075D01*
X115673158Y-63839142D01*
X115611871Y-63987101D01*
X115522901Y-64120255D01*
X115409655Y-64233501D01*
X115276501Y-64322471D01*
X115128542Y-64383758D01*
X114971475Y-64415000D01*
X114811325Y-64415000D01*
X114654258Y-64383758D01*
X114506299Y-64322471D01*
X114373145Y-64233501D01*
X114259899Y-64120255D01*
X114170929Y-63987101D01*
X114109642Y-63839142D01*
X114078400Y-63682075D01*
X114078400Y-63521925D01*
X114109642Y-63364858D01*
X114170929Y-63216899D01*
X114259899Y-63083745D01*
X114373145Y-62970499D01*
X114506299Y-62881529D01*
X114654258Y-62820242D01*
X114811325Y-62789000D01*
X114971475Y-62789000D01*
X115128542Y-62820242D01*
G37*
G36*
X78098228Y-62681703D02*
G01*
X78253100Y-62745853D01*
X78392481Y-62838985D01*
X78511015Y-62957519D01*
X78604147Y-63096900D01*
X78668297Y-63251772D01*
X78701000Y-63416184D01*
X78701000Y-63583816D01*
X78668297Y-63748228D01*
X78604147Y-63903100D01*
X78511015Y-64042481D01*
X78392481Y-64161015D01*
X78253100Y-64254147D01*
X78098228Y-64318297D01*
X77933816Y-64351000D01*
X77766184Y-64351000D01*
X77601772Y-64318297D01*
X77446900Y-64254147D01*
X77307519Y-64161015D01*
X77188985Y-64042481D01*
X77095853Y-63903100D01*
X77031703Y-63748228D01*
X76999000Y-63583816D01*
X76999000Y-63416184D01*
X77031703Y-63251772D01*
X77095853Y-63096900D01*
X77188985Y-62957519D01*
X77307519Y-62838985D01*
X77446900Y-62745853D01*
X77601772Y-62681703D01*
X77766184Y-62649000D01*
X77933816Y-62649000D01*
X78098228Y-62681703D01*
G37*
G36*
X143148228Y-62681703D02*
G01*
X143303100Y-62745853D01*
X143442481Y-62838985D01*
X143561015Y-62957519D01*
X143654147Y-63096900D01*
X143718297Y-63251772D01*
X143751000Y-63416184D01*
X143751000Y-63583816D01*
X143718297Y-63748228D01*
X143654147Y-63903100D01*
X143561015Y-64042481D01*
X143442481Y-64161015D01*
X143303100Y-64254147D01*
X143148228Y-64318297D01*
X142983816Y-64351000D01*
X142816184Y-64351000D01*
X142651772Y-64318297D01*
X142496900Y-64254147D01*
X142357519Y-64161015D01*
X142238985Y-64042481D01*
X142145853Y-63903100D01*
X142081703Y-63748228D01*
X142049000Y-63583816D01*
X142049000Y-63416184D01*
X142081703Y-63251772D01*
X142145853Y-63096900D01*
X142238985Y-62957519D01*
X142357519Y-62838985D01*
X142496900Y-62745853D01*
X142651772Y-62681703D01*
X142816184Y-62649000D01*
X142983816Y-62649000D01*
X143148228Y-62681703D01*
G37*
G36*
X85898228Y-62681703D02*
G01*
X86053100Y-62745853D01*
X86192481Y-62838985D01*
X86311015Y-62957519D01*
X86404147Y-63096900D01*
X86468297Y-63251772D01*
X86501000Y-63416184D01*
X86501000Y-63583816D01*
X86468297Y-63748228D01*
X86404147Y-63903100D01*
X86311015Y-64042481D01*
X86192481Y-64161015D01*
X86053100Y-64254147D01*
X85898228Y-64318297D01*
X85733816Y-64351000D01*
X85566184Y-64351000D01*
X85401772Y-64318297D01*
X85246900Y-64254147D01*
X85107519Y-64161015D01*
X84988985Y-64042481D01*
X84895853Y-63903100D01*
X84831703Y-63748228D01*
X84799000Y-63583816D01*
X84799000Y-63416184D01*
X84831703Y-63251772D01*
X84895853Y-63096900D01*
X84988985Y-62957519D01*
X85107519Y-62838985D01*
X85246900Y-62745853D01*
X85401772Y-62681703D01*
X85566184Y-62649000D01*
X85733816Y-62649000D01*
X85898228Y-62681703D01*
G37*
G36*
X135348228Y-62681703D02*
G01*
X135503100Y-62745853D01*
X135642481Y-62838985D01*
X135761015Y-62957519D01*
X135854147Y-63096900D01*
X135918297Y-63251772D01*
X135951000Y-63416184D01*
X135951000Y-63583816D01*
X135918297Y-63748228D01*
X135854147Y-63903100D01*
X135761015Y-64042481D01*
X135642481Y-64161015D01*
X135503100Y-64254147D01*
X135348228Y-64318297D01*
X135183816Y-64351000D01*
X135016184Y-64351000D01*
X134851772Y-64318297D01*
X134696900Y-64254147D01*
X134557519Y-64161015D01*
X134438985Y-64042481D01*
X134345853Y-63903100D01*
X134281703Y-63748228D01*
X134249000Y-63583816D01*
X134249000Y-63416184D01*
X134281703Y-63251772D01*
X134345853Y-63096900D01*
X134438985Y-62957519D01*
X134557519Y-62838985D01*
X134696900Y-62745853D01*
X134851772Y-62681703D01*
X135016184Y-62649000D01*
X135183816Y-62649000D01*
X135348228Y-62681703D01*
G37*
G36*
X106148228Y-62681703D02*
G01*
X106303100Y-62745853D01*
X106442481Y-62838985D01*
X106561015Y-62957519D01*
X106654147Y-63096900D01*
X106718297Y-63251772D01*
X106751000Y-63416184D01*
X106751000Y-63583816D01*
X106718297Y-63748228D01*
X106654147Y-63903100D01*
X106561015Y-64042481D01*
X106442481Y-64161015D01*
X106303100Y-64254147D01*
X106148228Y-64318297D01*
X105983816Y-64351000D01*
X105816184Y-64351000D01*
X105651772Y-64318297D01*
X105496900Y-64254147D01*
X105357519Y-64161015D01*
X105238985Y-64042481D01*
X105145853Y-63903100D01*
X105081703Y-63748228D01*
X105049000Y-63583816D01*
X105049000Y-63416184D01*
X105081703Y-63251772D01*
X105145853Y-63096900D01*
X105238985Y-62957519D01*
X105357519Y-62838985D01*
X105496900Y-62745853D01*
X105651772Y-62681703D01*
X105816184Y-62649000D01*
X105983816Y-62649000D01*
X106148228Y-62681703D01*
G37*
G36*
X98348228Y-62681703D02*
G01*
X98503100Y-62745853D01*
X98642481Y-62838985D01*
X98761015Y-62957519D01*
X98854147Y-63096900D01*
X98918297Y-63251772D01*
X98951000Y-63416184D01*
X98951000Y-63583816D01*
X98918297Y-63748228D01*
X98854147Y-63903100D01*
X98761015Y-64042481D01*
X98642481Y-64161015D01*
X98503100Y-64254147D01*
X98348228Y-64318297D01*
X98183816Y-64351000D01*
X98016184Y-64351000D01*
X97851772Y-64318297D01*
X97696900Y-64254147D01*
X97557519Y-64161015D01*
X97438985Y-64042481D01*
X97345853Y-63903100D01*
X97281703Y-63748228D01*
X97249000Y-63583816D01*
X97249000Y-63416184D01*
X97281703Y-63251772D01*
X97345853Y-63096900D01*
X97438985Y-62957519D01*
X97557519Y-62838985D01*
X97696900Y-62745853D01*
X97851772Y-62681703D01*
X98016184Y-62649000D01*
X98183816Y-62649000D01*
X98348228Y-62681703D01*
G37*
G36*
X141151000Y-64151000D02*
G01*
X139549000Y-64151000D01*
X139549000Y-62849000D01*
X141151000Y-62849000D01*
X141151000Y-64151000D01*
G37*
G36*
X101451000Y-64151000D02*
G01*
X99849000Y-64151000D01*
X99849000Y-62849000D01*
X101451000Y-62849000D01*
X101451000Y-64151000D01*
G37*
G36*
X138451000Y-64151000D02*
G01*
X136849000Y-64151000D01*
X136849000Y-62849000D01*
X138451000Y-62849000D01*
X138451000Y-64151000D01*
G37*
G36*
X104151000Y-64151000D02*
G01*
X102549000Y-64151000D01*
X102549000Y-62849000D01*
X104151000Y-62849000D01*
X104151000Y-64151000D01*
G37*
G36*
X83901000Y-64151000D02*
G01*
X82299000Y-64151000D01*
X82299000Y-62849000D01*
X83901000Y-62849000D01*
X83901000Y-64151000D01*
G37*
G36*
X81201000Y-64151000D02*
G01*
X79599000Y-64151000D01*
X79599000Y-62849000D01*
X81201000Y-62849000D01*
X81201000Y-64151000D01*
G37*
G36*
X115128542Y-60280242D02*
G01*
X115276501Y-60341529D01*
X115409655Y-60430499D01*
X115522901Y-60543745D01*
X115611871Y-60676899D01*
X115673158Y-60824858D01*
X115704400Y-60981925D01*
X115704400Y-61142075D01*
X115673158Y-61299142D01*
X115611871Y-61447101D01*
X115522901Y-61580255D01*
X115409655Y-61693501D01*
X115276501Y-61782471D01*
X115128542Y-61843758D01*
X114971475Y-61875000D01*
X114811325Y-61875000D01*
X114654258Y-61843758D01*
X114506299Y-61782471D01*
X114373145Y-61693501D01*
X114259899Y-61580255D01*
X114170929Y-61447101D01*
X114109642Y-61299142D01*
X114078400Y-61142075D01*
X114078400Y-60981925D01*
X114109642Y-60824858D01*
X114170929Y-60676899D01*
X114259899Y-60543745D01*
X114373145Y-60430499D01*
X114506299Y-60341529D01*
X114654258Y-60280242D01*
X114811325Y-60249000D01*
X114971475Y-60249000D01*
X115128542Y-60280242D01*
G37*
G36*
X130348542Y-60280242D02*
G01*
X130496501Y-60341529D01*
X130629655Y-60430499D01*
X130742901Y-60543745D01*
X130831871Y-60676899D01*
X130893158Y-60824858D01*
X130924400Y-60981925D01*
X130924400Y-61142075D01*
X130893158Y-61299142D01*
X130831871Y-61447101D01*
X130742901Y-61580255D01*
X130629655Y-61693501D01*
X130496501Y-61782471D01*
X130348542Y-61843758D01*
X130191475Y-61875000D01*
X130031325Y-61875000D01*
X129874258Y-61843758D01*
X129726299Y-61782471D01*
X129593145Y-61693501D01*
X129479899Y-61580255D01*
X129390929Y-61447101D01*
X129329642Y-61299142D01*
X129298400Y-61142075D01*
X129298400Y-60981925D01*
X129329642Y-60824858D01*
X129390929Y-60676899D01*
X129479899Y-60543745D01*
X129593145Y-60430499D01*
X129726299Y-60341529D01*
X129874258Y-60280242D01*
X130031325Y-60249000D01*
X130191475Y-60249000D01*
X130348542Y-60280242D01*
G37*
G36*
X97214794Y-58920155D02*
G01*
X97321150Y-58941311D01*
X97421334Y-58982809D01*
X97521520Y-59024307D01*
X97701844Y-59144795D01*
X97855205Y-59298156D01*
X97975693Y-59478480D01*
X98012047Y-59566246D01*
X98058689Y-59678850D01*
X98101000Y-59891561D01*
X98101000Y-60108439D01*
X98058689Y-60321150D01*
X98023699Y-60405622D01*
X97975693Y-60521520D01*
X97855205Y-60701844D01*
X97701844Y-60855205D01*
X97521520Y-60975693D01*
X97321150Y-61058689D01*
X97214795Y-61079844D01*
X97108440Y-61101000D01*
X96891560Y-61101000D01*
X96785205Y-61079844D01*
X96678850Y-61058689D01*
X96478480Y-60975693D01*
X96298156Y-60855205D01*
X96144795Y-60701844D01*
X96024307Y-60521520D01*
X95976301Y-60405622D01*
X95941311Y-60321150D01*
X95899000Y-60108439D01*
X95899000Y-59891561D01*
X95941311Y-59678850D01*
X95987953Y-59566246D01*
X96024307Y-59478480D01*
X96144795Y-59298156D01*
X96298156Y-59144795D01*
X96478480Y-59024307D01*
X96578666Y-58982809D01*
X96678850Y-58941311D01*
X96785206Y-58920155D01*
X96891560Y-58899000D01*
X97108440Y-58899000D01*
X97214794Y-58920155D01*
G37*
G36*
X90204794Y-58920155D02*
G01*
X90311150Y-58941311D01*
X90411334Y-58982809D01*
X90511520Y-59024307D01*
X90691844Y-59144795D01*
X90845205Y-59298156D01*
X90965693Y-59478480D01*
X91002047Y-59566246D01*
X91048689Y-59678850D01*
X91091000Y-59891561D01*
X91091000Y-60108439D01*
X91048689Y-60321150D01*
X91013699Y-60405622D01*
X90965693Y-60521520D01*
X90845205Y-60701844D01*
X90691844Y-60855205D01*
X90511520Y-60975693D01*
X90311150Y-61058689D01*
X90204795Y-61079844D01*
X90098440Y-61101000D01*
X89881560Y-61101000D01*
X89775205Y-61079844D01*
X89668850Y-61058689D01*
X89468480Y-60975693D01*
X89288156Y-60855205D01*
X89134795Y-60701844D01*
X89014307Y-60521520D01*
X88966301Y-60405622D01*
X88931311Y-60321150D01*
X88889000Y-60108439D01*
X88889000Y-59891561D01*
X88931311Y-59678850D01*
X88977953Y-59566246D01*
X89014307Y-59478480D01*
X89134795Y-59298156D01*
X89288156Y-59144795D01*
X89468480Y-59024307D01*
X89568666Y-58982809D01*
X89668850Y-58941311D01*
X89775206Y-58920155D01*
X89881560Y-58899000D01*
X90098440Y-58899000D01*
X90204794Y-58920155D01*
G37*
G36*
X142775880Y-56259776D02*
G01*
X143156593Y-56335504D01*
X143566249Y-56505189D01*
X143934929Y-56751534D01*
X144248466Y-57065071D01*
X144494811Y-57433751D01*
X144664496Y-57843407D01*
X144751000Y-58278296D01*
X144751000Y-58721704D01*
X144664496Y-59156593D01*
X144494811Y-59566249D01*
X144248466Y-59934929D01*
X143934929Y-60248466D01*
X143566249Y-60494811D01*
X143156593Y-60664496D01*
X142775880Y-60740224D01*
X142721705Y-60751000D01*
X142278295Y-60751000D01*
X142224120Y-60740224D01*
X141843407Y-60664496D01*
X141433751Y-60494811D01*
X141065071Y-60248466D01*
X140751534Y-59934929D01*
X140505189Y-59566249D01*
X140335504Y-59156593D01*
X140249000Y-58721704D01*
X140249000Y-58278296D01*
X140335504Y-57843407D01*
X140505189Y-57433751D01*
X140751534Y-57065071D01*
X141065071Y-56751534D01*
X141433751Y-56505189D01*
X141843407Y-56335504D01*
X142224120Y-56259776D01*
X142278295Y-56249000D01*
X142721705Y-56249000D01*
X142775880Y-56259776D01*
G37*
G36*
X78775880Y-56259776D02*
G01*
X79156593Y-56335504D01*
X79566249Y-56505189D01*
X79934929Y-56751534D01*
X80248466Y-57065071D01*
X80494811Y-57433751D01*
X80664496Y-57843407D01*
X80751000Y-58278296D01*
X80751000Y-58721704D01*
X80664496Y-59156593D01*
X80494811Y-59566249D01*
X80248466Y-59934929D01*
X79934929Y-60248466D01*
X79566249Y-60494811D01*
X79156593Y-60664496D01*
X78775880Y-60740224D01*
X78721705Y-60751000D01*
X78278295Y-60751000D01*
X78224120Y-60740224D01*
X77843407Y-60664496D01*
X77433751Y-60494811D01*
X77065071Y-60248466D01*
X76751534Y-59934929D01*
X76505189Y-59566249D01*
X76335504Y-59156593D01*
X76249000Y-58721704D01*
X76249000Y-58278296D01*
X76335504Y-57843407D01*
X76505189Y-57433751D01*
X76751534Y-57065071D01*
X77065071Y-56751534D01*
X77433751Y-56505189D01*
X77843407Y-56335504D01*
X78224120Y-56259776D01*
X78278295Y-56249000D01*
X78721705Y-56249000D01*
X78775880Y-56259776D01*
G37*
G36*
X130348542Y-57740242D02*
G01*
X130496501Y-57801529D01*
X130629655Y-57890499D01*
X130742901Y-58003745D01*
X130831871Y-58136899D01*
X130893158Y-58284858D01*
X130924400Y-58441925D01*
X130924400Y-58602075D01*
X130893158Y-58759142D01*
X130831871Y-58907101D01*
X130742901Y-59040255D01*
X130629655Y-59153501D01*
X130496501Y-59242471D01*
X130348542Y-59303758D01*
X130191475Y-59335000D01*
X130031325Y-59335000D01*
X129874258Y-59303758D01*
X129726299Y-59242471D01*
X129593145Y-59153501D01*
X129479899Y-59040255D01*
X129390929Y-58907101D01*
X129329642Y-58759142D01*
X129298400Y-58602075D01*
X129298400Y-58441925D01*
X129329642Y-58284858D01*
X129390929Y-58136899D01*
X129479899Y-58003745D01*
X129593145Y-57890499D01*
X129726299Y-57801529D01*
X129874258Y-57740242D01*
X130031325Y-57709000D01*
X130191475Y-57709000D01*
X130348542Y-57740242D01*
G37*
G36*
X115128542Y-57740242D02*
G01*
X115276501Y-57801529D01*
X115409655Y-57890499D01*
X115522901Y-58003745D01*
X115611871Y-58136899D01*
X115673158Y-58284858D01*
X115704400Y-58441925D01*
X115704400Y-58602075D01*
X115673158Y-58759142D01*
X115611871Y-58907101D01*
X115522901Y-59040255D01*
X115409655Y-59153501D01*
X115276501Y-59242471D01*
X115128542Y-59303758D01*
X114971475Y-59335000D01*
X114811325Y-59335000D01*
X114654258Y-59303758D01*
X114506299Y-59242471D01*
X114373145Y-59153501D01*
X114259899Y-59040255D01*
X114170929Y-58907101D01*
X114109642Y-58759142D01*
X114078400Y-58602075D01*
X114078400Y-58441925D01*
X114109642Y-58284858D01*
X114170929Y-58136899D01*
X114259899Y-58003745D01*
X114373145Y-57890499D01*
X114506299Y-57801529D01*
X114654258Y-57740242D01*
X114811325Y-57709000D01*
X114971475Y-57709000D01*
X115128542Y-57740242D01*
G37*
G36*
X91510104Y-56619585D02*
G01*
X91678626Y-56689389D01*
X91830291Y-56790728D01*
X91959272Y-56919709D01*
X92060611Y-57071374D01*
X92130415Y-57239896D01*
X92166000Y-57418797D01*
X92166000Y-57601203D01*
X92130415Y-57780104D01*
X92060611Y-57948626D01*
X91959272Y-58100291D01*
X91830291Y-58229272D01*
X91678626Y-58330611D01*
X91510104Y-58400415D01*
X91331203Y-58436000D01*
X91148797Y-58436000D01*
X90969896Y-58400415D01*
X90801374Y-58330611D01*
X90649709Y-58229272D01*
X90520728Y-58100291D01*
X90419389Y-57948626D01*
X90349585Y-57780104D01*
X90314000Y-57601203D01*
X90314000Y-57418797D01*
X90349585Y-57239896D01*
X90419389Y-57071374D01*
X90520728Y-56919709D01*
X90649709Y-56790728D01*
X90801374Y-56689389D01*
X90969896Y-56619585D01*
X91148797Y-56584000D01*
X91331203Y-56584000D01*
X91510104Y-56619585D01*
G37*
G36*
X96010104Y-56619585D02*
G01*
X96178626Y-56689389D01*
X96330291Y-56790728D01*
X96459272Y-56919709D01*
X96560611Y-57071374D01*
X96630415Y-57239896D01*
X96666000Y-57418797D01*
X96666000Y-57601203D01*
X96630415Y-57780104D01*
X96560611Y-57948626D01*
X96459272Y-58100291D01*
X96330291Y-58229272D01*
X96178626Y-58330611D01*
X96010104Y-58400415D01*
X95831203Y-58436000D01*
X95648797Y-58436000D01*
X95469896Y-58400415D01*
X95301374Y-58330611D01*
X95149709Y-58229272D01*
X95020728Y-58100291D01*
X94919389Y-57948626D01*
X94849585Y-57780104D01*
X94814000Y-57601203D01*
X94814000Y-57418797D01*
X94849585Y-57239896D01*
X94919389Y-57071374D01*
X95020728Y-56919709D01*
X95149709Y-56790728D01*
X95301374Y-56689389D01*
X95469896Y-56619585D01*
X95648797Y-56584000D01*
X95831203Y-56584000D01*
X96010104Y-56619585D01*
G37*
M02*
