M48
; DRILL file {KiCad 5.1.5+dfsg1-2build2} date 2021年03月25日 10時04分02秒
; FORMAT={-:-/ absolute / inch / decimal}
; #@! TF.CreationDate,2021-03-25T10:04:02+09:00
; #@! TF.GenerationSoftware,Kicad,Pcbnew,5.1.5+dfsg1-2build2
FMAT,2
INCH
T1C0.0157
T2C0.0256
T3C0.0320
T4C0.0335
T5C0.0354
T6C0.0390
T7C0.0394
T8C0.0472
T9C0.0512
T10C0.0787
T11C0.0866
T12C0.0394
T13C0.0472
T14C0.0748
T15C0.1575
%
G90
G05
T1
X3.189Y-5.561
X5.5315Y-4.1634
X5.5315Y-5.1083
X5.5453Y-2.3031
X5.5643Y-2.2572
X5.5643Y-2.3491
X5.6102Y-2.2382
X5.6102Y-2.3681
X5.6562Y-2.2572
X5.6562Y-2.3491
X5.6752Y-2.3031
X3.0256Y-5.2756
X3.0446Y-5.2297
X3.0446Y-5.3215
X3.0906Y-5.2106
X3.0906Y-5.3406
X3.1365Y-5.2297
X3.1365Y-5.3215
X3.1555Y-5.2756
X5.5453Y-5.2756
X5.5643Y-5.2297
X5.5643Y-5.3215
X5.6102Y-5.2106
X5.6102Y-5.3406
X5.6562Y-5.2297
X5.6562Y-5.3215
X5.6752Y-5.2756
X3.0256Y-2.3031
X3.0446Y-2.2572
X3.0446Y-2.3491
X3.0906Y-2.2382
X3.0906Y-2.3681
X3.1365Y-2.2572
X3.1365Y-2.3491
X3.1555Y-2.3031
T2
X3.6739Y-3.6458
X3.7239Y-3.6458
X3.7739Y-3.6458
X3.8239Y-3.6458
X3.8739Y-3.6458
T3
X4.2004Y-5.0984
X4.5004Y-5.0984
X4.5233Y-2.304
X4.5233Y-2.404
X4.5233Y-2.504
X4.5233Y-2.604
X4.5233Y-2.704
X4.5233Y-2.804
X4.5233Y-2.904
X4.5233Y-3.004
X4.5233Y-3.104
X4.5233Y-3.204
X4.5233Y-3.304
X4.5233Y-3.404
X5.1225Y-2.304
X5.1225Y-2.404
X5.1225Y-2.504
X5.1225Y-2.604
X5.1225Y-2.704
X5.1225Y-2.804
X5.1225Y-2.904
X5.1225Y-3.004
X5.1225Y-3.104
X5.1225Y-3.204
X5.1225Y-3.304
X5.1225Y-3.404
T4
X3.5039Y-3.3858
X3.6039Y-3.3858
X3.7039Y-3.3858
X3.8039Y-3.3858
X3.9039Y-3.3858
T5
X4.2913Y-2.5
X4.3913Y-2.5
T6
X3.5921Y-2.2642
X3.7693Y-2.2642
T7
X3.1299Y-2.6378
X3.1299Y-3.2087
X3.2283Y-3.2087
X3.3268Y-2.6378
X3.3268Y-3.2087
X3.5669Y-3.878
X3.874Y-3.878
X3.065Y-2.5
X3.372Y-2.5
X5.3189Y-2.5
X5.626Y-2.5
X5.374Y-2.6378
X5.374Y-3.2087
X5.4724Y-3.2087
X5.5709Y-2.6378
X5.5709Y-3.2087
X4.0748Y-3.6811
X4.0748Y-3.878
X4.6457Y-3.6811
X4.6457Y-3.7795
X4.6457Y-3.878
X3.8622Y-2.5
X4.1693Y-2.5
X4.1969Y-4.3701
X4.5039Y-4.3701
T8
X4.5039Y-5.9016
X4.7047Y-5.9803
X3.7953Y-5.9016
X3.9961Y-5.9803
X5.2126Y-5.9016
X5.4134Y-5.9803
X3.0866Y-5.9016
X3.2874Y-5.9803
T9
X3.5429Y-2.3622
X3.8189Y-2.3622
T11
X5.6102Y-2.3031
X3.0906Y-5.2756
X5.6102Y-5.2756
X3.0906Y-2.3031
T12
X3.4929Y-5.5827
X4.9102Y-5.5827
X4.2016Y-5.5827
X5.6189Y-5.5827
T13
X5.4304Y-3.9528
X5.7059Y-3.9528
X2.9921Y-3.9567
X3.2677Y-3.9567
T14
X5.1969Y-5.748
X5.6299Y-5.748
X3.0709Y-5.748
X3.5039Y-5.748
X4.4882Y-5.748
X4.9213Y-5.748
X3.7795Y-5.748
X4.2126Y-5.748
T15
X4.7047Y-5.748
X3.9961Y-5.748
X5.4134Y-5.748
X3.2874Y-5.748
T7
G00X5.3103Y-3.8701
M15
G01X5.2906Y-3.8701
M16
G05
G00X5.3693Y-4.0354
M15
G01X5.3496Y-4.0354
M16
G05
G00X5.5268Y-4.0354
M15
G01X5.5071Y-4.0354
M16
G05
G00X5.6449Y-4.0354
M15
G01X5.6252Y-4.0354
M16
G05
G00X3.0531Y-3.874
M15
G01X3.0728Y-3.874
M16
G05
G00X3.1713Y-3.874
M15
G01X3.1909Y-3.874
M16
G05
G00X3.3287Y-3.874
M15
G01X3.3484Y-3.874
M16
G05
G00X3.3878Y-4.0394
M15
G01X3.4075Y-4.0394
M16
G05
T10
G00X3.0079Y-2.9232
M15
G01X3.0079Y-2.9035
M16
G05
G00X3.4488Y-2.9232
M15
G01X3.4488Y-2.9035
M16
G05
G00X5.252Y-2.9232
M15
G01X5.252Y-2.9035
M16
G05
G00X5.6929Y-2.9232
M15
G01X5.6929Y-2.9035
M16
G05
G00X4.3602Y-3.5591
M15
G01X4.3406Y-3.5591
M16
G05
G00X4.3602Y-4.0
M15
G01X4.3406Y-4.0
M16
G05
T0
M30
